Russolo-24ptBold.ufo
<glyph name="exclam" format="2">
  <advance width="546.4866666666667"/>
  <unicode hex="0021"/>
  <note>
exclam
</note>
  <outline>
    <contour>
      <point x="229.80666666666667" y="351.4666666666667" type="curve"/>
      <point x="316.98" y="351.4666666666667" type="line"/>
      <point x="313.74666666666667" y="774.6146666666666"/>
      <point x="404.2733333333333" y="1072.8813333333333"/>
      <point x="404.2733333333333" y="1216.6" type="curve" smooth="yes"/>
      <point x="404.2733333333333" y="1296.5946666666666"/>
      <point x="302.0146666666667" y="1315.7613333333334"/>
      <point x="321.13733333333334" y="1467.98" type="curve"/>
      <point x="225.78266666666667" y="1467.98" type="line"/>
      <point x="244.90533333333335" y="1315.928"/>
      <point x="142.21333333333334" y="1296.5946666666666"/>
      <point x="142.21333333333334" y="1216.6" type="curve" smooth="yes"/>
      <point x="142.21333333333334" y="1072.7146666666667"/>
      <point x="232.90666666666667" y="774.6146666666666"/>
    </contour>
    <contour>
      <point x="272.972" y="-25.845333333333336" type="curve" smooth="yes"/>
      <point x="348.88266666666664" y="-25.845333333333336"/>
      <point x="406.1813333333333" y="32.34400000000001"/>
      <point x="406.1813333333333" y="109.89733333333334" type="curve" smooth="yes"/>
      <point x="406.1813333333333" y="187.68133333333336"/>
      <point x="348.17333333333335" y="244.31866666666667"/>
      <point x="272.972" y="244.31866666666667" type="curve" smooth="yes"/>
      <point x="197.77066666666667" y="244.31866666666667"/>
      <point x="139.76266666666666" y="187.68133333333336"/>
      <point x="139.76266666666666" y="109.89733333333334" type="curve" smooth="yes"/>
      <point x="139.76266666666666" y="32.34400000000001"/>
      <point x="197.06133333333332" y="-25.845333333333336"/>
    </contour>
  </outline>
</glyph>
<glyph name="quotedbl" format="2">
  <advance width="696.7706666666667"/>
  <unicode hex="0022"/>
  <note>
quotedbl
</note>
  <outline>
    <contour>
      <point x="422.204" y="824.7866666666666" type="line"/>
      <point x="545.6613333333333" y="824.7866666666666" type="line"/>
      <point x="564.9333333333334" y="1362.58" type="line"/>
      <point x="404.428" y="1362.58" type="line"/>
    </contour>
    <contour>
      <point x="149.716" y="824.7866666666666" type="line"/>
      <point x="271.86400000000003" y="824.7866666666666" type="line"/>
      <point x="292.8546666666667" y="1362.58" type="line"/>
      <point x="132.48266666666666" y="1362.58" type="line"/>
    </contour>
  </outline>
</glyph>
<glyph name="numbersign" format="2">
  <advance width="1426.0693333333334"/>
  <unicode hex="0023"/>
  <note>
numbersign
</note>
  <outline>
    <contour>
      <point x="734.2760000000001" y="-0.512" type="line"/>
      <point x="916.7173333333334" y="-0.512" type="line"/>
      <point x="1217.644" y="1436.7466666666667" type="line"/>
      <point x="1035.2026666666666" y="1436.7466666666667" type="line"/>
    </contour>
    <contour>
      <point x="102.524" y="466.10533333333336" type="line"/>
      <point x="1248.4226666666666" y="466.10533333333336" type="line"/>
      <point x="1248.4226666666666" y="552.8133333333334" type="line"/>
      <point x="102.524" y="552.8133333333334" type="line"/>
    </contour>
    <contour>
      <point x="197.88933333333335" y="-0.512" type="line"/>
      <point x="380.49733333333336" y="-0.512" type="line"/>
      <point x="682.5360000000001" y="1436.7466666666667" type="line"/>
      <point x="499.928" y="1436.7466666666667" type="line"/>
    </contour>
    <contour>
      <point x="178.392" y="900.4706666666667" type="line"/>
      <point x="1324.936" y="900.4706666666667" type="line"/>
      <point x="1324.936" y="987.6453333333334" type="line"/>
      <point x="178.392" y="987.6453333333334" type="line"/>
    </contour>
  </outline>
</glyph>
<glyph name="percent" format="2">
  <advance width="1550.684"/>
  <unicode hex="0025"/>
  <note>
percent
</note>
  <outline>
    <contour>
      <point x="217.08666666666664" y="-10.246666666666666" type="line"/>
      <point x="378.76" y="-10.246666666666666" type="line"/>
      <point x="1326.5093333333334" y="1437.3133333333333" type="line"/>
      <point x="1164.9693333333335" y="1437.3133333333333" type="line"/>
    </contour>
    <contour>
      <point x="1122.9146666666666" y="-28.64666666666667" type="curve" smooth="yes"/>
      <point x="1311.7253333333333" y="-28.64666666666667"/>
      <point x="1422.7946666666667" y="143.38266666666667"/>
      <point x="1422.7946666666667" y="362.0" type="curve" smooth="yes"/>
      <point x="1422.7946666666667" y="570.7053333333333"/>
      <point x="1303.9493333333332" y="753.1133333333333"/>
      <point x="1122.9146666666666" y="753.1133333333333" type="curve" smooth="yes"/>
      <point x="944.88" y="753.1133333333333"/>
      <point x="821.768" y="570.4813333333333"/>
      <point x="821.768" y="362.0" type="curve" smooth="yes"/>
      <point x="821.768" y="148.60933333333332"/>
      <point x="930.3653333333333" y="-28.64666666666667"/>
    </contour>
    <contour>
      <point x="1122.9146666666666" y="53.780000000000015" type="curve" smooth="yes"/>
      <point x="1049.1706666666666" y="53.780000000000015"/>
      <point x="1007.4613333333333" y="172.57866666666666"/>
      <point x="1007.4613333333333" y="362.0" type="curve" smooth="yes"/>
      <point x="1007.4613333333333" y="553.2426666666667"/>
      <point x="1048.8253333333332" y="670.4866666666667"/>
      <point x="1122.9146666666666" y="670.4866666666667" type="curve" smooth="yes"/>
      <point x="1195.7373333333333" y="670.4866666666667"/>
      <point x="1238.8013333333333" y="551.9186666666667"/>
      <point x="1238.8013333333333" y="362.0" type="curve" smooth="yes"/>
      <point x="1238.8013333333333" y="173.78133333333332"/>
      <point x="1196.0373333333334" y="53.780000000000015"/>
    </contour>
    <contour>
      <point x="430.01466666666664" y="673.3866666666667" type="curve" smooth="yes"/>
      <point x="618.692" y="673.3866666666667"/>
      <point x="729.8946666666667" y="845.2826666666666"/>
      <point x="729.8946666666667" y="1064.3333333333333" type="curve" smooth="yes"/>
      <point x="729.8946666666667" y="1272.272"/>
      <point x="610.7493333333333" y="1454.98"/>
      <point x="430.01466666666664" y="1454.98" type="curve" smooth="yes"/>
      <point x="251.38" y="1454.98"/>
      <point x="128.40133333333333" y="1272.5146666666667"/>
      <point x="128.40133333333333" y="1064.3333333333333" type="curve" smooth="yes"/>
      <point x="128.40133333333333" y="850.8093333333334"/>
      <point x="236.99866666666668" y="673.3866666666667"/>
    </contour>
    <contour>
      <point x="430.01466666666664" y="755.98" type="curve" smooth="yes"/>
      <point x="356.10400000000004" y="755.98"/>
      <point x="314.5613333333333" y="874.1453333333334"/>
      <point x="314.5613333333333" y="1064.3333333333333" type="curve" smooth="yes"/>
      <point x="314.5613333333333" y="1256.0426666666667"/>
      <point x="355.75866666666667" y="1372.5533333333333"/>
      <point x="430.01466666666664" y="1372.5533333333333" type="curve" smooth="yes"/>
      <point x="502.5373333333333" y="1372.5533333333333"/>
      <point x="545.6013333333333" y="1253.7853333333333"/>
      <point x="545.6013333333333" y="1064.3333333333333" type="curve" smooth="yes"/>
      <point x="545.6013333333333" y="876.448"/>
      <point x="502.5373333333333" y="755.98"/>
    </contour>
  </outline>
</glyph>
<glyph name="ampersand" format="2">
  <advance width="1440.2746666666667"/>
  <unicode hex="0026"/>
  <note>
ampersand
</note>
  <outline>
    <contour>
      <point x="649.8026666666667" y="-31.684" type="curve" smooth="yes"/>
      <point x="764.2426666666667" y="-31.684"/>
      <point x="896.3853333333334" y="-11.694666666666667"/>
      <point x="960.0653333333333" y="28.401333333333337" type="curve"/>
      <point x="885.0213333333334" y="116.06533333333334" type="line"/>
      <point x="847.7" y="77.88400000000001"/>
      <point x="693.34" y="52.97600000000001"/>
      <point x="643.8026666666667" y="52.97600000000001" type="curve" smooth="yes"/>
      <point x="469.8946666666667" y="52.97600000000001"/>
      <point x="413.94933333333336" y="221.2626666666667"/>
      <point x="413.94933333333336" y="396.85333333333335" type="curve" smooth="yes"/>
      <point x="413.94933333333336" y="594.332"/>
      <point x="498.696" y="736.1506666666667"/>
      <point x="662.636" y="735.184" type="curve"/>
      <point x="668.2693333333333" y="822.4586666666667" type="line"/>
      <point x="539.548" y="819.8253333333333"/>
      <point x="492.5493333333333" y="963.7866666666666"/>
      <point x="492.5493333333333" y="1089.8333333333333" type="curve" smooth="yes"/>
      <point x="492.5493333333333" y="1260.7013333333334"/>
      <point x="578.1186666666667" y="1381.32"/>
      <point x="681.436" y="1381.32" type="curve" smooth="yes"/>
      <point x="866.6493333333333" y="1381.32" type="line"/>
      <point x="866.6493333333333" y="1465.98" type="line"/>
      <point x="677.436" y="1465.98" type="line" smooth="yes"/>
      <point x="389.24266666666665" y="1465.98"/>
      <point x="228.08933333333334" y="1349.448"/>
      <point x="228.08933333333334" y="1089.8333333333333" type="curve" smooth="yes"/>
      <point x="228.08933333333334" y="975.9026666666666"/>
      <point x="263.26933333333335" y="837.6413333333334"/>
      <point x="380.61066666666665" y="787.124" type="curve"/>
      <point x="227.2133333333333" y="737.0573333333333"/>
      <point x="129.68933333333334" y="570.1386666666667"/>
      <point x="129.68933333333334" y="390.85333333333335" type="curve" smooth="yes"/>
      <point x="129.68933333333334" y="117.08533333333334"/>
      <point x="343.5866666666667" y="-31.684"/>
    </contour>
    <contour>
      <point x="1085.5426666666667" y="-30.038666666666668" type="curve" smooth="yes"/>
      <point x="1192.304" y="-30.038666666666668"/>
      <point x="1267.1333333333334" y="-14.549333333333333"/>
      <point x="1322.6226666666666" y="11.468" type="curve"/>
      <point x="1322.6226666666666" y="136.524" type="line"/>
      <point x="1215.5573333333334" y="74.80266666666667"/>
      <point x="1189.984" y="62.354666666666674"/>
      <point x="1142.1133333333332" y="62.354666666666674" type="curve" smooth="yes"/>
      <point x="1120.748" y="62.354666666666674"/>
      <point x="1124.4893333333334" y="198.4186666666667"/>
      <point x="1124.4893333333334" y="338.26800000000003" type="curve" smooth="yes"/>
      <point x="1124.4893333333334" y="735.184" type="line"/>
      <point x="1265.9893333333334" y="735.184" type="line"/>
      <point x="1265.9893333333334" y="822.1586666666667" type="line"/>
      <point x="1124.4893333333334" y="822.1586666666667" type="line"/>
      <point x="1124.4893333333334" y="1135.2253333333333" type="line"/>
      <point x="999.2293333333333" y="1135.2253333333333" type="line"/>
      <point x="1008.6293333333333" y="916.652"/>
      <point x="865.816" y="822.1586666666667"/>
      <point x="708.596" y="822.1586666666667" type="curve" smooth="yes"/>
      <point x="656.74" y="822.1586666666667" type="line"/>
      <point x="647.3493333333333" y="735.184" type="line"/>
      <point x="846.9293333333334" y="735.184" type="line"/>
      <point x="846.9293333333334" y="209.37466666666666" type="line" smooth="yes"/>
      <point x="846.9293333333334" y="68.44666666666667"/>
      <point x="934.3826666666666" y="-30.038666666666668"/>
    </contour>
  </outline>
</glyph>
<glyph name="quotesingle" format="2">
  <advance width="424.204"/>
  <unicode hex="0027"/>
  <note>
quotesingle
</note>
  <outline>
    <contour>
      <point x="149.716" y="824.7866666666666" type="line"/>
      <point x="271.86400000000003" y="824.7866666666666" type="line"/>
      <point x="292.8546666666667" y="1362.58" type="line"/>
      <point x="132.48266666666666" y="1362.58" type="line"/>
    </contour>
  </outline>
</glyph>
<glyph name="parenleft" format="2">
  <advance width="603.7946666666667"/>
  <unicode hex="0028"/>
  <note>
parenleft
</note>
  <outline>
    <contour>
      <point x="448.76800000000003" y="-413.22" type="curve"/>
      <point x="525.5906666666667" y="-367.176" type="line"/>
      <point x="369.596" y="-70.06"/>
      <point x="291.5013333333333" y="240.22"/>
      <point x="291.5013333333333" y="574.5653333333333" type="curve" smooth="yes"/>
      <point x="291.5013333333333" y="903.6533333333333"/>
      <point x="367.1933333333333" y="1204.8813333333333"/>
      <point x="525.8240000000001" y="1529.0693333333334" type="curve"/>
      <point x="447.21066666666667" y="1564.6533333333334" type="line"/>
      <point x="213.87466666666666" y="1263.8106666666667"/>
      <point x="97.20133333333334" y="946.428"/>
      <point x="97.20133333333334" y="580.6853333333333" type="curve" smooth="yes"/>
      <point x="97.20133333333334" y="221.14266666666668"/>
      <point x="210.07466666666667" y="-86.03866666666667"/>
    </contour>
  </outline>
</glyph>
<glyph name="parenright" format="2">
  <advance width="603.9613333333333"/>
  <unicode hex="0029"/>
  <note>
parenright
</note>
  <outline>
    <contour>
      <point x="155.32666666666668" y="-413.22" type="line"/>
      <point x="394.18666666666667" y="-86.03866666666667"/>
      <point x="506.76" y="221.14266666666668"/>
      <point x="506.76" y="580.6853333333333" type="curve" smooth="yes"/>
      <point x="506.76" y="946.128"/>
      <point x="390.05333333333334" y="1263.8106666666667"/>
      <point x="156.584" y="1564.7866666666666" type="curve"/>
      <point x="77.97066666666667" y="1529.0693333333334" type="line"/>
      <point x="237.03466666666665" y="1204.748"/>
      <point x="312.4266666666667" y="902.9866666666667"/>
      <point x="312.4266666666667" y="574.5653333333333" type="curve" smooth="yes"/>
      <point x="312.4266666666667" y="239.75333333333333"/>
      <point x="234.032" y="-70.69333333333333"/>
      <point x="78.20400000000001" y="-367.176" type="curve"/>
    </contour>
  </outline>
</glyph>
<glyph name="asterisk" format="2">
  <advance width="827.1733333333333"/>
  <unicode hex="002A"/>
  <note>
asterisk
</note>
  <outline>
    <contour>
      <point x="423.94" y="1128.708" type="line"/>
      <point x="550.7146666666666" y="1200.6813333333334"/>
      <point x="616.4293333333334" y="1191.5346666666667"/>
      <point x="662.0546666666667" y="1218.356" type="curve" smooth="yes"/>
      <point x="686.0453333333334" y="1232.4346666666668"/>
      <point x="671.112" y="1266.0493333333334"/>
      <point x="705.5693333333334" y="1286.24" type="curve"/>
      <point x="680.3026666666667" y="1329.768" type="line"/>
      <point x="646.2" y="1309.9226666666666"/>
      <point x="616.4533333333334" y="1333.2626666666667"/>
      <point x="600.94" y="1324.0226666666667" type="curve" smooth="yes"/>
      <point x="556.024" y="1297.9106666666667"/>
      <point x="528.7986666666667" y="1238.408"/>
      <point x="403.3906666666667" y="1164.7346666666667" type="curve"/>
    </contour>
    <contour>
      <point x="146.68266666666668" y="963.32" type="line"/>
      <point x="180.65200000000002" y="983.032"/>
      <point x="212.4346666666667" y="958.704"/>
      <point x="227.04533333333333" y="967.2533333333333" type="curve" smooth="yes"/>
      <point x="275.144" y="994.7933333333333"/>
      <point x="298.23199999999997" y="1054.68"/>
      <point x="423.94" y="1128.708" type="curve"/>
      <point x="403.3906666666667" y="1164.7346666666667" type="line"/>
      <point x="276.616" y="1092.54"/>
      <point x="210.448" y="1097.9466666666667"/>
      <point x="165.93066666666667" y="1072.92" type="curve" smooth="yes"/>
      <point x="149.64533333333333" y="1063.2306666666666"/>
      <point x="155.70666666666668" y="1026.6933333333334"/>
      <point x="121.24933333333334" y="1006.848" type="curve"/>
    </contour>
    <contour>
      <point x="388.15333333333336" y="823.068" type="curve"/>
      <point x="438.0106666666667" y="823.068" type="line"/>
      <point x="438.0106666666667" y="862.2706666666667"/>
      <point x="475.21333333333337" y="874.74"/>
      <point x="475.21333333333337" y="894.1853333333333" type="curve" smooth="yes"/>
      <point x="475.21333333333337" y="945.6"/>
      <point x="434.5026666666667" y="999.6413333333334"/>
      <point x="433.43600000000004" y="1145.288" type="curve"/>
      <point x="392.3826666666667" y="1145.288" type="line"/>
      <point x="391.31600000000003" y="999.7746666666667"/>
      <point x="353.11733333333336" y="945.4666666666667"/>
      <point x="353.11733333333336" y="894.1853333333333" type="curve" smooth="yes"/>
      <point x="353.11733333333336" y="874.6066666666667"/>
      <point x="388.15333333333336" y="862.2706666666667"/>
    </contour>
    <contour>
      <point x="403.436" y="1128.3533333333332" type="curve"/>
      <point x="424.29466666666667" y="1163.868" type="line"/>
      <point x="298.72" y="1238.0626666666667"/>
      <point x="266.9773333333333" y="1300.3373333333334"/>
      <point x="226.39066666666668" y="1323.6773333333333" type="curve" smooth="yes"/>
      <point x="211.00933333333333" y="1332.6"/>
      <point x="181.18533333333335" y="1309.4106666666667"/>
      <point x="146.728" y="1329.1226666666666" type="curve"/>
      <point x="121.94933333333334" y="1285.8946666666666" type="line"/>
      <point x="155.91866666666667" y="1266.0493333333334"/>
      <point x="148.47333333333333" y="1227.8893333333333"/>
      <point x="165.276" y="1218.0106666666666" type="curve" smooth="yes"/>
      <point x="206.572" y="1193.9613333333334"/>
      <point x="276.66133333333335" y="1200.3813333333333"/>
    </contour>
    <contour>
      <point x="600.4733333333334" y="966.908" type="curve" smooth="yes"/>
      <point x="616.268" y="957.6773333333333"/>
      <point x="646.6786666666667" y="983.032"/>
      <point x="680.4813333333334" y="963.32" type="curve"/>
      <point x="705.9146666666667" y="1006.548" type="line"/>
      <point x="671.812" y="1026.3933333333334"/>
      <point x="677.8720000000001" y="1063.1186666666667"/>
      <point x="661.588" y="1072.5653333333332" type="curve" smooth="yes"/>
      <point x="611.7493333333333" y="1101.036"/>
      <point x="550.936" y="1092.1946666666668"/>
      <point x="424.29466666666667" y="1163.868" type="curve"/>
      <point x="403.436" y="1128.3533333333332" type="line"/>
      <point x="528.932" y="1054.38"/>
      <point x="552.448" y="994.8493333333333"/>
    </contour>
    <contour>
      <point x="392.3826666666667" y="1145.288" type="curve"/>
      <point x="433.79066666666665" y="1145.288" type="line"/>
      <point x="434.8573333333334" y="1291.2893333333334"/>
      <point x="475.21333333333337" y="1345.1973333333333"/>
      <point x="475.21333333333337" y="1396.7453333333333" type="curve" smooth="yes"/>
      <point x="475.21333333333337" y="1416.1813333333334"/>
      <point x="438.36533333333335" y="1429.0053333333333"/>
      <point x="438.36533333333335" y="1468.208" type="curve"/>
      <point x="388.15333333333336" y="1468.208" type="line"/>
      <point x="388.15333333333336" y="1428.872"/>
      <point x="353.11733333333336" y="1416.1813333333334"/>
      <point x="353.11733333333336" y="1396.7453333333333" type="curve" smooth="yes"/>
      <point x="353.11733333333336" y="1345.464"/>
      <point x="391.31600000000003" y="1291.156"/>
    </contour>
  </outline>
</glyph>
<glyph name="plus" format="2">
  <advance width="1096.3893333333333"/>
  <unicode hex="002B"/>
  <note>
plus
</note>
  <outline>
    <contour>
      <point x="125.61466666666666" y="578.0866666666667" type="line"/>
      <point x="970.7746666666667" y="578.0866666666667" type="line"/>
      <point x="970.7746666666667" y="757.7133333333334" type="line"/>
      <point x="125.61466666666666" y="757.7133333333334" type="line"/>
    </contour>
    <contour>
      <point x="469.81466666666665" y="245.32" type="line"/>
      <point x="626.408" y="245.32" type="line"/>
      <point x="626.408" y="1090.48" type="line"/>
      <point x="469.81466666666665" y="1090.48" type="line"/>
    </contour>
  </outline>
</glyph>
<glyph name="comma" format="2">
  <advance width="591.1333333333333"/>
  <unicode hex="002C"/>
  <note>
comma
</note>
  <outline>
    <contour>
      <point x="129.83466666666666" y="-176.24" type="curve"/>
      <point x="324.344" y="-176.24" type="line"/>
      <point x="387.848" y="-59.94666666666667"/>
      <point x="440.8466666666667" y="70.04"/>
      <point x="467.2773333333334" y="173.21333333333334" type="curve"/>
      <point x="236.25333333333333" y="173.21333333333334" type="line"/>
      <point x="195.99733333333333" y="84.47733333333333"/>
      <point x="146.28666666666666" y="-74.22666666666666"/>
    </contour>
  </outline>
</glyph>
<glyph name="hyphen" format="2">
  <advance width="738.38"/>
  <unicode hex="002D"/>
  <note>
hyphen
</note>
  <outline>
    <contour>
      <point x="72.68266666666666" y="443.05333333333334" type="line"/>
      <point x="613.0613333333333" y="443.05333333333334" type="line"/>
      <point x="669.284" y="602.62" type="line"/>
      <point x="128.30533333333332" y="602.62" type="line"/>
    </contour>
  </outline>
</glyph>
<glyph name="period" format="2">
  <advance width="575.208"/>
  <unicode hex="002E"/>
  <note>
period
</note>
  <outline>
    <contour>
      <point x="287.4266666666667" y="-24.112000000000002" type="curve" smooth="yes"/>
      <point x="372.61333333333334" y="-24.112000000000002"/>
      <point x="438.6066666666667" y="40.105333333333334"/>
      <point x="438.6066666666667" y="127.20133333333334" type="curve" smooth="yes"/>
      <point x="438.6066666666667" y="215.0066666666667"/>
      <point x="371.904" y="277.80533333333335"/>
      <point x="287.4266666666667" y="277.80533333333335" type="curve" smooth="yes"/>
      <point x="202.94933333333336" y="277.80533333333335"/>
      <point x="136.24666666666667" y="215.00666666666666"/>
      <point x="136.24666666666667" y="127.20133333333334" type="curve" smooth="yes"/>
      <point x="136.24666666666667" y="40.238666666666674"/>
      <point x="202.10666666666668" y="-24.112000000000002"/>
    </contour>
  </outline>
</glyph>
<glyph name="slash" format="2">
  <advance width="724.5026666666666"/>
  <unicode hex="002F"/>
  <note>
slash
</note>
  <outline>
    <contour>
      <point x="44.891999999999996" y="-403.5466666666667" type="line"/>
      <point x="187.648" y="-403.5466666666667" type="line"/>
      <point x="679.6106666666667" y="1501.0466666666666" type="line"/>
      <point x="536.988" y="1501.0466666666666" type="line"/>
    </contour>
  </outline>
</glyph>
<glyph name="zero" format="2">
  <advance width="1358.708"/>
  <unicode hex="0030"/>
  <note>
zero
</note>
  <anchor x="669.364" y="714.096" name="center"/>
  <outline>
    <contour>
      <point x="679.2706666666667" y="-35.275999999999996" type="curve" smooth="yes"/>
      <point x="1039.3986666666667" y="-35.275999999999996"/>
      <point x="1271.5373333333332" y="318.57733333333334"/>
      <point x="1271.5373333333332" y="714.096" type="curve" smooth="yes"/>
      <point x="1271.5373333333332" y="1099.248"/>
      <point x="1019.252" y="1465.88"/>
      <point x="679.2706666666667" y="1465.88" type="curve" smooth="yes"/>
      <point x="337.4666666666667" y="1465.88"/>
      <point x="87.17066666666668" y="1103.9613333333334"/>
      <point x="87.17066666666668" y="714.096" type="curve" smooth="yes"/>
      <point x="87.17066666666668" y="326.164"/>
      <point x="320.52133333333336" y="-35.275999999999996"/>
    </contour>
    <contour>
      <point x="679.2706666666667" y="49.058666666666674" type="curve" smooth="yes"/>
      <point x="500.25866666666667" y="49.058666666666674"/>
      <point x="370.764" y="310.36533333333335"/>
      <point x="370.764" y="714.096" type="curve" smooth="yes"/>
      <point x="370.764" y="1117.0026666666668"/>
      <point x="499.21333333333337" y="1381.512"/>
      <point x="679.2706666666667" y="1381.512" type="curve" smooth="yes"/>
      <point x="858.2733333333333" y="1381.512"/>
      <point x="987.9773333333333" y="1116.0573333333334"/>
      <point x="987.9773333333333" y="714.096" type="curve" smooth="yes"/>
      <point x="987.9773333333333" y="312.5133333333333"/>
      <point x="859.2733333333333" y="49.058666666666674"/>
    </contour>
  </outline>
</glyph>
<glyph name="one" format="2">
  <advance width="685.8973333333333"/>
  <unicode hex="0031"/>
  <note>
one
</note>
  <outline>
    <contour>
      <point x="257.75333333333333" y="-0.1333333333333333" type="line"/>
      <point x="529.6973333333333" y="-0.1333333333333333" type="line"/>
      <point x="529.6973333333333" y="1428.1453333333334" type="line"/>
      <point x="407.4266666666667" y="1428.1453333333334" type="line"/>
      <point x="45.809333333333335" y="908.2906666666667" type="line"/>
      <point x="117.22533333333334" y="857.5173333333333" type="line"/>
      <point x="305.0373333333333" y="1114.1826666666666" type="line"/>
      <point x="257.75333333333333" y="1116.8333333333333" type="line"/>
    </contour>
  </outline>
</glyph>
<glyph name="two" format="2">
  <advance width="1172.3053333333335"/>
  <unicode hex="0032"/>
  <note>
two
</note>
  <outline>
    <contour>
      <point x="60.854666666666674" y="0.0" type="line"/>
      <point x="1066.3173333333334" y="0.0" type="line"/>
      <point x="1066.3173333333334" y="198.65733333333333" type="line"/>
      <point x="316.1093333333333" y="198.65733333333336" type="line"/>
      <point x="305.85866666666664" y="134.57866666666666" type="line"/>
      <point x="534.1173333333334" y="313.37733333333335"/>
      <point x="709.06" y="466.548"/>
      <point x="846.9413333333333" y="612.336" type="curve" smooth="yes"/>
      <point x="950.7586666666667" y="721.0466666666666"/>
      <point x="1072.5813333333333" y="849.592"/>
      <point x="1072.5813333333333" y="1050.208" type="curve" smooth="yes"/>
      <point x="1072.5813333333333" y="1343.032"/>
      <point x="866.456" y="1465.98"/>
      <point x="612.3146666666667" y="1465.98" type="curve" smooth="yes"/>
      <point x="313.444" y="1465.98"/>
      <point x="115.96000000000001" y="1296.2546666666667"/>
      <point x="115.96000000000001" y="1047.5266666666666" type="curve" smooth="yes"/>
      <point x="115.96000000000001" y="1038.648"/>
      <point x="116.42666666666668" y="1016.4666666666667"/>
      <point x="121.28399999999999" y="983.5133333333333" type="curve"/>
      <point x="375.21066666666667" y="987.152" type="line"/>
      <point x="375.21066666666667" y="1027.2986666666666" type="line" smooth="yes"/>
      <point x="375.21066666666667" y="1193.604"/>
      <point x="449.308" y="1391.2186666666666"/>
      <point x="591.6346666666667" y="1391.2186666666666" type="curve" smooth="yes"/>
      <point x="695.636" y="1391.2186666666666"/>
      <point x="803.6759999999999" y="1295.3"/>
      <point x="803.6759999999999" y="1095.94" type="curve" smooth="yes"/>
      <point x="803.6759999999999" y="869.2813333333334"/>
      <point x="660.528" y="639.0226666666666"/>
      <point x="443.1906666666667" y="406.5106666666667" type="curve" smooth="yes"/>
    </contour>
  </outline>
</glyph>
<glyph name="three" format="2">
  <advance width="1159.512"/>
  <unicode hex="0033"/>
  <note>
three
</note>
  <outline>
    <contour>
      <point x="548.1706666666666" y="-29.689333333333334" type="curve" smooth="yes"/>
      <point x="853.6106666666667" y="-29.689333333333334"/>
      <point x="1069.4506666666666" y="128.19066666666666"/>
      <point x="1069.4506666666666" y="397.068" type="curve" smooth="yes"/>
      <point x="1069.4506666666666" y="603.5813333333333"/>
      <point x="938.576" y="759.5826666666667"/>
      <point x="729.3773333333334" y="787.948" type="curve"/>
      <point x="709.088" y="737.824" type="line"/>
      <point x="917.4306666666666" y="771.2546666666667"/>
      <point x="1032.4506666666666" y="910.3946666666667"/>
      <point x="1032.4506666666666" y="1093.8173333333334" type="curve" smooth="yes"/>
      <point x="1032.4506666666666" y="1322.4266666666667"/>
      <point x="859.8933333333333" y="1465.88"/>
      <point x="582.4706666666667" y="1465.88" type="curve" smooth="yes"/>
      <point x="290.79466666666667" y="1465.88"/>
      <point x="108.116" y="1307.5493333333334"/>
      <point x="100.824" y="1068.2346666666667" type="curve"/>
      <point x="338.172" y="1069.84" type="line"/>
      <point x="341.29066666666665" y="1202.8386666666665"/>
      <point x="423.7493333333333" y="1389.1426666666666"/>
      <point x="578.1706666666666" y="1389.1426666666666" type="curve" smooth="yes"/>
      <point x="713.6386666666667" y="1389.1426666666666"/>
      <point x="784.2693333333333" y="1240.6373333333333"/>
      <point x="784.2693333333333" y="1075.4733333333334" type="curve" smooth="yes"/>
      <point x="784.2693333333333" y="898.5146666666667"/>
      <point x="700.82" y="796.2293333333333"/>
      <point x="534.004" y="796.2293333333333" type="curve" smooth="yes"/>
      <point x="324.624" y="796.2293333333333" type="line"/>
      <point x="324.624" y="728.08" type="line"/>
      <point x="538.004" y="728.08" type="line" smooth="yes"/>
      <point x="700.044" y="728.08"/>
      <point x="796.428" y="593.5346666666667"/>
      <point x="796.428" y="402.40133333333335" type="curve" smooth="yes"/>
      <point x="796.428" y="221.736"/>
      <point x="710.332" y="42.73066666666667"/>
      <point x="554.1706666666666" y="42.73066666666667" type="curve" smooth="yes"/>
      <point x="407.71733333333333" y="42.73066666666667"/>
      <point x="323.32" y="203.632"/>
      <point x="323.32" y="354.9386666666667" type="curve" smooth="yes"/>
      <point x="323.32" y="379.6186666666667" type="line"/>
      <point x="73.89066666666666" y="381.6906666666667" type="line"/>
      <point x="73.89066666666666" y="348.91066666666666" type="line" smooth="yes"/>
      <point x="73.89066666666666" y="115.196"/>
      <point x="255.68266666666668" y="-29.689333333333334"/>
    </contour>
  </outline>
</glyph>
<glyph name="four" format="2">
  <advance width="1120.8613333333333"/>
  <unicode hex="0034"/>
  <note>
four
</note>
  <outline>
    <contour>
      <point x="659.472" y="0.0" type="line"/>
      <point x="890.1093333333333" y="0.0" type="line"/>
      <point x="890.1093333333333" y="447.3226666666667" type="line"/>
      <point x="772.0773333333334" y="341.61199999999997" type="line"/>
      <point x="1064.4093333333333" y="341.61199999999997" type="line"/>
      <point x="1064.4093333333333" y="502.6653333333333" type="line"/>
      <point x="772.0773333333334" y="502.6653333333333" type="line"/>
      <point x="890.1093333333333" y="409.076" type="line"/>
      <point x="890.1093333333333" y="835.2266666666667" type="line"/>
      <point x="659.472" y="835.2266666666667" type="line"/>
      <point x="659.472" y="409.076" type="line"/>
      <point x="765.104" y="502.6653333333333" type="line"/>
      <point x="214.09733333333335" y="502.6653333333333" type="line"/>
      <point x="267.952" y="455.048" type="line"/>
      <point x="445.9293333333334" y="779.2266666666667"/>
      <point x="622.3426666666667" y="1090.456"/>
      <point x="737.8093333333334" y="1456.1" type="curve"/>
      <point x="576.8453333333333" y="1456.1" type="line"/>
      <point x="461.25866666666667" y="1086.608"/>
      <point x="271.48" y="739.5266666666666"/>
      <point x="46.66666666666667" y="341.61199999999997" type="curve"/>
      <point x="765.104" y="341.61199999999997" type="line"/>
      <point x="659.472" y="447.3226666666667" type="line"/>
    </contour>
  </outline>
</glyph>
<glyph name="five" format="2">
  <advance width="1061.828"/>
  <unicode hex="0035"/>
  <note>
five
</note>
  <outline>
    <contour>
      <point x="443.6933333333333" y="-32.77466666666667" type="curve" smooth="yes"/>
      <point x="778.3373333333334" y="-32.77466666666667"/>
      <point x="976.3906666666667" y="192.15333333333334"/>
      <point x="976.3906666666667" y="468.4893333333333" type="curve" smooth="yes"/>
      <point x="976.3906666666667" y="759.8453333333333"/>
      <point x="735.508" y="875.4786666666666"/>
      <point x="484.128" y="875.4786666666666" type="curve" smooth="yes"/>
      <point x="383.608" y="875.4786666666666"/>
      <point x="266.0373333333333" y="845.1386666666667"/>
      <point x="204.30133333333333" y="767.3546666666666" type="curve"/>
      <point x="241.00533333333334" y="773.9133333333333" type="line"/>
      <point x="358.78266666666667" y="1326.8706666666667" type="line"/>
      <point x="258.64" y="1215.3946666666666" type="line"/>
      <point x="902.74" y="1215.3946666666666" type="line"/>
      <point x="902.74" y="1434.8346666666666" type="line"/>
      <point x="261.8946666666667" y="1434.8346666666666" type="line"/>
      <point x="121.128" y="734.072" type="line"/>
      <point x="206.30533333333332" y="704.3013333333333" type="line"/>
      <point x="269.1186666666667" y="770.4093333333333"/>
      <point x="354.2026666666667" y="789.7386666666666"/>
      <point x="421.54133333333334" y="789.7386666666666" type="curve" smooth="yes"/>
      <point x="620.1986666666667" y="789.7386666666666"/>
      <point x="714.3573333333334" y="670.3866666666667"/>
      <point x="714.3573333333334" y="451.2866666666667" type="curve" smooth="yes"/>
      <point x="714.3573333333334" y="270.6066666666667"/>
      <point x="646.496" y="51.80800000000001"/>
      <point x="440.64" y="51.80800000000001" type="curve" smooth="yes"/>
      <point x="326.53866666666664" y="51.80800000000001"/>
      <point x="189.84933333333333" y="115.53733333333334"/>
      <point x="99.92666666666668" y="191.148" type="curve"/>
      <point x="63.056000000000004" y="118.45466666666667" type="line"/>
      <point x="157.15333333333334" y="37.645333333333326"/>
      <point x="268.27066666666667" y="-32.77466666666667"/>
    </contour>
  </outline>
</glyph>
<glyph name="six" format="2">
  <advance width="1149.696"/>
  <unicode hex="0036"/>
  <note>
six
</note>
  <outline>
    <contour>
      <point x="572.572" y="-35.64266666666667" type="curve" smooth="yes"/>
      <point x="902.0133333333333" y="-35.909333333333336"/>
      <point x="1079.92" y="166.92533333333333"/>
      <point x="1079.92" y="435.964" type="curve" smooth="yes"/>
      <point x="1079.92" y="702.6986666666667"/>
      <point x="895.16" y="898.4386666666667"/>
      <point x="600.396" y="898.4386666666667" type="curve" smooth="yes"/>
      <point x="463.4" y="898.4386666666667"/>
      <point x="351.1546666666667" y="843.42"/>
      <point x="278.92133333333334" y="721.2213333333333" type="curve"/>
      <point x="325.03333333333336" y="720.7333333333333" type="line"/>
      <point x="354.4186666666667" y="882.188"/>
      <point x="398.944" y="982.0786666666667"/>
      <point x="463.44933333333336" y="1074.9906666666666" type="curve" smooth="yes"/>
      <point x="553.4133333333333" y="1208.0986666666668"/>
      <point x="681.964" y="1313.8973333333333"/>
      <point x="845.624" y="1354.3493333333333" type="curve"/>
      <point x="844.6906666666666" y="1468.4586666666667" type="line"/>
      <point x="549.676" y="1414.0693333333334"/>
      <point x="351.57866666666666" y="1256.2493333333334"/>
      <point x="236.16266666666664" y="1060.4973333333332" type="curve" smooth="yes"/>
      <point x="128.74666666666667" y="888.0306666666667"/>
      <point x="84.828" y="681.7946666666667"/>
      <point x="84.828" y="511.73199999999997" type="curve" smooth="yes"/>
      <point x="84.828" y="138.60266666666666"/>
      <point x="280.8933333333333" y="-35.376"/>
    </contour>
    <contour>
      <point x="585.86" y="50.79466666666667" type="curve" smooth="yes"/>
      <point x="431.33733333333333" y="51.06133333333333"/>
      <point x="340.92133333333334" y="228.36266666666666"/>
      <point x="341.188" y="433.0106666666667" type="curve" smooth="yes"/>
      <point x="341.4546666666667" y="652.636"/>
      <point x="454.916" y="808.5106666666667"/>
      <point x="599.208" y="808.5106666666667" type="curve" smooth="yes"/>
      <point x="751.4386666666667" y="808.5106666666667"/>
      <point x="825.1" y="611.668"/>
      <point x="825.1" y="427.772" type="curve" smooth="yes"/>
      <point x="825.1" y="213.9226666666667"/>
      <point x="727.7133333333334" y="50.66133333333334"/>
    </contour>
  </outline>
</glyph>
<glyph name="seven" format="2">
  <advance width="1064.4360000000001"/>
  <unicode hex="0037"/>
  <note>
seven
</note>
  <outline>
    <contour>
      <point x="289.14933333333335" y="-0.3546666666666667" type="curve"/>
      <point x="479.02133333333336" y="-0.3546666666666667" type="line"/>
      <point x="556.768" y="540.6506666666667"/>
      <point x="752.1226666666666" y="982.0013333333334"/>
      <point x="1017.2453333333333" y="1422.9133333333334" type="curve"/>
      <point x="60.01733333333333" y="1422.9133333333334" type="line"/>
      <point x="60.01733333333333" y="1197.4" type="line"/>
      <point x="833.092" y="1197.4" type="line"/>
      <point x="793.5933333333334" y="1302.4466666666667" type="line"/>
      <point x="581.1573333333333" y="962.1866666666666"/>
      <point x="389.74" y="545.9093333333333"/>
    </contour>
  </outline>
</glyph>
<glyph name="eight" format="2">
  <advance width="1139.1746666666668"/>
  <unicode hex="0038"/>
  <note>
eight
</note>
  <outline>
    <contour>
      <point x="556.4306666666666" y="-33.96666666666667" type="curve" smooth="yes"/>
      <point x="863.004" y="-33.96666666666667"/>
      <point x="1062.1373333333333" y="130.212"/>
      <point x="1062.1373333333333" y="383.4266666666667" type="curve" smooth="yes"/>
      <point x="1062.1373333333333" y="602.1933333333334"/>
      <point x="918.848" y="757.4066666666666"/>
      <point x="616.3226666666667" y="861.8386666666667" type="curve" smooth="yes"/>
      <point x="461.37333333333333" y="915.7333333333333"/>
      <point x="385.836" y="990.616"/>
      <point x="385.836" y="1106.1066666666666" type="curve" smooth="yes"/>
      <point x="385.836" y="1275.084"/>
      <point x="467.82933333333335" y="1378.84"/>
      <point x="608.0933333333334" y="1378.84" type="curve" smooth="yes"/>
      <point x="753.904" y="1378.84"/>
      <point x="865.9866666666667" y="1269.4053333333334"/>
      <point x="865.9866666666667" y="1125.5746666666666" type="curve" smooth="yes"/>
      <point x="865.9866666666667" y="997.3013333333333"/>
      <point x="799.3146666666667" y="883.5333333333333"/>
      <point x="587.5733333333333" y="812.656" type="curve"/>
      <point x="712.0" y="782.5506666666666" type="line"/>
      <point x="874.4826666666667" y="848.2546666666667"/>
      <point x="972.752" y="974.0706666666666"/>
      <point x="972.752" y="1124.824" type="curve" smooth="yes"/>
      <point x="972.752" y="1318.484"/>
      <point x="802.36" y="1454.244"/>
      <point x="577.8453333333333" y="1453.732" type="curve" smooth="yes"/>
      <point x="328.0253333333333" y="1453.0866666666666"/>
      <point x="149.84" y="1311.9093333333333"/>
      <point x="149.84" y="1095.8426666666667" type="curve" smooth="yes"/>
      <point x="149.84" y="906.4106666666667"/>
      <point x="281.63733333333334" y="765.3733333333333"/>
      <point x="490.69466666666665" y="691.092" type="curve" smooth="yes"/>
      <point x="746.692" y="599.0413333333333"/>
      <point x="814.272" y="526.4106666666667"/>
      <point x="814.272" y="365.60266666666666" type="curve" smooth="yes"/>
      <point x="814.272" y="167.03333333333333"/>
      <point x="716.064" y="47.47733333333335"/>
      <point x="536.5146666666667" y="46.768000000000015" type="curve" smooth="yes"/>
      <point x="341.12266666666665" y="46.05866666666668"/>
      <point x="218.04666666666668" y="182.93066666666667"/>
      <point x="217.53466666666668" y="357.99466666666666" type="curve" smooth="yes"/>
      <point x="216.88933333333335" y="509.3813333333333"/>
      <point x="300.716" y="646.972"/>
      <point x="480.0493333333333" y="743.7386666666666" type="curve"/>
      <point x="393.48266666666666" y="775.656" type="line"/>
      <point x="193.09466666666668" y="694.68"/>
      <point x="81.19066666666666" y="543.24"/>
      <point x="81.19066666666666" y="355.952" type="curve" smooth="yes"/>
      <point x="81.19066666666666" y="120.45733333333332"/>
      <point x="259.74266666666665" y="-33.96666666666667"/>
    </contour>
  </outline>
</glyph>
<glyph name="nine" format="2">
  <advance width="1149.0426666666667"/>
  <unicode hex="0039"/>
  <note>
nine
</note>
  <outline>
    <contour>
      <point x="229.51066666666668" y="-49.88" type="line"/>
      <point x="456.99333333333334" y="-25.484000000000005"/>
      <point x="630.0173333333333" y="60.19733333333332"/>
      <point x="748.48" y="157.2493333333333" type="curve" smooth="yes"/>
      <point x="822.6986666666667" y="217.53066666666666"/>
      <point x="879.64" y="289.204"/>
      <point x="933.9173333333333" y="386.55066666666664" type="curve" smooth="yes"/>
      <point x="1030.4893333333334" y="559.7413333333333"/>
      <point x="1065.2413333333334" y="775.748"/>
      <point x="1065.2413333333334" y="930.9639999999999" type="curve" smooth="yes"/>
      <point x="1065.2413333333334" y="1300.892"/>
      <point x="870.116" y="1460.3386666666668"/>
      <point x="579.6253333333333" y="1460.6053333333334" type="curve" smooth="yes"/>
      <point x="255.78666666666666" y="1460.872"/>
      <point x="70.14933333333335" y="1258.488"/>
      <point x="70.14933333333335" y="991.0546666666667" type="curve" smooth="yes"/>
      <point x="70.14933333333335" y="716.3146666666667"/>
      <point x="264.78933333333333" y="519.7906666666667"/>
      <point x="548.8306666666666" y="519.7906666666667" type="curve" smooth="yes"/>
      <point x="691.8493333333333" y="519.7906666666667"/>
      <point x="792.1813333333333" y="578.4093333333333"/>
      <point x="871.148" y="703.8746666666666" type="curve"/>
      <point x="825.1853333333333" y="705.648" type="line"/>
      <point x="794.044" y="557.44"/>
      <point x="773.5373333333333" y="460.852"/>
      <point x="695.9546666666666" y="352.43066666666664" type="curve" smooth="yes"/>
      <point x="615.1453333333334" y="233.90133333333335"/>
      <point x="463.77733333333333" y="103.21733333333333"/>
      <point x="238.27733333333333" y="75.02933333333335" type="curve"/>
    </contour>
    <contour>
      <point x="550.3186666666667" y="613.3186666666667" type="curve" smooth="yes"/>
      <point x="396.5013333333334" y="613.3186666666667"/>
      <point x="327.1693333333333" y="810.5413333333333"/>
      <point x="327.1693333333333" y="994.9906666666667" type="curve" smooth="yes"/>
      <point x="327.1693333333333" y="1207.02"/>
      <point x="421.0266666666667" y="1373.0346666666667"/>
      <point x="564.376" y="1372.768" type="curve" smooth="yes"/>
      <point x="715.0360000000001" y="1372.6346666666666"/>
      <point x="806.8146666666667" y="1191.2093333333332"/>
      <point x="806.548" y="989.752" type="curve" smooth="yes"/>
      <point x="806.2813333333334" y="768.5026666666666"/>
      <point x="690.3573333333334" y="613.3186666666667"/>
    </contour>
  </outline>
</glyph>
<glyph name="greater" format="2">
  <advance width="1096.3893333333333"/>
  <unicode hex="003E"/>
  <note>
greater
</note>
  <outline>
    <contour>
      <point x="125.96933333333334" y="216.85066666666668" type="line"/>
      <point x="988.2653333333333" y="609.5506666666666" type="line"/>
      <point x="988.2653333333333" y="755.616" type="line"/>
      <point x="125.96933333333334" y="1148.016" type="line"/>
      <point x="125.61466666666666" y="987.7573333333333" type="line"/>
      <point x="796.696" y="683.5333333333333" type="line"/>
      <point x="125.61466666666666" y="377.276" type="line"/>
    </contour>
  </outline>
</glyph>
<glyph name="question" format="2">
  <advance width="1079.8386666666668"/>
  <unicode hex="003F"/>
  <note>
question
</note>
  <outline>
    <contour>
      <point x="441.73066666666665" y="439.536" type="curve"/>
      <point x="569.0133333333333" y="439.536" type="line"/>
      <point x="543.0426666666667" y="491.532"/>
      <point x="518.3786666666667" y="572.8773333333334"/>
      <point x="518.3786666666667" y="634.9333333333334" type="curve" smooth="yes"/>
      <point x="518.3786666666667" y="901.7813333333334"/>
      <point x="975.9373333333333" y="866.3573333333334"/>
      <point x="975.9373333333333" y="1168.0333333333333" type="curve" smooth="yes"/>
      <point x="975.9373333333333" y="1389.2506666666666"/>
      <point x="743.1386666666667" y="1467.7106666666666"/>
      <point x="501.152" y="1467.7106666666666" type="curve" smooth="yes"/>
      <point x="232.88133333333334" y="1467.7106666666666"/>
      <point x="98.74666666666667" y="1373.0893333333333"/>
      <point x="98.74666666666667" y="1179.3666666666666" type="curve" smooth="yes"/>
      <point x="98.74666666666667" y="1166.4306666666666"/>
      <point x="98.74666666666667" y="1154.6066666666666"/>
      <point x="98.74666666666667" y="1131.1893333333333" type="curve"/>
      <point x="294.5946666666667" y="1131.1893333333333" type="line"/>
      <point x="288.23733333333337" y="1152.8066666666666"/>
      <point x="287.0706666666667" y="1188.512"/>
      <point x="287.0706666666667" y="1201.0666666666666" type="curve" smooth="yes"/>
      <point x="287.0706666666667" y="1309.3853333333334"/>
      <point x="367.8933333333333" y="1382.5693333333334"/>
      <point x="499.3186666666667" y="1382.5693333333334" type="curve" smooth="yes"/>
      <point x="634.184" y="1382.5693333333334"/>
      <point x="726.8066666666666" y="1304.4466666666667"/>
      <point x="726.8066666666666" y="1160.2333333333333" type="curve" smooth="yes"/>
      <point x="726.8066666666666" y="893.0213333333334"/>
      <point x="411.948" y="973.4893333333333"/>
      <point x="411.948" y="623.2333333333333" type="curve" smooth="yes"/>
      <point x="411.948" y="565.252"/>
      <point x="423.67466666666667" y="495.6813333333333"/>
    </contour>
    <contour>
      <point x="508.1186666666667" y="-25.845333333333336" type="curve" smooth="yes"/>
      <point x="584.0293333333334" y="-25.845333333333336"/>
      <point x="641.328" y="32.34400000000001"/>
      <point x="641.328" y="109.89733333333334" type="curve" smooth="yes"/>
      <point x="641.328" y="187.68133333333336"/>
      <point x="583.32" y="244.31866666666667"/>
      <point x="508.1186666666667" y="244.31866666666667" type="curve" smooth="yes"/>
      <point x="432.9173333333333" y="244.31866666666667"/>
      <point x="374.90933333333334" y="187.68133333333336"/>
      <point x="374.90933333333334" y="109.89733333333334" type="curve" smooth="yes"/>
      <point x="374.90933333333334" y="32.34400000000001"/>
      <point x="432.208" y="-25.845333333333336"/>
    </contour>
  </outline>
</glyph>
<glyph name="at" format="2">
  <advance width="1766.9746666666667"/>
  <unicode hex="0040"/>
  <note>
at
</note>
  <outline>
    <contour>
      <point x="925.6693333333334" y="-38.31333333333333" type="curve" smooth="yes"/>
      <point x="1226.6746666666668" y="-38.31333333333333"/>
      <point x="1495.8706666666667" y="127.70533333333333"/>
      <point x="1630.464" y="373.3466666666667" type="curve"/>
      <point x="1500.924" y="373.41333333333336" type="line"/>
      <point x="1374.5493333333334" y="168.03066666666666"/>
      <point x="1166.2546666666667" y="45.18000000000001"/>
      <point x="925.4026666666666" y="45.18000000000001" type="curve" smooth="yes"/>
      <point x="555.4346666666667" y="45.18000000000001"/>
      <point x="254.44933333333336" y="345.4626666666667"/>
      <point x="254.44933333333336" y="714.6" type="curve" smooth="yes"/>
      <point x="254.44933333333336" y="1082.3373333333334"/>
      <point x="555.4346666666667" y="1382.4533333333334"/>
      <point x="925.4026666666666" y="1382.4533333333334" type="curve" smooth="yes"/>
      <point x="1253.036" y="1382.4533333333334"/>
      <point x="1489.956" y="1150.6293333333333"/>
      <point x="1489.956" y="837.7" type="curve" smooth="yes"/>
      <point x="1489.956" y="730.4226666666667"/>
      <point x="1457.992" y="623.752"/>
      <point x="1409.888" y="555.7626666666666" type="curve" smooth="yes"/>
      <point x="1373.0586666666666" y="502.2973333333333"/>
      <point x="1283.3853333333334" y="393.3466666666667"/>
      <point x="1245.936" y="377.8466666666667" type="curve" smooth="yes"/>
      <point x="1209.2986666666666" y="380.18"/>
      <point x="1198.8493333333333" y="398.65866666666665"/>
      <point x="1193.204" y="430.54533333333336" type="curve"/>
      <point x="1362.2853333333333" y="1094.3466666666666" type="line"/>
      <point x="1115.8493333333333" y="1094.3466666666666" type="line"/>
      <point x="1097.8573333333334" y="1027.1053333333334" type="line"/>
      <point x="1066.76" y="1090.612"/>
      <point x="1010.8866666666667" y="1115.7466666666667"/>
      <point x="925.3026666666667" y="1115.7466666666667" type="curve" smooth="yes"/>
      <point x="641.3546666666666" y="1115.7466666666667"/>
      <point x="411.3226666666667" y="831.484"/>
      <point x="411.3226666666667" y="559.2333333333333" type="curve" smooth="yes"/>
      <point x="411.3226666666667" y="376.544"/>
      <point x="530.4733333333334" y="260.42"/>
      <point x="725.2026666666667" y="260.42" type="curve" smooth="yes"/>
      <point x="834.2133333333334" y="260.42"/>
      <point x="907.9213333333333" y="295.43466666666666"/>
      <point x="986.084" y="386.1" type="curve"/>
      <point x="1019.712" y="318.9533333333333"/>
      <point x="1068.216" y="274.12"/>
      <point x="1156.736" y="274.12" type="curve" smooth="yes"/>
      <point x="1227.7946666666667" y="274.12"/>
      <point x="1306.5346666666667" y="306.68666666666667"/>
      <point x="1373.2826666666667" y="357.3226666666667" type="curve" smooth="yes"/>
      <point x="1454.2133333333334" y="419.59866666666665"/>
      <point x="1505.788" y="485.50666666666666"/>
      <point x="1541.432" y="551.4493333333334" type="curve" smooth="yes"/>
      <point x="1587.1026666666667" y="637.0120000000001"/>
      <point x="1611.616" y="723.056"/>
      <point x="1611.616" y="833.9333333333333" type="curve" smooth="yes"/>
      <point x="1611.616" y="1213.4973333333332"/>
      <point x="1324.9306666666666" y="1465.8133333333333"/>
      <point x="925.6693333333334" y="1465.8133333333333" type="curve" smooth="yes"/>
      <point x="487.48266666666666" y="1465.8133333333333"/>
      <point x="133.08933333333334" y="1129.696"/>
      <point x="133.08933333333334" y="714.6" type="curve" smooth="yes"/>
      <point x="133.08933333333334" y="297.292"/>
      <point x="486.67066666666665" y="-38.31333333333333"/>
    </contour>
    <contour>
      <point x="763.236" y="347.48" type="curve" smooth="yes"/>
      <point x="695.7493333333333" y="347.48"/>
      <point x="662.9493333333334" y="429.22133333333335"/>
      <point x="662.9493333333334" y="541.9" type="curve" smooth="yes"/>
      <point x="662.9493333333334" y="767.212"/>
      <point x="802.34" y="1032.4533333333334"/>
      <point x="944.536" y="1032.4533333333334" type="curve" smooth="yes"/>
      <point x="1006.8493333333333" y="1032.4533333333334"/>
      <point x="1034.4893333333334" y="960.652"/>
      <point x="1034.4893333333334" y="855.4666666666667" type="curve" smooth="yes"/>
      <point x="1034.4893333333334" y="640.5146666666667"/>
      <point x="903.2213333333333" y="347.48"/>
    </contour>
  </outline>
</glyph>
<glyph name="A" format="2">
  <advance width="1471.8"/>
  <unicode hex="0041"/>
  <note>
A
</note>
  <anchor x="717.8213333333333" y="-17.959999999999994" name="bottom"/>
  <anchor x="1146.4453333333333" y="0.0" name="ogonek"/>
  <anchor x="734.6213333333334" y="1402.3733333333334" name="top"/>
  <outline>
    <contour>
      <point x="77.74666666666667" y="0.0" type="line"/>
      <point x="178.48000000000002" y="0.0" type="line"/>
      <point x="661.0386666666667" y="1105.6453333333334" type="line"/>
      <point x="625.792" y="1090.8133333333333" type="line"/>
      <point x="1095.7466666666667" y="0.0" type="line"/>
      <point x="1394.3986666666667" y="0.0" type="line"/>
      <point x="734.1546666666667" y="1487.8013333333333" type="line"/>
    </contour>
    <contour>
      <point x="293.94666666666666" y="409.1333333333333" type="line"/>
      <point x="996.6026666666667" y="409.1333333333333" type="line"/>
      <point x="962.392" y="496.76" type="line"/>
      <point x="331.236" y="496.76" type="line"/>
    </contour>
  </outline>
</glyph>
<glyph name="B" format="2">
  <advance width="1322.944"/>
  <unicode hex="0042"/>
  <note>
B
</note>
  <anchor x="676.5173333333333" y="9.666666666666671" name="bottom"/>
  <anchor x="676.5173333333333" y="1430.0" name="top"/>
  <outline>
    <contour>
      <point x="161.53733333333332" y="0.0" type="line"/>
      <point x="599.8173333333333" y="0.0" type="line" smooth="yes"/>
      <point x="1004.252" y="0.0"/>
      <point x="1224.124" y="110.95866666666666"/>
      <point x="1224.124" y="416.84133333333335" type="curve" smooth="yes"/>
      <point x="1224.124" y="643.1426666666666"/>
      <point x="1092.9213333333332" y="741.016"/>
      <point x="890.9973333333332" y="776.256" type="curve"/>
      <point x="887.1306666666667" y="746.7173333333333" type="line"/>
      <point x="1057.5253333333333" y="797.9813333333333"/>
      <point x="1156.904" y="878.6386666666667"/>
      <point x="1156.904" y="1048.16" type="curve" smooth="yes"/>
      <point x="1156.904" y="1306.736"/>
      <point x="946.76" y="1436.7466666666667"/>
      <point x="601.1506666666667" y="1436.7466666666667" type="curve" smooth="yes"/>
      <point x="161.53733333333332" y="1436.7466666666667" type="line"/>
    </contour>
    <contour>
      <point x="443.66400000000004" y="12.878666666666668" type="line"/>
      <point x="443.66400000000004" y="767.808" type="line"/>
      <point x="338.7693333333333" y="717.7706666666667" type="line"/>
      <point x="649.0840000000001" y="717.7706666666667" type="line" smooth="yes"/>
      <point x="829.0693333333334" y="717.7706666666667"/>
      <point x="918.4906666666667" y="577.6893333333334"/>
      <point x="918.4906666666667" y="417.208" type="curve" smooth="yes"/>
      <point x="918.4906666666667" y="224.91866666666667"/>
      <point x="793.0666666666667" y="84.66"/>
      <point x="596.884" y="84.66" type="curve" smooth="yes"/>
      <point x="231.99733333333333" y="84.66" type="line"/>
    </contour>
    <contour>
      <point x="443.66400000000004" y="751.472" type="line"/>
      <point x="443.66400000000004" y="1417.2813333333334" type="line"/>
      <point x="229.23066666666665" y="1352.0866666666666" type="line"/>
      <point x="599.8173333333333" y="1352.0866666666666" type="line" smooth="yes"/>
      <point x="816.7613333333334" y="1352.0866666666666"/>
      <point x="857.0906666666667" y="1151.144"/>
      <point x="857.0906666666667" y="1029.3933333333334" type="curve" smooth="yes"/>
      <point x="857.0906666666667" y="877.1546666666667"/>
      <point x="797.372" y="802.3306666666666"/>
      <point x="601.1506666666667" y="802.3306666666666" type="curve" smooth="yes"/>
      <point x="360.492" y="802.3306666666666" type="line"/>
    </contour>
  </outline>
</glyph>
<glyph name="C" format="2">
  <advance width="1556.8066666666666"/>
  <unicode hex="0043"/>
  <note>
C
</note>
  <anchor x="780.9813333333334" y="-0.7866666666666617" name="bottom"/>
  <anchor x="826.78" y="1430.0" name="top"/>
  <outline>
    <contour>
      <point x="834.1813333333333" y="-34.04666666666667" type="curve" smooth="yes"/>
      <point x="1112.704" y="-34.04666666666667"/>
      <point x="1351.7693333333334" y="112.90266666666666"/>
      <point x="1473.5693333333334" y="356.93333333333334" type="curve"/>
      <point x="1210.2426666666668" y="356.93333333333334" type="line"/>
      <point x="1129.34" y="158.63466666666667"/>
      <point x="997.0733333333334" y="51.400000000000006"/>
      <point x="829.148" y="51.400000000000006" type="curve" smooth="yes"/>
      <point x="563.6093333333333" y="51.400000000000006"/>
      <point x="384.32800000000003" y="316.70666666666665"/>
      <point x="384.32800000000003" y="713.8666666666667" type="curve" smooth="yes"/>
      <point x="384.32800000000003" y="1111.8746666666666"/>
      <point x="564.6786666666667" y="1380.1"/>
      <point x="829.448" y="1380.1" type="curve" smooth="yes"/>
      <point x="997.0186666666667" y="1380.1"/>
      <point x="1130.1066666666666" y="1272.5986666666668"/>
      <point x="1206.1306666666667" y="1076.2666666666667" type="curve"/>
      <point x="1465.136" y="1076.2666666666667" type="line"/>
      <point x="1373.528" y="1294.9386666666667"/>
      <point x="1104.2373333333333" y="1465.2466666666667"/>
      <point x="827.7146666666666" y="1465.2466666666667" type="curve" smooth="yes"/>
      <point x="429.29466666666667" y="1465.2466666666667"/>
      <point x="100.23466666666667" y="1134.232"/>
      <point x="100.23466666666667" y="716.4666666666667" type="curve" smooth="yes"/>
      <point x="100.23466666666667" y="296.8333333333333"/>
      <point x="412.00800000000004" y="-34.04666666666667"/>
    </contour>
  </outline>
</glyph>
<glyph name="D" format="2">
  <advance width="1549.0866666666666"/>
  <unicode hex="0044"/>
  <note>
D
</note>
  <anchor x="796.996" y="-1.4666666666666686" name="bottom"/>
  <anchor x="311.996" y="715.0" name="center"/>
  <anchor x="796.996" y="1430.0" name="top"/>
  <outline>
    <contour>
      <point x="161.88266666666667" y="0.16666666666666669" type="line"/>
      <point x="587.2293333333333" y="0.16666666666666669" type="line" smooth="yes"/>
      <point x="871.2306666666666" y="0.16666666666666669"/>
      <point x="1022.5093333333333" y="17.458666666666666"/>
      <point x="1181.8306666666667" y="133.90266666666668" type="curve" smooth="yes"/>
      <point x="1332.8546666666666" y="244.28666666666666"/>
      <point x="1447.1426666666666" y="441.9386666666667"/>
      <point x="1447.1426666666666" y="716.9866666666667" type="curve" smooth="yes"/>
      <point x="1447.1426666666666" y="949.2613333333334"/>
      <point x="1362.4373333333333" y="1150.4946666666667"/>
      <point x="1217.0453333333332" y="1276.8986666666667" type="curve" smooth="yes"/>
      <point x="1035.3653333333334" y="1434.2546666666667"/>
      <point x="853.1373333333333" y="1436.58"/>
      <point x="524.7626666666666" y="1436.58" type="curve" smooth="yes"/>
      <point x="161.88266666666667" y="1436.58" type="line"/>
    </contour>
    <contour>
      <point x="452.1426666666667" y="7.192" type="line"/>
      <point x="452.1426666666667" y="1429.5546666666667" type="line"/>
      <point x="239.54266666666666" y="1351.92" type="line"/>
      <point x="536.196" y="1351.92" type="line" smooth="yes"/>
      <point x="985.7266666666667" y="1351.92"/>
      <point x="1145.5493333333334" y="1151.072"/>
      <point x="1145.5493333333334" y="723.8533333333334" type="curve" smooth="yes"/>
      <point x="1145.5493333333334" y="274.3813333333333"/>
      <point x="969.112" y="84.82666666666667"/>
      <point x="535.8293333333334" y="84.82666666666667" type="curve" smooth="yes"/>
      <point x="239.54266666666666" y="84.82666666666667" type="line"/>
    </contour>
  </outline>
</glyph>
<glyph name="E" format="2">
  <advance width="1198.9853333333333"/>
  <unicode hex="0045"/>
  <note>
E
</note>
  <anchor x="602.6866666666667" y="9.666666666666671" name="bottom"/>
  <anchor x="1013.4866666666667" y="0.0" name="ogonek"/>
  <anchor x="630.7" y="1435.18" name="top"/>
  <anchor x="45.776" y="1435.18" name="topleft"/>
  <outline>
    <contour>
      <point x="161.88266666666667" y="0.0" type="line"/>
      <point x="1098.476" y="0.0" type="line"/>
      <point x="1098.476" y="84.66" type="line"/>
      <point x="296.4533333333334" y="84.66" type="line"/>
      <point x="444.00933333333336" y="15.413333333333334" type="line"/>
      <point x="444.00933333333336" y="758.9573333333333" type="line"/>
      <point x="291.4893333333333" y="686.4533333333334" type="line"/>
      <point x="1098.476" y="686.4533333333334" type="line"/>
      <point x="1098.476" y="771.1133333333333" type="line"/>
      <point x="296.4533333333334" y="771.1133333333333" type="line"/>
      <point x="444.00933333333336" y="701.8666666666667" type="line"/>
      <point x="444.00933333333336" y="1424.0013333333334" type="line"/>
      <point x="231.676" y="1352.0866666666666" type="line"/>
      <point x="1098.476" y="1352.0866666666666" type="line"/>
      <point x="1098.476" y="1436.7466666666667" type="line"/>
      <point x="161.88266666666667" y="1436.7466666666667" type="line"/>
    </contour>
  </outline>
</glyph>
<glyph name="F" format="2">
  <advance width="1129.3493333333333"/>
  <unicode hex="0046"/>
  <note>
F
</note>
  <anchor x="572.4746666666666" y="9.666666666666671" name="bottom"/>
  <anchor x="572.4746666666666" y="1430.0" name="top"/>
  <outline>
    <contour>
      <point x="161.88266666666667" y="0.0" type="line"/>
      <point x="444.00933333333336" y="0.0" type="line"/>
      <point x="444.00933333333336" y="755.968" type="line"/>
      <point x="232.74266666666665" y="683.7866666666666" type="line"/>
      <point x="1041.076" y="683.7866666666666" type="line"/>
      <point x="1041.076" y="766.58" type="line"/>
      <point x="230.876" y="766.58" type="line"/>
      <point x="444.00933333333336" y="690.4813333333333" type="line"/>
      <point x="444.00933333333336" y="1417.4146666666666" type="line"/>
      <point x="231.676" y="1352.0866666666666" type="line"/>
      <point x="1041.076" y="1352.0866666666666" type="line"/>
      <point x="1041.076" y="1436.7466666666667" type="line"/>
      <point x="161.88266666666667" y="1436.7466666666667" type="line"/>
    </contour>
  </outline>
</glyph>
<glyph name="G" format="2">
  <advance width="1642.2773333333334"/>
  <unicode hex="0047"/>
  <note>
G
</note>
  <anchor x="822.5266666666666" y="9.666666666666671" name="bottom"/>
  <anchor x="828.1266666666667" y="1430.0" name="top"/>
  <outline>
    <contour>
      <point x="833.3933333333333" y="-34.04666666666667" type="curve" smooth="yes"/>
      <point x="1227.1773333333333" y="-34.04666666666667"/>
      <point x="1525.8906666666667" y="252.02533333333332"/>
      <point x="1558.952" y="643.78" type="curve"/>
      <point x="1272.192" y="643.78" type="line"/>
      <point x="1253.4733333333334" y="283.3826666666667"/>
      <point x="1078.9986666666666" y="45.94666666666667"/>
      <point x="830.66" y="45.28000000000001" type="curve"/>
      <point x="566.6786666666667" y="46.080000000000005"/>
      <point x="387.1733333333333" y="315.128"/>
      <point x="387.1733333333333" y="712.8666666666667" type="curve" smooth="yes"/>
      <point x="387.1733333333333" y="1111.596"/>
      <point x="567.8026666666667" y="1385.52"/>
      <point x="831.5266666666666" y="1385.92" type="curve"/>
      <point x="999.4426666666667" y="1385.6533333333334"/>
      <point x="1130.952" y="1278.452"/>
      <point x="1208.3093333333334" y="1082.6866666666667" type="curve"/>
      <point x="1469.7546666666667" y="1082.6866666666667" type="line"/>
      <point x="1361.2293333333334" y="1306.216"/>
      <point x="1092.544" y="1465.2466666666667"/>
      <point x="830.66" y="1465.2466666666667" type="curve" smooth="yes"/>
      <point x="424.00933333333336" y="1465.2466666666667"/>
      <point x="100.74666666666667" y="1128.0253333333333"/>
      <point x="100.74666666666667" y="716.6333333333333" type="curve" smooth="yes"/>
      <point x="100.74666666666667" y="287.99333333333334"/>
      <point x="407.1906666666667" y="-34.04666666666667"/>
    </contour>
    <contour>
      <point x="875.6800000000001" y="558.9866666666667" type="line"/>
      <point x="1403.9066666666668" y="558.9866666666667" type="line"/>
      <point x="1403.9066666666668" y="643.6466666666666" type="line"/>
      <point x="875.6800000000001" y="643.6466666666666" type="line"/>
    </contour>
  </outline>
</glyph>
<glyph name="H" format="2">
  <advance width="1575.6853333333333"/>
  <unicode hex="0048"/>
  <note>
H
</note>
  <anchor x="787.9093333333334" y="9.666666666666671" name="bottom"/>
  <anchor x="787.9093333333334" y="715.0" name="center"/>
  <anchor x="787.9093333333334" y="1430.0" name="top"/>
  <anchor x="44.394666666666666" y="1430.0" name="topleft"/>
  <outline>
    <contour>
      <point x="161.88266666666667" y="0.0" type="line"/>
      <point x="438.456" y="0.0" type="line"/>
      <point x="438.456" y="778.4946666666667" type="line"/>
      <point x="226.22266666666667" y="693.9066666666666" type="line"/>
      <point x="1348.296" y="693.9066666666666" type="line"/>
      <point x="1137.2293333333332" y="778.4946666666667" type="line"/>
      <point x="1137.2293333333332" y="0.0" type="line"/>
      <point x="1413.8026666666667" y="0.0" type="line"/>
      <point x="1413.8026666666667" y="1436.7466666666667" type="line"/>
      <point x="1137.2293333333332" y="1436.7466666666667" type="line"/>
      <point x="1137.2293333333332" y="694.612" type="line"/>
      <point x="1348.296" y="779.2" type="line"/>
      <point x="226.22266666666667" y="779.2" type="line"/>
      <point x="438.456" y="694.612" type="line"/>
      <point x="438.456" y="1436.7466666666667" type="line"/>
      <point x="161.88266666666667" y="1436.7466666666667" type="line"/>
    </contour>
  </outline>
</glyph>
<glyph name="I" format="2">
  <advance width="605.7586666666666"/>
  <unicode hex="0049"/>
  <note>
I
</note>
  <anchor x="303.02933333333334" y="9.666666666666671" name="bottom"/>
  <anchor x="320.23333333333335" y="0.0" name="ogonek"/>
  <anchor x="303.02933333333334" y="1430.0" name="top"/>
  <anchor x="19.316000000000003" y="1430.0" name="topleft"/>
  <outline>
    <contour>
      <point x="161.88266666666667" y="0.0" type="line"/>
      <point x="444.00933333333336" y="0.0" type="line"/>
      <point x="444.00933333333336" y="1436.7466666666667" type="line"/>
      <point x="161.88266666666667" y="1436.7466666666667" type="line"/>
    </contour>
  </outline>
</glyph>
<glyph name="J" format="2">
  <advance width="949.5186666666667"/>
  <unicode hex="004A"/>
  <note>
J
</note>
  <anchor x="503.068" y="9.66666666666666" name="bottom"/>
  <anchor x="503.068" y="1430.0" name="top"/>
  <outline>
    <contour>
      <point x="85.188" y="-18.131999999999998" type="line"/>
      <point x="140.48000000000002" y="-97.20266666666666"/>
      <point x="293.148" y="-157.41333333333333"/>
      <point x="423.668" y="-157.41333333333333" type="curve" smooth="yes"/>
      <point x="658.236" y="-157.41333333333333"/>
      <point x="795.6813333333333" y="37.92"/>
      <point x="795.6813333333333" y="372.26666666666665" type="curve" smooth="yes"/>
      <point x="795.6813333333333" y="1436.7466666666667" type="line"/>
      <point x="513.7213333333334" y="1436.7466666666667" type="line"/>
      <point x="513.7213333333334" y="339.0" type="line" smooth="yes"/>
      <point x="513.7213333333334" y="2.5720000000000067"/>
      <point x="495.50933333333336" y="-55.95333333333333"/>
      <point x="407.848" y="-55.95333333333333" type="curve" smooth="yes"/>
      <point x="305.784" y="-55.95333333333333"/>
      <point x="183.62133333333333" y="15.556000000000012"/>
      <point x="85.188" y="184.71333333333334" type="curve"/>
    </contour>
  </outline>
</glyph>
<glyph name="K" format="2">
  <advance width="1480.9293333333333"/>
  <unicode hex="004B"/>
  <note>
K
</note>
  <anchor x="716.588" y="9.666666666666671" name="bottom"/>
  <anchor x="716.588" y="1430.0" name="top"/>
  <outline>
    <contour>
      <point x="161.88266666666667" y="0.0" type="line"/>
      <point x="444.00933333333336" y="0.0" type="line"/>
      <point x="444.00933333333336" y="1436.7466666666667" type="line"/>
      <point x="161.88266666666667" y="1436.7466666666667" type="line"/>
    </contour>
    <contour>
      <point x="389.6186666666666" y="473.3906666666667" type="line"/>
      <point x="1250.2826666666667" y="1436.7466666666667" type="line"/>
      <point x="1102.792" y="1436.7466666666667" type="line"/>
      <point x="310.596" y="545.2866666666666" type="line"/>
    </contour>
    <contour>
      <point x="1073.456" y="0.0" type="line"/>
      <point x="1407.516" y="0.0" type="line"/>
      <point x="689.4960000000001" y="894.0946666666666" type="line"/>
      <point x="508.912" y="704.7546666666667" type="line"/>
    </contour>
  </outline>
</glyph>
<glyph name="L" format="2">
  <advance width="1147.9613333333334"/>
  <unicode hex="004C"/>
  <note>
L
</note>
  <anchor x="589.984" y="9.666666666666671" name="bottom"/>
  <anchor x="304.3573333333334" y="715.3546666666666" name="center"/>
  <anchor x="828.9106666666667" y="758.22" name="dot"/>
  <anchor x="1048.1226666666666" y="10.0" name="ogonek"/>
  <anchor x="408.384" y="1430.0" name="top"/>
  <anchor x="-8.605333333333341" y="1430.0" name="topleft"/>
  <anchor x="848.0893333333333" y="1430.0" name="topright"/>
  <outline>
    <contour>
      <point x="161.88266666666667" y="0.0" type="line"/>
      <point x="1072.3026666666667" y="0.0" type="line"/>
      <point x="1072.3026666666667" y="74.48" type="line"/>
      <point x="233.076" y="74.48" type="line"/>
      <point x="445.0426666666667" y="19.131999999999998" type="line"/>
      <point x="445.0426666666667" y="1436.3466666666666" type="line"/>
      <point x="161.88266666666667" y="1436.3466666666666" type="line"/>
    </contour>
  </outline>
</glyph>
<glyph name="M" format="2">
  <advance width="1777.4226666666666"/>
  <unicode hex="004D"/>
  <note>
M
</note>
  <anchor x="888.7946666666667" y="9.666666666666671" name="bottom"/>
  <anchor x="888.7946666666667" y="1430.0" name="top"/>
  <outline>
    <contour>
      <point x="161.88266666666667" y="0.0" type="line"/>
      <point x="277.12533333333334" y="0.0" type="line"/>
      <point x="277.12533333333334" y="1320.4813333333334" type="line"/>
      <point x="210.33066666666667" y="1243.612" type="line"/>
      <point x="818.7" y="25.416000000000004" type="line"/>
      <point x="1427.7" y="1310.3293333333334" type="line"/>
      <point x="1339.3666666666668" y="1234.0693333333334" type="line"/>
      <point x="1339.3666666666668" y="0.0" type="line"/>
      <point x="1615.54" y="0.0" type="line"/>
      <point x="1615.54" y="1436.7466666666667" type="line"/>
      <point x="1363.236" y="1436.7466666666667" type="line"/>
      <point x="830.3" y="320.288" type="line"/>
      <point x="937.016" y="356.39866666666666" type="line"/>
      <point x="397.14" y="1436.7466666666667" type="line"/>
      <point x="161.88266666666667" y="1436.7466666666667" type="line"/>
    </contour>
  </outline>
</glyph>
<glyph name="N" format="2">
  <advance width="1509.5186666666666"/>
  <unicode hex="004E"/>
  <note>
N
</note>
  <anchor x="754.9093333333333" y="9.666666666666671" name="bottom"/>
  <anchor x="754.9093333333333" y="1430.0" name="top"/>
  <outline>
    <contour>
      <point x="168.16933333333333" y="0.0" type="line"/>
      <point x="280.5026666666667" y="0.0" type="line"/>
      <point x="280.5026666666667" y="1217.4933333333333" type="line"/>
      <point x="202.372" y="1136.4386666666667" type="line"/>
      <point x="1231.1506666666667" y="0.0" type="line"/>
      <point x="1347.636" y="0.0" type="line"/>
      <point x="1347.636" y="1436.7466666666667" type="line"/>
      <point x="1234.6693333333333" y="1436.7466666666667" type="line"/>
      <point x="1234.6693333333333" y="182.09333333333333" type="line"/>
      <point x="1308.1666666666667" y="296.1786666666667" type="line"/>
      <point x="280.868" y="1436.7466666666667" type="line"/>
      <point x="161.88266666666667" y="1436.7466666666667" type="line"/>
    </contour>
  </outline>
</glyph>
<glyph name="O" format="2">
  <advance width="1660.2533333333333"/>
  <unicode hex="004F"/>
  <note>
O
</note>
  <anchor x="830.1933333333334" y="-1.4666666666666686" name="bottom"/>
  <anchor x="830.1933333333334" y="715.0" name="center"/>
  <anchor x="980.096" y="0.0" name="ogonek"/>
  <anchor x="830.1933333333334" y="1430.0" name="top"/>
  <anchor x="46.59199999999999" y="1430.0" name="topleft"/>
  <anchor x="1432.2666666666667" y="1430.0" name="topright"/>
  <outline>
    <contour>
      <point x="830.8933333333333" y="-34.04666666666667" type="curve" smooth="yes"/>
      <point x="1249.5893333333333" y="-34.04666666666667"/>
      <point x="1559.6733333333334" y="289.192"/>
      <point x="1559.6733333333334" y="711.8666666666667" type="curve" smooth="yes"/>
      <point x="1559.6733333333334" y="1133.388"/>
      <point x="1243.784" y="1465.4133333333334"/>
      <point x="831.06" y="1465.4133333333334" type="curve" smooth="yes"/>
      <point x="419.004" y="1465.4133333333334"/>
      <point x="100.74666666666667" y="1133.292"/>
      <point x="100.74666666666667" y="711.7" type="curve" smooth="yes"/>
      <point x="100.74666666666667" y="291.6653333333333"/>
      <point x="411.276" y="-34.04666666666667"/>
    </contour>
    <contour>
      <point x="830.8933333333333" y="45.74666666666667" type="curve"/>
      <point x="567.8813333333334" y="46.546666666666674"/>
      <point x="387.34" y="315.23466666666667"/>
      <point x="387.34" y="712.0" type="curve" smooth="yes"/>
      <point x="387.34" y="1110.8146666666667"/>
      <point x="567.636" y="1385.22"/>
      <point x="831.06" y="1385.7533333333333" type="curve"/>
      <point x="1093.096" y="1385.22"/>
      <point x="1273.2133333333334" y="1110.648"/>
      <point x="1273.2133333333334" y="711.8333333333334" type="curve" smooth="yes"/>
      <point x="1273.2133333333334" y="315.28"/>
      <point x="1094.008" y="46.546666666666674"/>
    </contour>
  </outline>
</glyph>
<glyph name="P" format="2">
  <advance width="1216.6266666666666"/>
  <unicode hex="0050"/>
  <note>
P
</note>
  <anchor x="602.0693333333334" y="-1.0" name="bottom"/>
  <anchor x="602.0693333333334" y="1430.0" name="top"/>
  <outline>
    <contour>
      <point x="161.53733333333332" y="0.0" type="line"/>
      <point x="437.71066666666667" y="0.0" type="line"/>
      <point x="437.71066666666667" y="613.0506666666666" type="line"/>
      <point x="307.648" y="570.1746666666667" type="line"/>
      <point x="609.4293333333334" y="570.1746666666667" type="line" smooth="yes"/>
      <point x="781.4266666666667" y="570.1746666666667"/>
      <point x="877.82" y="598.068"/>
      <point x="961.8226666666667" y="658.596" type="curve" smooth="yes"/>
      <point x="1074.6786666666667" y="740.3946666666667"/>
      <point x="1125.4013333333332" y="883.776"/>
      <point x="1125.4013333333332" y="1004.056" type="curve" smooth="yes"/>
      <point x="1125.4013333333332" y="1134.684"/>
      <point x="1074.2853333333333" y="1248.604"/>
      <point x="987.2786666666666" y="1321.3546666666666" type="curve" smooth="yes"/>
      <point x="895.588" y="1398.5626666666667"/>
      <point x="776.3773333333334" y="1436.7466666666667"/>
      <point x="581.5986666666666" y="1436.7466666666667" type="curve" smooth="yes"/>
      <point x="161.53733333333332" y="1436.7466666666667" type="line"/>
    </contour>
    <contour>
      <point x="437.71066666666667" y="595.468" type="line"/>
      <point x="437.71066666666667" y="1420.7866666666666" type="line"/>
      <point x="224.71066666666667" y="1355.8533333333332" type="line"/>
      <point x="562.0413333333333" y="1355.8533333333332" type="line" smooth="yes"/>
      <point x="784.7586666666666" y="1355.8533333333332"/>
      <point x="843.7146666666666" y="1161.876"/>
      <point x="843.7146666666666" y="988.636" type="curve" smooth="yes"/>
      <point x="843.7146666666666" y="837.3786666666667"/>
      <point x="783.0626666666667" y="657.7"/>
      <point x="562.0413333333333" y="657.7" type="curve" smooth="yes"/>
      <point x="353.37199999999996" y="657.7" type="line"/>
    </contour>
  </outline>
</glyph>
<glyph name="Q" format="2">
  <advance width="1660.2533333333333"/>
  <unicode hex="0051"/>
  <note>
Q
</note>
  <anchor x="800.6493333333333" y="25.46666666666667" name="bottom"/>
  <anchor x="800.6493333333333" y="1411.7" name="top"/>
  <anchor x="830.1933333333334" y="730.9137133333334" name="center"/>
  <anchor x="980.096" y="15.533333333333333" name="ogonek"/>
  <anchor x="46.59199999999999" y="1446.2940933333334" name="topleft"/>
  <anchor x="1432.2666666666667" y="1446.2940933333334" name="topright"/>
  <outline>
    <contour>
      <point x="1078.2733333333333" y="-406.78" type="curve" smooth="yes"/>
      <point x="1202.0946666666666" y="-406.78"/>
      <point x="1242.896" y="-392.28266666666667"/>
      <point x="1239.596" y="-301.28666666666663" type="curve"/>
      <point x="1194.2773333333334" y="-301.28666666666663"/>
      <point x="1148.092" y="-301.28666666666663"/>
      <point x="1102.6066666666666" y="-301.28666666666663" type="curve" smooth="yes"/>
      <point x="986.3253333333333" y="-301.28666666666663"/>
      <point x="924.92" y="-248.168"/>
      <point x="924.92" y="-174.7" type="curve" smooth="yes"/>
      <point x="924.92" y="33.046666666666674" type="line"/>
      <point x="655.0933333333334" y="33.046666666666674" type="line"/>
      <point x="655.0933333333334" y="-161.93333333333334" type="line" smooth="yes"/>
      <point x="655.0933333333334" y="-268.28"/>
      <point x="731.748" y="-335.15066666666667"/>
      <point x="825.576" y="-369.168" type="curve" smooth="yes"/>
      <point x="905.9973333333334" y="-398.476"/>
      <point x="986.6826666666667" y="-406.78"/>
    </contour>
    <component base="O" yScale="1.000532" yOffset="15.533333333333333"/>
  </outline>
</glyph>
<glyph name="R" format="2">
  <advance width="1298.98"/>
  <unicode hex="0052"/>
  <note>
R
</note>
  <anchor x="645.6626666666666" y="9.666666666666671" name="bottom"/>
  <anchor x="645.6626666666666" y="1430.0" name="top"/>
  <outline>
    <contour>
      <point x="161.88266666666667" y="0.0" type="line"/>
      <point x="441.50933333333336" y="0.0" type="line"/>
      <point x="441.50933333333336" y="733.5" type="line"/>
      <point x="303.4866666666667" y="677.5866666666667" type="line"/>
      <point x="562.496" y="677.5866666666667" type="line"/>
      <point x="753.0506666666666" y="685.7346666666667" type="line"/>
      <point x="971.0893333333333" y="691.1293333333333"/>
      <point x="1140.6426666666666" y="819.7653333333333"/>
      <point x="1140.6426666666666" y="1052.4333333333334" type="curve" smooth="yes"/>
      <point x="1140.6426666666666" y="1308.252"/>
      <point x="938.6546666666667" y="1436.7466666666667"/>
      <point x="594.096" y="1436.7466666666667" type="curve" smooth="yes"/>
      <point x="161.88266666666667" y="1436.7466666666667" type="line"/>
    </contour>
    <contour>
      <point x="322.75333333333333" y="758.98" type="line"/>
      <point x="441.50933333333336" y="699.3" type="line"/>
      <point x="441.50933333333336" y="1417.2333333333333" type="line"/>
      <point x="268.38666666666666" y="1355.8533333333332" type="line"/>
      <point x="591.5626666666667" y="1355.8533333333332" type="line" smooth="yes"/>
      <point x="790.8626666666667" y="1355.8533333333332"/>
      <point x="852.0493333333334" y="1239.152"/>
      <point x="852.0493333333334" y="1057.1333333333334" type="curve" smooth="yes"/>
      <point x="852.0493333333334" y="868.6813333333333"/>
      <point x="792.4333333333334" y="758.98"/>
      <point x="591.5626666666667" y="758.98" type="curve" smooth="yes"/>
    </contour>
    <contour>
      <point x="523.696" y="677.5866666666667" type="line"/>
      <point x="636.016" y="677.5866666666667"/>
      <point x="695.352" y="673.136"/>
      <point x="757.4213333333333" y="578.0946666666666" type="curve" smooth="yes"/>
      <point x="784.3253333333333" y="537.1986666666667"/>
      <point x="804.5373333333333" y="501.68399999999997"/>
      <point x="870.04" y="211.48533333333333" type="curve" smooth="yes"/>
      <point x="888.616" y="127.972"/>
      <point x="902.1706666666666" y="70.64266666666666"/>
      <point x="919.076" y="0.0" type="curve"/>
      <point x="1205.5786666666668" y="0.0" type="line"/>
      <point x="1184.1213333333335" y="77.672"/>
      <point x="1160.6213333333333" y="171.72266666666667"/>
      <point x="1139.0853333333334" y="270.348" type="curve" smooth="yes"/>
      <point x="1075.7826666666667" y="559.0973333333334"/>
      <point x="1050.5026666666668" y="599.9106666666667"/>
      <point x="1000.86" y="650.8199999999999" type="curve" smooth="yes"/>
      <point x="955.4466666666667" y="696.4666666666667"/>
      <point x="889.9293333333333" y="715.08"/>
      <point x="820.2093333333333" y="719.8413333333333" type="curve"/>
    </contour>
  </outline>
</glyph>
<glyph name="S" format="2">
  <advance width="1252.6133333333332"/>
  <unicode hex="0053"/>
  <note>
S
</note>
  <anchor x="626.984" y="9.666666666666671" name="bottom"/>
  <anchor x="617.7626666666666" y="1430.0" name="top"/>
  <outline>
    <contour>
      <point x="629.6746666666667" y="-34.480000000000004" type="curve" smooth="yes"/>
      <point x="991.6066666666667" y="-34.480000000000004"/>
      <point x="1156.3213333333333" y="121.55866666666667"/>
      <point x="1156.3213333333333" y="420.6666666666667" type="curve" smooth="yes"/>
      <point x="1156.3213333333333" y="671.8426666666667"/>
      <point x="977.7973333333333" y="786.2"/>
      <point x="665.7573333333333" y="874.9013333333334" type="curve" smooth="yes"/>
      <point x="472.96" y="930.1693333333334"/>
      <point x="379.688" y="994.7693333333333"/>
      <point x="379.688" y="1128.2666666666667" type="curve" smooth="yes"/>
      <point x="379.688" y="1277.8493333333333"/>
      <point x="478.76533333333333" y="1386.0866666666666"/>
      <point x="594.3946666666667" y="1386.0866666666666" type="curve" smooth="yes"/>
      <point x="744.8266666666667" y="1386.0866666666666"/>
      <point x="854.5906666666667" y="1233.572"/>
      <point x="858.84" y="1101.0533333333333" type="curve"/>
      <point x="1098.0453333333332" y="1101.0533333333333" type="line"/>
      <point x="1066.868" y="1336.404"/>
      <point x="866.416" y="1469.5133333333333"/>
      <point x="610.8613333333333" y="1469.5133333333333" type="curve" smooth="yes"/>
      <point x="275.252" y="1469.5133333333333"/>
      <point x="136.69466666666668" y="1292.6053333333334"/>
      <point x="136.69466666666668" y="1054.4666666666667" type="curve" smooth="yes"/>
      <point x="136.69466666666668" y="865.2786666666667"/>
      <point x="284.2986666666667" y="757.1106666666667"/>
      <point x="579.9773333333334" y="661.2986666666667" type="curve" smooth="yes"/>
      <point x="795.064" y="590.9213333333333"/>
      <point x="926.2613333333334" y="534.2760000000001"/>
      <point x="926.2613333333334" y="363.03333333333336" type="curve" smooth="yes"/>
      <point x="926.2613333333334" y="190.436"/>
      <point x="809.3653333333333" y="54.846666666666664"/>
      <point x="643.008" y="54.846666666666664" type="curve" smooth="yes"/>
      <point x="464.6186666666667" y="54.846666666666664"/>
      <point x="356.7306666666667" y="217.33866666666665"/>
      <point x="339.53066666666666" y="420.08" type="curve"/>
      <point x="95.78266666666667" y="420.08" type="line"/>
      <point x="117.50533333333333" y="105.56133333333332"/>
      <point x="326.08666666666664" y="-34.480000000000004"/>
    </contour>
  </outline>
</glyph>
<glyph name="T" format="2">
  <advance width="1326.1586666666667"/>
  <unicode hex="0054"/>
  <note>
T
</note>
  <anchor x="663.5840000000001" y="9.666666666666671" name="bottom"/>
  <anchor x="663.5840000000001" y="715.3546666666666" name="center"/>
  <anchor x="663.5840000000001" y="1430.0" name="top"/>
  <outline>
    <contour>
      <point x="523.3493333333333" y="0.0" type="line"/>
      <point x="805.6093333333333" y="0.0" type="line"/>
      <point x="805.6093333333333" y="1411.328" type="line"/>
      <point x="586.5093333333333" y="1329.6866666666667" type="line"/>
      <point x="1249.0093333333334" y="1329.6866666666667" type="line"/>
      <point x="1249.0093333333334" y="1436.7466666666667" type="line"/>
      <point x="77.14933333333335" y="1436.7466666666667" type="line"/>
      <point x="77.14933333333335" y="1329.6866666666667" type="line"/>
      <point x="742.4493333333334" y="1329.6866666666667" type="line"/>
      <point x="523.3493333333333" y="1411.328" type="line"/>
    </contour>
  </outline>
</glyph>
<glyph name="U" format="2">
  <advance width="1532.9586666666667"/>
  <unicode hex="0055"/>
  <note>
U
</note>
  <anchor x="765.296" y="18.76666666666668" name="bottom"/>
  <anchor x="901.9533333333334" y="0.0" name="ogonek"/>
  <anchor x="765.296" y="1439.1" name="top"/>
  <anchor x="1439.1973333333333" y="1439.1" name="topright"/>
  <outline>
    <contour>
      <point x="766.396" y="-34.64666666666667" type="curve" smooth="yes"/>
      <point x="1109.3066666666666" y="-34.64666666666667"/>
      <point x="1394.8093333333334" y="228.77066666666667"/>
      <point x="1394.8093333333334" y="540.7146666666666" type="curve" smooth="yes"/>
      <point x="1394.8093333333334" y="1436.7466666666667" type="line"/>
      <point x="1250.7493333333334" y="1436.7466666666667" type="line"/>
      <point x="1248.716" y="527.7066666666667" type="line" smooth="yes"/>
      <point x="1248.2493333333334" y="240.72400000000002"/>
      <point x="1013.0013333333334" y="50.31333333333333"/>
      <point x="768.1293333333333" y="50.31333333333333" type="curve" smooth="yes"/>
      <point x="552.5613333333333" y="50.31333333333333"/>
      <point x="411.976" y="198.296"/>
      <point x="411.976" y="545.7333333333333" type="curve" smooth="yes"/>
      <point x="411.976" y="1436.7466666666667" type="line"/>
      <point x="138.14933333333335" y="1436.7466666666667" type="line"/>
      <point x="138.14933333333335" y="553.7666666666667" type="line" smooth="yes"/>
      <point x="138.14933333333335" y="230.33733333333333"/>
      <point x="422.252" y="-34.64666666666667"/>
    </contour>
  </outline>
</glyph>
<glyph name="V" format="2">
  <advance width="1415.908"/>
  <unicode hex="0056"/>
  <note>
V
</note>
  <anchor x="708.4586666666667" y="9.666666666666671" name="bottom"/>
  <anchor x="708.4586666666667" y="1430.0" name="top"/>
  <outline>
    <contour>
      <point x="708.6706666666666" y="-42.27466666666667" type="line"/>
      <point x="1337.516" y="1436.7466666666667" type="line"/>
      <point x="1206.2493333333334" y="1436.7466666666667" type="line"/>
      <point x="707.9253333333334" y="254.36666666666665" type="line"/>
      <point x="837.1026666666667" y="344.70933333333335" type="line"/>
      <point x="381.0253333333334" y="1436.7466666666667" type="line"/>
      <point x="78.392" y="1436.7466666666667" type="line"/>
    </contour>
  </outline>
</glyph>
<glyph name="W" format="2">
  <advance width="1977.2640000000001"/>
  <unicode hex="0057"/>
  <note>
W
</note>
  <anchor x="994.6626666666666" y="1.3333333333333357" name="bottom"/>
  <anchor x="994.6626666666666" y="1431.1666666666667" name="top"/>
  <outline>
    <contour>
      <point x="1340.0106666666666" y="-35.809333333333335" type="line"/>
      <point x="1897.8173333333334" y="1436.7466666666667" type="line"/>
      <point x="1789.0293333333334" y="1436.7466666666667" type="line"/>
      <point x="1360.7973333333334" y="287.1733333333333" type="line"/>
      <point x="1458.84" y="372.23733333333337" type="line"/>
      <point x="1019.1706666666666" y="1436.7466666666667" type="line"/>
      <point x="714.7986666666667" y="1436.7466666666667" type="line"/>
    </contour>
    <contour>
      <point x="700.3106666666666" y="-35.809333333333335" type="line"/>
      <point x="1049.2226666666668" y="886.0266666666666" type="line"/>
      <point x="1000.6733333333333" y="1038.5946666666666" type="line"/>
      <point x="721.2973333333333" y="287.2733333333333" type="line"/>
      <point x="821.34" y="369.2706666666667" type="line"/>
      <point x="380.5133333333333" y="1436.7466666666667" type="line"/>
      <point x="78.392" y="1436.7466666666667" type="line"/>
    </contour>
    <contour>
      <point x="1081.9106666666667" y="872.86" type="line"/>
      <point x="1292.384" y="1436.7466666666667" type="line"/>
      <point x="1182.6053333333334" y="1436.7466666666667" type="line"/>
      <point x="1033.1946666666668" y="1025.7613333333334" type="line"/>
    </contour>
  </outline>
</glyph>
<glyph name="X" format="2">
  <advance width="1413.5493333333334"/>
  <unicode hex="0058"/>
  <note>
X
</note>
  <anchor x="705.9746666666667" y="9.666666666666671" name="bottom"/>
  <anchor x="705.9746666666667" y="1430.0" name="top"/>
  <outline>
    <contour>
      <point x="1003.1626666666666" y="0.0" type="line"/>
      <point x="1338.4693333333335" y="0.0" type="line"/>
      <point x="420.32000000000005" y="1434.4133333333334" type="line"/>
      <point x="85.04666666666668" y="1434.4133333333334" type="line"/>
    </contour>
    <contour>
      <point x="100.64666666666668" y="0.0" type="line"/>
      <point x="240.08666666666667" y="0.0" type="line"/>
      <point x="730.7040000000001" y="747.576" type="line"/>
      <point x="647.4853333333333" y="835.9333333333334" type="line"/>
    </contour>
    <contour>
      <point x="715.5386666666667" y="697.7333333333333" type="line"/>
      <point x="1200.4773333333333" y="1443.7466666666667" type="line"/>
      <point x="1061.3373333333334" y="1443.7466666666667" type="line"/>
      <point x="631.508" y="786.0906666666667" type="line"/>
    </contour>
  </outline>
</glyph>
<glyph name="Y" format="2">
  <advance width="1233.9826666666668"/>
  <unicode hex="0059"/>
  <note>
Y
</note>
  <anchor x="623.1746666666667" y="9.666666666666668" name="bottom"/>
  <anchor x="587.0493333333334" y="1430.0" name="top"/>
  <anchor x="-20.05466666666667" y="1430.0" name="topleft"/>
  <outline>
    <contour>
      <point x="482.76133333333337" y="0.0" type="line"/>
      <point x="764.7213333333334" y="0.0" type="line"/>
      <point x="764.7213333333334" y="609.6173333333334" type="line"/>
      <point x="1156.636" y="1436.7466666666667" type="line"/>
      <point x="1023.5146666666667" y="1436.7466666666667" type="line"/>
      <point x="593.6346666666667" y="520.3826666666666" type="line"/>
      <point x="764.028" y="682.4146666666667" type="line"/>
      <point x="397.30133333333333" y="1436.7466666666667" type="line"/>
      <point x="77.04666666666667" y="1436.7466666666667" type="line"/>
      <point x="482.76133333333337" y="607.4173333333333" type="line"/>
    </contour>
  </outline>
</glyph>
<glyph name="Z" format="2">
  <advance width="1338.916"/>
  <unicode hex="005A"/>
  <note>
Z
</note>
  <anchor x="666.6253333333333" y="9.666666666666671" name="bottom"/>
  <anchor x="666.6253333333333" y="715.0" name="center"/>
  <anchor x="666.6253333333333" y="1430.0" name="top"/>
  <outline>
    <contour>
      <point x="75.64666666666666" y="0.0" type="line"/>
      <point x="1246.188" y="0.0" type="line"/>
      <point x="1246.0546666666667" y="100.32666666666668" type="line"/>
      <point x="191.78" y="100.32666666666668" type="line"/>
      <point x="360.4266666666667" y="17.458666666666666" type="line"/>
      <point x="1238.136" y="1436.7466666666667" type="line"/>
      <point x="177.39466666666667" y="1436.7466666666667" type="line"/>
      <point x="177.39466666666667" y="1336.42" type="line"/>
      <point x="1115.9506666666666" y="1336.42" type="line"/>
      <point x="958.548" y="1418.7413333333334" type="line"/>
    </contour>
  </outline>
</glyph>
<glyph name="bracketleft" format="2">
  <advance width="643.6826666666667"/>
  <unicode hex="005B"/>
  <note>
bracketleft
</note>
  <outline>
    <contour>
      <point x="157.528" y="-401.88" type="line"/>
      <point x="563.588" y="-401.88" type="line"/>
      <point x="563.588" y="-284.38666666666666" type="line"/>
      <point x="313.488" y="-284.38666666666666" type="line"/>
      <point x="313.488" y="1350.7866666666666" type="line"/>
      <point x="563.588" y="1350.7866666666666" type="line"/>
      <point x="563.588" y="1467.98" type="line"/>
      <point x="157.528" y="1467.98" type="line"/>
    </contour>
  </outline>
</glyph>
<glyph name="bracketright" format="2">
  <advance width="643.6826666666667"/>
  <unicode hex="005D"/>
  <note>
bracketright
</note>
  <outline>
    <contour>
      <point x="80.09466666666667" y="-401.88" type="line"/>
      <point x="486.1546666666667" y="-401.88" type="line"/>
      <point x="486.1546666666667" y="1467.98" type="line"/>
      <point x="80.09466666666667" y="1467.98" type="line"/>
      <point x="80.09466666666667" y="1350.7866666666666" type="line"/>
      <point x="330.328" y="1350.7866666666666" type="line"/>
      <point x="330.328" y="-284.38666666666666" type="line"/>
      <point x="80.09466666666667" y="-284.38666666666666" type="line"/>
    </contour>
  </outline>
</glyph>
<glyph name="asciicircum" format="2">
  <advance width="1136.6586666666667"/>
  <unicode hex="005E"/>
  <note>
asciicircum
</note>
  <outline>
    <contour>
      <point x="120.30133333333333" y="817.12" type="line"/>
      <point x="305.28" y="817.12" type="line"/>
      <point x="608.0173333333333" y="1330.8546666666666" type="line"/>
      <point x="526.0533333333333" y="1331.288" type="line"/>
      <point x="831.3786666666667" y="817.12" type="line"/>
      <point x="1016.3573333333334" y="817.12" type="line"/>
      <point x="653.22" y="1437.5466666666666" type="line"/>
      <point x="483.172" y="1437.5466666666666" type="line"/>
    </contour>
  </outline>
</glyph>
<glyph name="underscore" format="2">
  <advance width="1573.4213333333335"/>
  <unicode hex="005F"/>
  <note>
underscore
</note>
  <outline>
    <contour>
      <point x="83.79733333333333" y="-429.98" type="line"/>
      <point x="1489.624" y="-429.98" type="line"/>
      <point x="1489.624" y="-313.1533333333333" type="line"/>
      <point x="83.79733333333333" y="-313.1533333333333" type="line"/>
    </contour>
  </outline>
</glyph>
<glyph name="a" format="2">
  <advance width="1271.2359999999999"/>
  <unicode hex="0061"/>
  <note>
a
</note>
  <anchor x="567.3946666666667" y="2.933333333333337" name="bottom"/>
  <anchor x="1045.0266666666666" y="0.0" name="ogonek"/>
  <anchor x="570.3946666666667" y="964.7373333333334" name="top"/>
  <outline>
    <contour>
      <point x="542.62" y="-34.605333333333334" type="curve" smooth="yes"/>
      <point x="760.252" y="-34.605333333333334"/>
      <point x="902.2573333333333" y="79.34666666666666"/>
      <point x="953.0786666666667" y="289.8306666666667" type="curve"/>
      <point x="882.0106666666667" y="341.2373333333333" type="line"/>
      <point x="879.304" y="0.0" type="line"/>
      <point x="1150.8266666666666" y="0.0" type="line"/>
      <point x="1150.8266666666666" y="952.96" type="line"/>
      <point x="876.4133333333333" y="952.96" type="line"/>
      <point x="876.4133333333333" y="598.1426666666666" type="line"/>
      <point x="949.5546666666667" y="647.328" type="line"/>
      <point x="902.0693333333334" y="861.0426666666666"/>
      <point x="755.64" y="979.9693333333333"/>
      <point x="538.0840000000001" y="979.9693333333333" type="curve" smooth="yes"/>
      <point x="255.26533333333333" y="979.9693333333333"/>
      <point x="71.69200000000001" y="773.2026666666667"/>
      <point x="71.69200000000001" y="464.656" type="curve" smooth="yes"/>
      <point x="71.69200000000001" y="163.56933333333333"/>
      <point x="256.06533333333334" y="-34.605333333333334"/>
    </contour>
    <contour>
      <point x="571.7453333333333" y="56.124" type="curve" smooth="yes"/>
      <point x="428.30266666666665" y="56.124"/>
      <point x="346.79200000000003" y="209.65466666666666"/>
      <point x="346.79200000000003" y="470.9533333333333" type="curve" smooth="yes"/>
      <point x="346.79200000000003" y="736.6186666666666"/>
      <point x="429.20933333333335" y="889.1066666666667"/>
      <point x="568.076" y="889.1066666666667" type="curve" smooth="yes"/>
      <point x="717.548" y="889.1066666666667"/>
      <point x="835.3346666666666" y="700.76"/>
      <point x="835.3346666666666" y="464.10533333333336" type="curve" smooth="yes"/>
      <point x="835.3346666666666" y="235.63733333333334"/>
      <point x="720.0653333333333" y="56.124"/>
    </contour>
  </outline>
</glyph>
<glyph name="b" format="2">
  <advance width="1242.0133333333333"/>
  <unicode hex="0062"/>
  <note>
b
</note>
  <anchor x="635.0506666666666" y="14.200000000000003" name="bottom"/>
  <anchor x="635.0506666666666" y="1519.6533333333334" name="top"/>
  <outline>
    <contour>
      <point x="713.748" y="-38.24666666666667" type="curve" smooth="yes"/>
      <point x="995.5773333333334" y="-38.24666666666667"/>
      <point x="1170.3213333333333" y="163.35066666666665"/>
      <point x="1170.3213333333333" y="465.0466666666667" type="curve" smooth="yes"/>
      <point x="1170.3213333333333" y="773.5853333333333"/>
      <point x="989.0746666666666" y="975.8066666666667"/>
      <point x="712.4413333333333" y="975.8066666666667" type="curve" smooth="yes"/>
      <point x="495.79333333333335" y="975.8066666666667"/>
      <point x="386.6826666666667" y="854.076"/>
      <point x="341.68" y="645.7386666666666" type="curve"/>
      <point x="406.088" y="604.2653333333333" type="line"/>
      <point x="406.088" y="1519.6533333333334" type="line"/>
      <point x="131.19466666666668" y="1519.6533333333334" type="line"/>
      <point x="131.19466666666668" y="0.0" type="line"/>
      <point x="402.22133333333335" y="0.0" type="line"/>
      <point x="402.22133333333335" y="320.62666666666667" type="line"/>
      <point x="333.5053333333333" y="282.576" type="line"/>
      <point x="381.26800000000003" y="81.45866666666666"/>
      <point x="493.74" y="-38.24666666666667"/>
    </contour>
    <contour>
      <point x="672.0413333333333" y="53.080000000000005" type="curve" smooth="yes"/>
      <point x="512.3346666666666" y="53.080000000000005"/>
      <point x="407.38800000000003" y="246.01733333333334"/>
      <point x="407.38800000000003" y="458.6933333333333" type="curve" smooth="yes"/>
      <point x="407.38800000000003" y="679.912"/>
      <point x="517.3626666666667" y="884.48"/>
      <point x="676.7746666666667" y="884.48" type="curve" smooth="yes"/>
      <point x="825.784" y="884.48"/>
      <point x="896.9946666666667" y="722.4706666666667"/>
      <point x="896.9946666666667" y="470.28" type="curve" smooth="yes"/>
      <point x="896.9946666666667" y="232.388"/>
      <point x="832.4706666666667" y="53.080000000000005"/>
    </contour>
  </outline>
</glyph>
<glyph name="c" format="2">
  <advance width="1004.4506666666667"/>
  <unicode hex="0063"/>
  <note>
c
</note>
  <anchor x="517.9853333333333" y="-14.986666666666665" name="bottom"/>
  <anchor x="579.7986666666667" y="961.8066666666666" name="top"/>
  <outline>
    <contour>
      <point x="582.672" y="-43.733333333333334" type="curve" smooth="yes"/>
      <point x="709.0453333333334" y="-43.733333333333334"/>
      <point x="836.8293333333334" y="-5.0986666666666665"/>
      <point x="920.9186666666667" y="57.55466666666666" type="curve"/>
      <point x="920.9186666666667" y="270.37733333333335" type="line"/>
      <point x="827.3213333333333" y="124.17333333333335"/>
      <point x="699.112" y="47.593333333333334"/>
      <point x="597.772" y="47.593333333333334" type="curve" smooth="yes"/>
      <point x="431.42533333333336" y="47.593333333333334"/>
      <point x="347.4853333333333" y="254.17333333333335"/>
      <point x="347.4853333333333" y="465.0466666666667" type="curve" smooth="yes"/>
      <point x="347.4853333333333" y="681.0186666666667"/>
      <point x="433.7786666666667" y="887.8"/>
      <point x="605.472" y="887.8" type="curve" smooth="yes"/>
      <point x="701.7986666666667" y="887.8"/>
      <point x="808.0133333333333" y="824.9053333333334"/>
      <point x="909.5853333333333" y="677.192" type="curve"/>
      <point x="909.5853333333333" y="882.02" type="line"/>
      <point x="805.364" y="944.9906666666667"/>
      <point x="693.88" y="979.26"/>
      <point x="579.872" y="979.26" type="curve" smooth="yes"/>
      <point x="286.94933333333336" y="979.26"/>
      <point x="71.69200000000001" y="761.4786666666666"/>
      <point x="71.69200000000001" y="458.74666666666667" type="curve" smooth="yes"/>
      <point x="71.69200000000001" y="159.65733333333333"/>
      <point x="281.3093333333333" y="-43.733333333333334"/>
    </contour>
  </outline>
</glyph>
<glyph name="d" format="2">
  <advance width="1241.88"/>
  <unicode hex="0064"/>
  <note>
d
</note>
  <anchor x="570.9733333333334" y="14.200000000000003" name="bottom"/>
  <anchor x="968.5173333333333" y="1295.7213333333334" name="center"/>
  <anchor x="617.8933333333333" y="1519.6533333333334" name="top"/>
  <anchor x="1247.0773333333334" y="1517.9266666666667" name="topright"/>
  <outline>
    <contour>
      <point x="528.2653333333334" y="-38.24666666666667" type="curve" smooth="yes"/>
      <point x="748.14" y="-38.24666666666667"/>
      <point x="860.8786666666666" y="80.92533333333333"/>
      <point x="908.6413333333334" y="282.3093333333333" type="curve"/>
      <point x="839.6586666666667" y="320.2266666666667" type="line"/>
      <point x="839.6586666666667" y="0.0" type="line"/>
      <point x="1110.6853333333333" y="0.0" type="line"/>
      <point x="1110.6853333333333" y="1519.6533333333334" type="line"/>
      <point x="836.0586666666667" y="1519.6533333333334" type="line"/>
      <point x="836.0586666666667" y="604.2653333333334" type="line"/>
      <point x="900.3333333333334" y="645.6053333333333" type="line"/>
      <point x="855.3306666666666" y="854.3426666666667"/>
      <point x="746.3533333333334" y="975.94"/>
      <point x="529.572" y="975.94" type="curve" smooth="yes"/>
      <point x="253.072" y="975.94"/>
      <point x="71.69200000000001" y="774.676"/>
      <point x="71.69200000000001" y="465.18" type="curve" smooth="yes"/>
      <point x="71.69200000000001" y="163.908"/>
      <point x="246.436" y="-38.24666666666667"/>
    </contour>
    <contour>
      <point x="569.972" y="53.21333333333333" type="curve" smooth="yes"/>
      <point x="409.88800000000003" y="53.21333333333333"/>
      <point x="345.01866666666666" y="231.564"/>
      <point x="345.01866666666666" y="470.28" type="curve" smooth="yes"/>
      <point x="345.01866666666666" y="722.18"/>
      <point x="415.7506666666667" y="884.48"/>
      <point x="565.2386666666666" y="884.48" type="curve" smooth="yes"/>
      <point x="724.4386666666667" y="884.48"/>
      <point x="834.6253333333333" y="679.7786666666667"/>
      <point x="834.6253333333333" y="458.29333333333335" type="curve" smooth="yes"/>
      <point x="834.6253333333333" y="245.484"/>
      <point x="730.024" y="53.21333333333333"/>
    </contour>
  </outline>
</glyph>
<glyph name="e" format="2">
  <advance width="1127.0106666666666"/>
  <unicode hex="0065"/>
  <note>
e
</note>
  <anchor x="562.3586666666666" y="-11.653333333333332" name="bottom"/>
  <anchor x="730.16" y="6.453333333333333" name="ogonek"/>
  <anchor x="569.2653333333334" y="954.9" name="top"/>
  <outline>
    <contour>
      <point x="577.0146666666667" y="-38.553333333333335" type="curve" smooth="yes"/>
      <point x="815.3946666666667" y="-38.553333333333335"/>
      <point x="963.5013333333334" y="81.63333333333333"/>
      <point x="1039.1306666666667" y="290.6533333333333" type="curve"/>
      <point x="869.316" y="290.6533333333333" type="line"/>
      <point x="844.0213333333334" y="169.168"/>
      <point x="705.068" y="52.428"/>
      <point x="585.648" y="52.428" type="curve" smooth="yes"/>
      <point x="424.124" y="52.428"/>
      <point x="349.0946666666666" y="265.12800000000004"/>
      <point x="349.0946666666666" y="463.44666666666666" type="curve" smooth="yes"/>
      <point x="349.0946666666666" y="654.4973333333334"/>
      <point x="438.05600000000004" y="882.7986666666667"/>
      <point x="577.0146666666667" y="882.7986666666667" type="curve" smooth="yes"/>
      <point x="697.0786666666667" y="882.7986666666667"/>
      <point x="764.14" y="716.0693333333334"/>
      <point x="788.5373333333333" y="499.3666666666667" type="curve"/>
      <point x="1065.04" y="499.3666666666667" type="line"/>
      <point x="1027.232" y="800.676"/>
      <point x="851.1213333333333" y="974.08"/>
      <point x="571.4146666666667" y="974.08" type="curve" smooth="yes"/>
      <point x="272.78000000000003" y="974.08"/>
      <point x="71.00133333333333" y="770.5226666666666"/>
      <point x="71.00133333333333" y="465.11333333333334" type="curve" smooth="yes"/>
      <point x="71.00133333333333" y="162.468"/>
      <point x="269.18266666666665" y="-38.553333333333335"/>
    </contour>
    <contour>
      <point x="297.38" y="498.72133333333335" type="line"/>
      <point x="1014.8933333333333" y="499.3666666666667" type="line"/>
      <point x="1013.5626666666667" y="576.7573333333333" type="line"/>
      <point x="273.78" y="576.7573333333333" type="line"/>
    </contour>
  </outline>
</glyph>
<glyph name="f" format="2">
  <advance width="785.4066666666668"/>
  <unicode hex="0066"/>
  <note>
f
</note>
  <anchor x="392.85333333333335" y="14.200000000000003" name="bottom"/>
  <anchor x="392.85333333333335" y="1519.6533333333334" name="top"/>
  <outline>
    <contour>
      <point x="231.54000000000002" y="0.0" type="line"/>
      <point x="505.3666666666667" y="0.0" type="line"/>
      <point x="505.3666666666667" y="1075.6666666666667" type="line" smooth="yes"/>
      <point x="505.3666666666667" y="1217.8946666666666"/>
      <point x="463.01733333333334" y="1433.8813333333333"/>
      <point x="551.264" y="1466.016" type="curve" smooth="yes"/>
      <point x="613.5386666666667" y="1459.7813333333334"/>
      <point x="647.8" y="1436.556"/>
      <point x="647.8" y="1369.0666666666666" type="curve" smooth="yes"/>
      <point x="647.8" y="1342.724"/>
      <point x="641.388" y="1297.7946666666667"/>
      <point x="632.1973333333333" y="1261.4866666666667" type="curve"/>
      <point x="800.1173333333334" y="1261.4866666666667" type="line"/>
      <point x="808.1866666666667" y="1298.7906666666668"/>
      <point x="812.82" y="1336.348"/>
      <point x="812.82" y="1361.1666666666667" type="curve" smooth="yes"/>
      <point x="812.82" y="1487.888"/>
      <point x="690.448" y="1568.3466666666666"/>
      <point x="523.0" y="1568.3466666666666" type="curve" smooth="yes"/>
      <point x="312.028" y="1568.3466666666666"/>
      <point x="231.54000000000002" y="1437.2293333333332"/>
      <point x="231.54000000000002" y="1135.9" type="curve" smooth="yes"/>
    </contour>
    <contour>
      <point x="45.873333333333335" y="849.5666666666666" type="line"/>
      <point x="711.0333333333334" y="849.5666666666666" type="line"/>
      <point x="711.0333333333334" y="939.36" type="line"/>
      <point x="45.873333333333335" y="939.36" type="line"/>
    </contour>
  </outline>
</glyph>
<glyph name="g" format="2">
  <advance width="1240.392"/>
  <unicode hex="0067"/>
  <note>
g
</note>
  <anchor x="618.0013333333334" y="-511.8" name="bottom"/>
  <anchor x="586.868" y="954.9" name="top"/>
  <outline>
    <contour>
      <point x="565.472" y="-567.1133333333333" type="curve" smooth="yes"/>
      <point x="914.7719999999999" y="-567.1133333333333"/>
      <point x="1111.8853333333334" y="-333.84"/>
      <point x="1111.8853333333334" y="98.36666666666667" type="curve" smooth="yes"/>
      <point x="1111.8853333333334" y="947.78" type="line"/>
      <point x="836.8586666666666" y="947.78" type="line"/>
      <point x="836.8586666666666" y="665.9" type="line"/>
      <point x="910.4826666666667" y="698.7146666666666" type="line"/>
      <point x="855.468" y="872.5493333333334"/>
      <point x="726.0573333333333" y="974.08"/>
      <point x="531.0386666666667" y="974.08" type="curve" smooth="yes"/>
      <point x="253.212" y="974.08"/>
      <point x="73.95866666666667" y="764.8306666666667"/>
      <point x="73.95866666666667" y="458.76666666666665" type="curve" smooth="yes"/>
      <point x="73.95866666666667" y="153.02933333333334"/>
      <point x="255.34266666666667" y="-49.379999999999995"/>
      <point x="536.772" y="-49.379999999999995" type="curve" smooth="yes"/>
      <point x="736.6373333333333" y="-49.379999999999995"/>
      <point x="859.7986666666667" y="52.564"/>
      <point x="913.916" y="217.99733333333333" type="curve"/>
      <point x="841.2586666666666" y="267.48" type="line"/>
      <point x="840.592" y="34.13333333333334" type="line"/>
      <point x="840.592" y="-300.88533333333334"/>
      <point x="711.6426666666666" y="-475.7866666666667"/>
      <point x="540.3386666666667" y="-475.7866666666667" type="curve" smooth="yes"/>
      <point x="391.0106666666667" y="-475.7866666666667"/>
      <point x="284.3346666666667" y="-366.4173333333333"/>
      <point x="267.4066666666667" y="-216.08666666666664" type="curve"/>
      <point x="78.768" y="-216.08666666666664" type="line"/>
      <point x="133.78400000000002" y="-448.68266666666665"/>
      <point x="299.096" y="-567.1133333333333"/>
    </contour>
    <contour>
      <point x="568.6053333333333" y="42.413333333333334" type="curve" smooth="yes"/>
      <point x="411.1666666666667" y="42.413333333333334"/>
      <point x="347.4186666666667" y="224.65066666666667"/>
      <point x="347.4186666666667" y="464.0" type="curve" smooth="yes"/>
      <point x="347.4186666666667" y="715.9666666666667"/>
      <point x="416.60533333333336" y="882.4533333333334"/>
      <point x="563.872" y="882.4533333333334" type="curve" smooth="yes"/>
      <point x="720.3266666666667" y="882.4533333333334"/>
      <point x="829.4586666666667" y="677.7306666666667"/>
      <point x="829.4586666666667" y="455.73333333333335" type="curve" smooth="yes"/>
      <point x="829.4586666666667" y="243.06933333333333"/>
      <point x="726.736" y="42.413333333333334"/>
    </contour>
  </outline>
</glyph>
<glyph name="h" format="2">
  <advance width="1185.0026666666668"/>
  <unicode hex="0068"/>
  <note>
h
</note>
  <anchor x="592.0013333333334" y="0.0" name="bottom"/>
  <anchor x="278.44933333333336" y="1317.3373333333334" name="center"/>
  <anchor x="592.0013333333334" y="1519.6533333333334" name="top"/>
  <outline>
    <contour>
      <point x="131.19466666666668" y="0.0" type="line"/>
      <point x="409.44533333333334" y="0.0" type="line"/>
      <point x="409.44533333333334" y="498.3" type="line" smooth="yes"/>
      <point x="409.44533333333334" y="711.328"/>
      <point x="523.1333333333333" y="879.9346666666667"/>
      <point x="657.5853333333333" y="879.9346666666667" type="curve" smooth="yes"/>
      <point x="759.768" y="879.9346666666667"/>
      <point x="803.1386666666667" y="781.1493333333333"/>
      <point x="803.1386666666667" y="537.4466666666667" type="curve" smooth="yes"/>
      <point x="803.1386666666667" y="0.0" type="line"/>
      <point x="1080.6986666666667" y="0.0" type="line"/>
      <point x="1080.6986666666667" y="609.12" type="line" smooth="yes"/>
      <point x="1080.6986666666667" y="833.808"/>
      <point x="932.9973333333334" y="973.6133333333333"/>
      <point x="698.7586666666666" y="973.6133333333333" type="curve" smooth="yes"/>
      <point x="506.8813333333334" y="973.6133333333333"/>
      <point x="381.46666666666664" y="876.2386666666666"/>
      <point x="324.55466666666666" y="681.6746666666667" type="curve"/>
      <point x="407.61199999999997" y="537.9879999999999" type="line"/>
      <point x="409.2546666666667" y="1521.38" type="line"/>
      <point x="131.19466666666668" y="1521.38" type="line"/>
    </contour>
  </outline>
</glyph>
<glyph name="k" format="2">
  <advance width="1116.8733333333334"/>
  <unicode hex="006B"/>
  <note>
k
</note>
  <anchor x="557.996" y="0.0" name="bottom"/>
  <anchor x="561.7293333333333" y="1519.6533333333334" name="top"/>
  <outline>
    <contour>
      <point x="131.19466666666668" y="0.0" type="line"/>
      <point x="404.98800000000006" y="0.0" type="line"/>
      <point x="404.98800000000006" y="1521.38" type="line"/>
      <point x="131.19466666666668" y="1521.38" type="line"/>
    </contour>
    <contour>
      <point x="786.156" y="0.0" type="line"/>
      <point x="1074.2146666666667" y="0.0" type="line"/>
      <point x="595.66" y="592.3146666666667" type="line"/>
      <point x="446.23199999999997" y="408.9173333333333" type="line"/>
    </contour>
    <contour>
      <point x="345.1813333333333" y="246.74266666666665" type="line"/>
      <point x="977.7733333333333" y="953.3053333333334" type="line"/>
      <point x="807.548" y="953.3053333333334" type="line"/>
      <point x="355.44266666666664" y="440.7746666666667" type="line"/>
    </contour>
  </outline>
</glyph>
<glyph name="l" format="2">
  <advance width="535.9159999999999"/>
  <unicode hex="006C"/>
  <note>
l
</note>
  <anchor x="244.61466666666666" y="0.0" name="bottom"/>
  <anchor x="268.50800000000004" y="785.3266666666667" name="center"/>
  <anchor x="675.368" y="787.8" name="dot"/>
  <anchor x="356.6413333333333" y="1517.4466666666667" name="top"/>
  <anchor x="519.788" y="1490.42" name="topright"/>
  <outline>
    <contour>
      <point x="131.19466666666668" y="0.0" type="line"/>
      <point x="404.72133333333335" y="0.0" type="line"/>
      <point x="404.72133333333335" y="1521.38" type="line"/>
      <point x="131.19466666666668" y="1521.38" type="line"/>
    </contour>
  </outline>
</glyph>
<glyph name="m" format="2">
  <advance width="1790.1586666666667"/>
  <unicode hex="006D"/>
  <note>
m
</note>
  <anchor x="902.7786666666667" y="0.0" name="bottom"/>
  <anchor x="909.6853333333333" y="961.8066666666666" name="top"/>
  <outline>
    <contour>
      <point x="120.29466666666667" y="0.0" type="line"/>
      <point x="396.92133333333334" y="0.0" type="line"/>
      <point x="396.92133333333334" y="498.3" type="line" smooth="yes"/>
      <point x="396.92133333333334" y="681.184"/>
      <point x="484.9946666666667" y="881.8199999999999"/>
      <point x="615.9746666666666" y="881.8199999999999" type="curve" smooth="yes"/>
      <point x="727.5626666666667" y="881.8199999999999"/>
      <point x="780.3613333333333" y="738.224"/>
      <point x="780.3613333333333" y="537.7666666666667" type="curve" smooth="yes"/>
      <point x="780.3613333333333" y="0.0" type="line"/>
      <point x="1056.988" y="0.0" type="line"/>
      <point x="1056.988" y="498.3" type="line" smooth="yes"/>
      <point x="1056.988" y="692.1346666666667"/>
      <point x="1126.3973333333333" y="871.7533333333333"/>
      <point x="1255.0746666666666" y="871.7533333333333" type="curve" smooth="yes"/>
      <point x="1365.148" y="871.7533333333333"/>
      <point x="1409.0946666666666" y="741.332"/>
      <point x="1409.0946666666666" y="537.7666666666667" type="curve" smooth="yes"/>
      <point x="1409.0946666666666" y="0.1333333333333333" type="line"/>
      <point x="1685.7213333333334" y="0.1333333333333333" type="line"/>
      <point x="1685.7213333333334" y="618.1333333333333" type="line" smooth="yes"/>
      <point x="1685.7213333333334" y="835.52"/>
      <point x="1545.5813333333333" y="974.08"/>
      <point x="1319.6613333333335" y="974.08" type="curve" smooth="yes"/>
      <point x="1133.8626666666667" y="974.08"/>
      <point x="1039.9546666666665" y="879.96"/>
      <point x="955.488" y="679.6413333333334" type="curve"/>
      <point x="1042.2453333333333" y="689.832" type="line"/>
      <point x="1006.9266666666666" y="863.1053333333333"/>
      <point x="875.576" y="974.08"/>
      <point x="682.6613333333333" y="974.08" type="curve" smooth="yes"/>
      <point x="512.1666666666667" y="974.08"/>
      <point x="409.3466666666667" y="885.1826666666667"/>
      <point x="337.3413333333333" y="722.836" type="curve"/>
      <point x="397.688" y="640.336" type="line"/>
      <point x="398.3213333333333" y="953.3053333333334" type="line"/>
      <point x="120.29466666666667" y="953.3053333333334" type="line"/>
    </contour>
  </outline>
</glyph>
<glyph name="n" format="2">
  <advance width="1169.9586666666667"/>
  <unicode hex="006E"/>
  <note>
n
</note>
  <anchor x="593.1653333333334" y="0.0" name="bottom"/>
  <anchor x="621.856" y="953.1733333333333" name="top"/>
  <outline>
    <contour>
      <point x="120.29466666666667" y="0.0" type="line"/>
      <point x="397.8546666666667" y="0.0" type="line"/>
      <point x="397.8546666666667" y="498.3" type="line" smooth="yes"/>
      <point x="397.8546666666667" y="706.4933333333333"/>
      <point x="512.5786666666667" y="878.5533333333333"/>
      <point x="642.6746666666667" y="878.5533333333333" type="curve" smooth="yes"/>
      <point x="742.652" y="878.5533333333333"/>
      <point x="788.0946666666666" y="773.552"/>
      <point x="788.0946666666666" y="540.9" type="curve" smooth="yes"/>
      <point x="788.0946666666666" y="0.0" type="line"/>
      <point x="1065.6546666666668" y="0.0" type="line"/>
      <point x="1065.6546666666668" y="605.6666666666666" type="line" smooth="yes"/>
      <point x="1065.6546666666668" y="833.808"/>
      <point x="922.788" y="974.08"/>
      <point x="688.8946666666666" y="974.08" type="curve" smooth="yes"/>
      <point x="496.21733333333333" y="974.08"/>
      <point x="389.184" y="874.6146666666667"/>
      <point x="333.684" y="680.4266666666666" type="curve"/>
      <point x="395.17600000000004" y="547.8693333333333" type="line"/>
      <point x="397.8546666666667" y="953.3053333333334" type="line"/>
      <point x="120.29466666666667" y="953.3053333333334" type="line"/>
    </contour>
  </outline>
</glyph>
<glyph name="o" format="2">
  <advance width="1159.4106666666667"/>
  <unicode hex="006F"/>
  <note>
o
</note>
  <anchor x="580.2053333333333" y="2.9333333333333336" name="bottom"/>
  <anchor x="580.2053333333333" y="471.1693333333333" name="center"/>
  <anchor x="729.5066666666667" y="0.0" name="ogonek"/>
  <anchor x="580.2053333333333" y="958.3533333333334" name="top"/>
  <anchor x="1130.4946666666667" y="941.9933333333333" name="topright"/>
  <outline>
    <contour>
      <point x="580.072" y="-40.28" type="curve" smooth="yes"/>
      <point x="886.016" y="-40.28"/>
      <point x="1087.7186666666666" y="157.58133333333333"/>
      <point x="1087.7186666666666" y="464.404" type="curve" smooth="yes"/>
      <point x="1087.7186666666666" y="773.3453333333333"/>
      <point x="884.3826666666666" y="978.9146666666667"/>
      <point x="580.072" y="978.9146666666667" type="curve" smooth="yes"/>
      <point x="274.904" y="978.9146666666667"/>
      <point x="71.69200000000001" y="772.6546666666667"/>
      <point x="71.69200000000001" y="464.404" type="curve" smooth="yes"/>
      <point x="71.69200000000001" y="157.58133333333333"/>
      <point x="274.2613333333333" y="-40.28"/>
    </contour>
    <contour>
      <point x="580.072" y="51.013333333333335" type="curve" smooth="yes"/>
      <point x="444.30133333333333" y="51.013333333333335"/>
      <point x="355.51866666666666" y="258.084"/>
      <point x="355.51866666666666" y="464.904" type="curve" smooth="yes"/>
      <point x="355.51866666666666" y="672.948"/>
      <point x="445.21333333333337" y="887.7546666666667"/>
      <point x="580.072" y="887.7546666666667" type="curve" smooth="yes"/>
      <point x="715.0973333333334" y="887.7546666666667"/>
      <point x="806.492" y="670.2906666666667"/>
      <point x="806.492" y="464.404" type="curve" smooth="yes"/>
      <point x="806.492" y="258.49600000000004"/>
      <point x="716.1093333333333" y="51.013333333333335"/>
    </contour>
  </outline>
</glyph>
<glyph name="p" format="2">
  <advance width="1240.7493333333334"/>
  <unicode hex="0070"/>
  <note>
p
</note>
  <anchor x="637.9533333333334" y="14.200000000000003" name="bottom"/>
  <anchor x="637.9533333333334" y="941.9933333333333" name="top"/>
  <outline>
    <contour>
      <point x="131.53066666666666" y="-527.4186666666667" type="line"/>
      <point x="406.424" y="-527.4186666666667" type="line"/>
      <point x="406.424" y="337.86133333333333" type="line"/>
      <point x="342.016" y="296.38800000000003" type="line"/>
      <point x="386.8853333333334" y="88.05066666666667"/>
      <point x="496.76533333333333" y="-33.846666666666664"/>
      <point x="711.9773333333333" y="-33.846666666666664" type="curve" smooth="yes"/>
      <point x="989.2466666666667" y="-33.846666666666664"/>
      <point x="1169.0573333333334" y="171.78266666666667"/>
      <point x="1169.0573333333334" y="480.53333333333336" type="curve" smooth="yes"/>
      <point x="1169.0573333333334" y="782.684"/>
      <point x="995.7493333333334" y="988.08"/>
      <point x="713.284" y="988.08" type="curve" smooth="yes"/>
      <point x="494.8453333333333" y="988.08"/>
      <point x="381.4706666666667" y="868.508"/>
      <point x="333.8413333333333" y="667.3906666666667" type="curve"/>
      <point x="402.5573333333333" y="622.5666666666667" type="line"/>
      <point x="402.5573333333333" y="953.3053333333334" type="line"/>
      <point x="131.53066666666666" y="953.3053333333334" type="line"/>
    </contour>
    <contour>
      <point x="676.3106666666667" y="57.613333333333344" type="curve" smooth="yes"/>
      <point x="518.1226666666666" y="57.613333333333344"/>
      <point x="407.72400000000005" y="262.348"/>
      <point x="407.72400000000005" y="483.56666666666666" type="curve" smooth="yes"/>
      <point x="407.72400000000005" y="697.1759999999999"/>
      <point x="511.7133333333333" y="896.7533333333333"/>
      <point x="671.5773333333334" y="896.7533333333333" type="curve" smooth="yes"/>
      <point x="830.916" y="896.7533333333333"/>
      <point x="895.7306666666667" y="714.9493333333334"/>
      <point x="895.7306666666667" y="475.43333333333334" type="curve" smooth="yes"/>
      <point x="895.7306666666667" y="223.8"/>
      <point x="825.744" y="57.613333333333344"/>
    </contour>
  </outline>
</glyph>
<glyph name="q" format="2">
  <advance width="1229.628"/>
  <unicode hex="0071"/>
  <note>
q
</note>
  <anchor x="603.3573333333334" y="14.200000000000003" name="bottom"/>
  <anchor x="603.3573333333334" y="941.9933333333333" name="top"/>
  <outline>
    <contour>
      <point x="834.4586666666667" y="-527.4186666666667" type="line"/>
      <point x="1109.2186666666666" y="-527.4186666666667" type="line"/>
      <point x="1109.2186666666666" y="953.3053333333334" type="line"/>
      <point x="838.192" y="953.3053333333334" type="line"/>
      <point x="838.192" y="621.6333333333333" type="line"/>
      <point x="907.0413333333333" y="666.4573333333333" type="line"/>
      <point x="859.412" y="867.708"/>
      <point x="746.0373333333333" y="988.08"/>
      <point x="527.4653333333333" y="988.08" type="curve" smooth="yes"/>
      <point x="245.0" y="988.08"/>
      <point x="71.69200000000001" y="782.2293333333333"/>
      <point x="71.69200000000001" y="480.53333333333336" type="curve" smooth="yes"/>
      <point x="71.69200000000001" y="172.128"/>
      <point x="251.636" y="-33.846666666666664"/>
      <point x="528.772" y="-33.846666666666664" type="curve" smooth="yes"/>
      <point x="744.1173333333334" y="-33.846666666666664"/>
      <point x="853.864" y="87.91733333333333"/>
      <point x="898.7333333333333" y="296.38800000000003" type="curve"/>
      <point x="834.4586666666667" y="337.86133333333333" type="line"/>
    </contour>
    <contour>
      <point x="564.4386666666667" y="57.613333333333344" type="curve" smooth="yes"/>
      <point x="415.13866666666667" y="57.613333333333344"/>
      <point x="345.01866666666666" y="223.8"/>
      <point x="345.01866666666666" y="475.43333333333334" type="curve" smooth="yes"/>
      <point x="345.01866666666666" y="714.016"/>
      <point x="409.83333333333337" y="896.7533333333333"/>
      <point x="569.172" y="896.7533333333333" type="curve" smooth="yes"/>
      <point x="729.1693333333334" y="896.7533333333333"/>
      <point x="833.1586666666667" y="696.2426666666667"/>
      <point x="833.1586666666667" y="483.56666666666666" type="curve" smooth="yes"/>
      <point x="833.1586666666667" y="262.348"/>
      <point x="722.76" y="57.613333333333344"/>
    </contour>
  </outline>
</glyph>
<glyph name="r" format="2">
  <advance width="932.3906666666667"/>
  <unicode hex="0072"/>
  <note>
r
</note>
  <anchor x="222.62133333333333" y="0.0" name="bottom"/>
  <anchor x="636.3813333333333" y="953.1733333333333" name="top"/>
  <outline>
    <contour>
      <point x="120.29466666666667" y="0.0" type="line"/>
      <point x="397.8546666666667" y="0.0" type="line"/>
      <point x="397.8546666666667" y="584.9666666666667" type="line" smooth="yes"/>
      <point x="397.8546666666667" y="734.9986666666666"/>
      <point x="499.61600000000004" y="880.12"/>
      <point x="610.128" y="880.12" type="curve" smooth="yes"/>
      <point x="658.1026666666667" y="880.12"/>
      <point x="715.2813333333334" y="852.5133333333333"/>
      <point x="706.048" y="765.5666666666667" type="curve" smooth="yes"/>
      <point x="705.248" y="722.8453333333333"/>
      <point x="692.7906666666667" y="686.8013333333333"/>
      <point x="672.684" y="659.352" type="curve"/>
      <point x="851.8026666666667" y="621.928" type="line"/>
      <point x="870.7293333333334" y="679.216"/>
      <point x="876.5746666666666" y="735.188"/>
      <point x="876.5746666666666" y="766.8" type="curve" smooth="yes"/>
      <point x="876.5746666666666" y="908.944"/>
      <point x="755.8413333333333" y="974.08"/>
      <point x="636.2280000000001" y="974.08" type="curve" smooth="yes"/>
      <point x="464.876" y="974.08"/>
      <point x="381.592" y="847.5746666666666"/>
      <point x="332.91999999999996" y="618.592" type="curve"/>
      <point x="396.92133333333334" y="597.8693333333333" type="line"/>
      <point x="397.8546666666667" y="953.3053333333334" type="line"/>
      <point x="120.29466666666667" y="953.3053333333334" type="line"/>
    </contour>
  </outline>
</glyph>
<glyph name="s" format="2">
  <advance width="944.888"/>
  <unicode hex="0073"/>
  <note>
s
</note>
  <anchor x="439.75333333333333" y="-8.466666666666669" name="bottom"/>
  <anchor x="475.30133333333333" y="954.4266666666666" name="top"/>
  <outline>
    <contour>
      <point x="461.5466666666667" y="-31.241333333333333" type="curve" smooth="yes"/>
      <point x="742.5546666666667" y="-30.608"/>
      <point x="875.0600000000001" y="83.79066666666667"/>
      <point x="874.5933333333334" y="271.068" type="curve" smooth="yes"/>
      <point x="874.26" y="502.868"/>
      <point x="658.4506666666666" y="566.9333333333334"/>
      <point x="478.1906666666667" y="602.1453333333334" type="curve" smooth="yes"/>
      <point x="351.044" y="627.2893333333334"/>
      <point x="278.71333333333337" y="664.5386666666667"/>
      <point x="278.71333333333337" y="745.5013333333334" type="curve" smooth="yes"/>
      <point x="278.71333333333337" y="838.9786666666666"/>
      <point x="352.432" y="884.3333333333334"/>
      <point x="466.81333333333333" y="884.6333333333333" type="curve" smooth="yes"/>
      <point x="581.088" y="884.8"/>
      <point x="701.124" y="843.0186666666667"/>
      <point x="818.9933333333333" y="704.7906666666667" type="curve"/>
      <point x="818.5266666666666" y="873.5173333333333" type="line"/>
      <point x="699.6906666666666" y="946.7573333333333"/>
      <point x="594.572" y="978.7266666666667"/>
      <point x="467.21333333333337" y="978.5600000000001" type="curve" smooth="yes"/>
      <point x="246.62" y="978.26"/>
      <point x="93.30000000000001" y="879.9386666666667"/>
      <point x="93.76666666666667" y="698.7173333333333" type="curve" smooth="yes"/>
      <point x="94.23333333333333" y="523.468"/>
      <point x="248.356" y="449.384"/>
      <point x="423.44533333333334" y="410.64" type="curve" smooth="yes"/>
      <point x="580.8426666666667" y="375.668"/>
      <point x="656.0466666666666" y="339.01866666666666"/>
      <point x="656.0466666666666" y="226.36266666666666" type="curve" smooth="yes"/>
      <point x="656.0466666666666" y="97.29866666666668"/>
      <point x="526.26" y="66.88533333333334"/>
      <point x="450.58" y="66.88533333333334" type="curve" smooth="yes"/>
      <point x="316.404" y="66.41866666666667"/>
      <point x="212.84133333333335" y="125.82133333333334"/>
      <point x="78.1" y="296.428" type="curve"/>
      <point x="78.73333333333333" y="100.21333333333334" type="line"/>
      <point x="141.324" y="32.87733333333334"/>
      <point x="248.28933333333333" y="-31.708"/>
    </contour>
  </outline>
</glyph>
<glyph name="t" format="2">
  <advance width="732.9"/>
  <unicode hex="0074"/>
  <note>
t
</note>
  <anchor x="403.98533333333336" y="-10.0" name="bottom"/>
  <anchor x="363.4786666666667" y="589.6226666666666" name="center"/>
  <anchor x="367.3453333333334" y="941.9933333333333" name="top"/>
  <anchor x="695.9386666666667" y="1370.7" name="topright"/>
  <outline>
    <contour>
      <point x="435.18666666666667" y="-30.172" type="curve" smooth="yes"/>
      <point x="535.9146666666667" y="-30.172"/>
      <point x="626.5106666666667" y="-13.449333333333334"/>
      <point x="678.1666666666666" y="7.501333333333331" type="curve"/>
      <point x="678.1666666666666" y="122.55733333333333" type="line"/>
      <point x="580.2346666666666" y="73.536"/>
      <point x="545.0613333333333" y="63.02133333333334"/>
      <point x="499.05733333333336" y="63.02133333333334" type="curve" smooth="yes"/>
      <point x="450.42533333333336" y="63.02133333333334"/>
      <point x="461.56666666666666" y="149.71866666666668"/>
      <point x="461.56666666666666" y="343.7346666666667" type="curve" smooth="yes"/>
      <point x="461.56666666666666" y="864.1666666666666" type="line"/>
      <point x="618.3666666666667" y="864.1666666666666" type="line"/>
      <point x="618.3666666666667" y="953.76" type="line"/>
      <point x="461.56666666666666" y="953.76" type="line"/>
      <point x="461.56666666666666" y="1269.46" type="line"/>
      <point x="347.5733333333333" y="1269.46" type="line"/>
      <point x="359.14" y="1049.92"/>
      <point x="212.99333333333334" y="953.16"/>
      <point x="45.873333333333335" y="953.76" type="curve"/>
      <point x="45.873333333333335" y="864.1666666666666" type="line"/>
      <point x="194.04000000000002" y="864.1666666666666" type="line"/>
      <point x="194.04000000000002" y="212.84133333333332" type="line" smooth="yes"/>
      <point x="194.04000000000002" y="79.50666666666665"/>
      <point x="267.652" y="-30.172"/>
    </contour>
  </outline>
</glyph>
<glyph name="u" format="2">
  <advance width="1165.5186666666666"/>
  <unicode hex="0075"/>
  <note>
u
</note>
  <anchor x="530.872" y="-1.4666666666666686" name="bottom"/>
  <anchor x="917.748" y="0.0" name="ogonek"/>
  <anchor x="580.9653333333333" y="953.3053333333334" name="top"/>
  <anchor x="1309.192" y="917.5866666666667" name="topright"/>
  <outline>
    <contour>
      <point x="473.86" y="-31.14666666666667" type="curve" smooth="yes"/>
      <point x="647.432" y="-31.14666666666667"/>
      <point x="746.2453333333333" y="80.98266666666666"/>
      <point x="804.0906666666667" y="264.75199999999995" type="curve"/>
      <point x="769.652" y="406.45466666666664" type="line"/>
      <point x="767.1066666666667" y="0.0" type="line"/>
      <point x="1044.5333333333333" y="0.0" type="line"/>
      <point x="1044.5333333333333" y="952.96" type="line"/>
      <point x="767.1066666666667" y="952.96" type="line"/>
      <point x="767.1066666666667" y="452.29999999999995" type="line" smooth="yes"/>
      <point x="767.1066666666667" y="241.33066666666667"/>
      <point x="644.0053333333333" y="61.11333333333334"/>
      <point x="508.76666666666665" y="61.11333333333334" type="curve" smooth="yes"/>
      <point x="411.77066666666667" y="61.11333333333334"/>
      <point x="383.4333333333333" y="170.57466666666667"/>
      <point x="383.4333333333333" y="419.1" type="curve" smooth="yes"/>
      <point x="383.4333333333333" y="952.96" type="line"/>
      <point x="105.87333333333333" y="952.96" type="line"/>
      <point x="105.87333333333333" y="303.2" type="line" smooth="yes"/>
      <point x="105.87333333333333" y="103.028"/>
      <point x="267.9506666666667" y="-31.14666666666667"/>
    </contour>
  </outline>
</glyph>
<glyph name="v" format="2">
  <advance width="1080.3266666666666"/>
  <unicode hex="0076"/>
  <note>
v
</note>
  <anchor x="540.9466666666667" y="14.200000000000003" name="bottom"/>
  <anchor x="540.9466666666667" y="941.9933333333333" name="top"/>
  <outline>
    <contour>
      <point x="500.34133333333335" y="-32.572" type="line"/>
      <point x="576.44" y="-32.572" type="line"/>
      <point x="1031.0226666666667" y="953.3053333333334" type="line"/>
      <point x="900.0346666666667" y="953.3053333333334" type="line"/>
      <point x="588.22" y="265.12533333333334" type="line"/>
      <point x="637.1613333333333" y="284.62533333333334" type="line"/>
      <point x="334.75866666666667" y="953.3053333333334" type="line"/>
      <point x="50.004000000000005" y="953.3053333333334" type="line"/>
    </contour>
  </outline>
</glyph>
<glyph name="w" format="2">
  <advance width="1641.6733333333334"/>
  <unicode hex="0077"/>
  <note>
w
</note>
  <anchor x="820.9866666666667" y="0.0" name="bottom"/>
  <anchor x="820.9866666666667" y="952.96" name="top"/>
  <outline>
    <contour>
      <point x="1065.6386666666667" y="-14.589333333333334" type="line"/>
      <point x="1141.692" y="-14.589333333333334" type="line"/>
      <point x="1594.8693333333333" y="953.3053333333334" type="line"/>
      <point x="1463.4386666666667" y="953.3053333333334" type="line"/>
      <point x="1154.6386666666667" y="284.88933333333335" type="line"/>
      <point x="1212.0826666666667" y="299.6053333333333" type="line"/>
      <point x="907.2560000000001" y="953.3053333333334" type="line"/>
      <point x="621.216" y="953.3053333333334" type="line"/>
    </contour>
    <contour>
      <point x="491.36" y="-14.589333333333334" type="line"/>
      <point x="567.592" y="-14.589333333333334" type="line"/>
      <point x="854.4773333333334" y="610.024" type="line"/>
      <point x="787.364" y="747.9506666666666" type="line"/>
      <point x="579.272" y="284.5346666666667" type="line"/>
      <point x="629.28" y="298.37466666666666" type="line"/>
      <point x="332.84400000000005" y="953.3053333333334" type="line"/>
      <point x="47.14933333333333" y="953.3053333333334" type="line"/>
    </contour>
    <contour>
      <point x="949.6946666666666" y="738.5613333333333" type="line"/>
      <point x="1049.204" y="953.3053333333334" type="line"/>
      <point x="949.844" y="953.3053333333334" type="line"/>
      <point x="884.4706666666666" y="807.3546666666666" type="line"/>
    </contour>
  </outline>
</glyph>
<glyph name="x" format="2">
  <advance width="1045.1666666666667"/>
  <unicode hex="0078"/>
  <note>
x
</note>
  <anchor x="507.75333333333333" y="14.200000000000003" name="bottom"/>
  <anchor x="507.75333333333333" y="950.6266666666667" name="top"/>
  <outline>
    <contour>
      <point x="678.512" y="0.0" type="line"/>
      <point x="989.8306666666667" y="0.0" type="line"/>
      <point x="363.78133333333335" y="953.3053333333334" type="line"/>
      <point x="52.11733333333333" y="953.3053333333334" type="line"/>
    </contour>
    <contour>
      <point x="67.35066666666667" y="0.0" type="line"/>
      <point x="211.37600000000003" y="0.0" type="line"/>
      <point x="512.7106666666667" y="394.79066666666665" type="line"/>
      <point x="449.62" y="495.23466666666667" type="line"/>
    </contour>
    <contour>
      <point x="594.812" y="467.65866666666665" type="line"/>
      <point x="959.6333333333333" y="953.3053333333334" type="line"/>
      <point x="817.9626666666667" y="953.3053333333334" type="line"/>
      <point x="526.752" y="563.1546666666667" type="line"/>
    </contour>
  </outline>
</glyph>
<glyph name="y" format="2">
  <advance width="1028.8426666666667"/>
  <unicode hex="0079"/>
  <note>
y
</note>
  <anchor x="793.6053333333333" y="0.0" name="bottom"/>
  <anchor x="559.6986666666667" y="952.96" name="top"/>
  <outline>
    <contour>
      <point x="280.392" y="-561.4133333333333" type="curve" smooth="yes"/>
      <point x="416.488" y="-561.4133333333333"/>
      <point x="457.62266666666665" y="-456.74"/>
      <point x="499.24533333333335" y="-341.364" type="curve" smooth="yes"/>
      <point x="574.5706666666667" y="-124.84266666666667"/>
      <point x="652.0653333333333" y="92.59999999999997"/>
      <point x="730.5933333333334" y="309.188" type="curve"/>
      <point x="978.4053333333334" y="953.3053333333334" type="line"/>
      <point x="845.46" y="953.3053333333334" type="line"/>
      <point x="579.928" y="240.58133333333336" type="line"/>
      <point x="648.4626666666667" y="259.8906666666667" type="line"/>
      <point x="330.6253333333333" y="953.3053333333334" type="line"/>
      <point x="47.33733333333333" y="953.3053333333334" type="line"/>
      <point x="521.6786666666667" y="-79.09333333333335" type="line"/>
      <point x="515.1026666666667" y="64.47200000000001" type="line"/>
      <point x="407.984" y="-257.29200000000003" type="line" smooth="yes"/>
      <point x="380.6786666666667" y="-339.24399999999997"/>
      <point x="343.8573333333333" y="-489.24"/>
      <point x="279.0386666666667" y="-489.24" type="curve" smooth="yes"/>
      <point x="238.60666666666668" y="-489.24"/>
      <point x="204.79333333333332" y="-464.67333333333335"/>
      <point x="197.56133333333332" y="-423.0733333333333" type="curve"/>
      <point x="90.63333333333333" y="-423.0733333333333" type="line"/>
      <point x="103.304" y="-512.6466666666666"/>
      <point x="166.48000000000002" y="-561.4133333333333"/>
    </contour>
  </outline>
</glyph>
<glyph name="z" format="2">
  <advance width="1010.5786666666667"/>
  <unicode hex="007A"/>
  <note>
z
</note>
  <anchor x="505.80133333333333" y="0.0" name="bottom"/>
  <anchor x="505.80133333333333" y="476.5466666666667" name="center"/>
  <anchor x="505.80133333333333" y="952.96" name="top"/>
  <outline>
    <contour>
      <point x="53.09466666666667" y="0.0" type="line"/>
      <point x="936.236" y="0.0" type="line"/>
      <point x="936.236" y="92.06" type="line"/>
      <point x="337.96000000000004" y="92.06" type="line"/>
      <point x="371.34933333333333" y="35.73866666666667" type="line"/>
      <point x="953.1506666666667" y="953.3053333333334" type="line"/>
      <point x="90.57600000000001" y="953.3053333333334" type="line"/>
      <point x="90.57600000000001" y="861.712" type="line"/>
      <point x="666.752" y="861.712" type="line"/>
      <point x="636.1813333333333" y="919.5613333333333" type="line"/>
    </contour>
  </outline>
</glyph>
<glyph name="braceleft" format="2">
  <advance width="687.996"/>
  <unicode hex="007B"/>
  <note>
braceleft
</note>
  <outline>
    <contour>
      <point x="607.9013333333334" y="-399.144" type="curve"/>
      <point x="607.9013333333334" y="-278.95733333333334" type="line"/>
      <point x="429.45733333333334" y="-303.168"/>
      <point x="357.6346666666667" y="-209.52533333333335"/>
      <point x="357.6346666666667" y="23.5" type="curve" smooth="yes"/>
      <point x="357.6346666666667" y="337.6666666666667" type="line" smooth="yes"/>
      <point x="357.6346666666667" y="398.108"/>
      <point x="318.80133333333333" y="441.6093333333333"/>
      <point x="266.0146666666667" y="482.43333333333334" type="curve"/>
      <point x="319.83733333333333" y="525.96"/>
      <point x="357.6346666666667" y="567.0706666666666"/>
      <point x="357.6346666666667" y="626.9" type="curve" smooth="yes"/>
      <point x="357.6346666666667" y="1043.0666666666666" type="line" smooth="yes"/>
      <point x="357.6346666666667" y="1274.9253333333334"/>
      <point x="430.6573333333333" y="1369.7346666666667"/>
      <point x="607.9013333333334" y="1345.0573333333334" type="curve"/>
      <point x="607.9013333333334" y="1465.7106666666666" type="line"/>
      <point x="355.99733333333336" y="1484.268"/>
      <point x="201.84133333333332" y="1342.5346666666667"/>
      <point x="201.84133333333332" y="1111.3666666666666" type="curve" smooth="yes"/>
      <point x="201.84133333333332" y="626.9" type="line" smooth="yes"/>
      <point x="201.84133333333332" y="567.0173333333333"/>
      <point x="165.892" y="534.844"/>
      <point x="81.74933333333334" y="482.9" type="curve"/>
      <point x="165.49200000000002" y="430.22266666666667"/>
      <point x="201.84133333333332" y="397.5493333333333"/>
      <point x="201.84133333333332" y="337.6666666666667" type="curve" smooth="yes"/>
      <point x="201.84133333333332" y="-44.666666666666664" type="line" smooth="yes"/>
      <point x="201.84133333333332" y="-277.08"/>
      <point x="354.476" y="-417.38933333333335"/>
    </contour>
  </outline>
</glyph>
<glyph name="bar" format="2">
  <advance width="626.5013333333334"/>
  <unicode hex="007C"/>
  <note>
bar
</note>
  <outline>
    <contour>
      <point x="200.53733333333332" y="-300.0" type="line"/>
      <point x="425.964" y="-300.0" type="line"/>
      <point x="425.964" y="1664.0" type="line"/>
      <point x="200.53733333333332" y="1664.0" type="line"/>
    </contour>
  </outline>
</glyph>
<glyph name="braceright" format="2">
  <advance width="688.1293333333333"/>
  <unicode hex="007D"/>
  <note>
braceright
</note>
  <outline>
    <contour>
      <point x="80.09466666666667" y="-399.144" type="line"/>
      <point x="333.65333333333336" y="-417.38933333333335"/>
      <point x="486.1546666666667" y="-277.08"/>
      <point x="486.1546666666667" y="-44.666666666666664" type="curve" smooth="yes"/>
      <point x="486.1546666666667" y="337.6666666666667" type="line" smooth="yes"/>
      <point x="486.1546666666667" y="397.716"/>
      <point x="522.1706666666666" y="429.92266666666666"/>
      <point x="606.38" y="482.6" type="curve"/>
      <point x="521.4706666666667" y="535.0106666666667"/>
      <point x="486.1546666666667" y="567.3506666666667"/>
      <point x="486.1546666666667" y="626.9" type="curve" smooth="yes"/>
      <point x="486.1546666666667" y="1111.3666666666666" type="line" smooth="yes"/>
      <point x="486.1546666666667" y="1342.5346666666667"/>
      <point x="332.132" y="1484.268"/>
      <point x="80.09466666666667" y="1465.7106666666666" type="curve"/>
      <point x="80.09466666666667" y="1345.0573333333334" type="line"/>
      <point x="257.772" y="1369.7346666666667"/>
      <point x="330.328" y="1275.092"/>
      <point x="330.328" y="1043.0666666666666" type="curve" smooth="yes"/>
      <point x="330.328" y="626.9" type="line" smooth="yes"/>
      <point x="330.328" y="566.604"/>
      <point x="368.12533333333334" y="526.1266666666667"/>
      <point x="421.948" y="482.43333333333334" type="curve"/>
      <point x="369.16133333333335" y="441.44266666666664"/>
      <point x="330.328" y="398.2746666666667"/>
      <point x="330.328" y="337.6666666666667" type="curve" smooth="yes"/>
      <point x="330.328" y="23.5" type="line" smooth="yes"/>
      <point x="330.328" y="-209.52533333333335"/>
      <point x="258.50533333333334" y="-303.168"/>
      <point x="80.09466666666667" y="-278.95733333333334" type="curve"/>
    </contour>
  </outline>
</glyph>
<glyph name="asciitilde" format="2">
  <advance width="1343.7706666666666"/>
  <unicode hex="007E"/>
  <note>
asciitilde
</note>
  <outline>
    <contour>
      <point x="869.6066666666667" y="557.7066666666667" type="curve" smooth="yes"/>
      <point x="997.4866666666667" y="557.7066666666667"/>
      <point x="1143.4133333333334" y="649.376"/>
      <point x="1217.436" y="698.196" type="curve"/>
      <point x="1132.8706666666667" y="829.4853333333333" type="line"/>
      <point x="1014.384" y="754.912"/>
      <point x="926.9653333333333" y="730.3066666666666"/>
      <point x="869.5066666666667" y="730.3066666666666" type="curve" smooth="yes"/>
      <point x="802.5626666666667" y="730.3066666666666"/>
      <point x="743.412" y="769.3773333333334"/>
      <point x="696.5626666666667" y="794.74" type="curve" smooth="yes"/>
      <point x="590.1466666666666" y="852.544"/>
      <point x="516.3293333333334" y="867.3933333333333"/>
      <point x="473.028" y="867.3933333333333" type="curve" smooth="yes"/>
      <point x="367.71866666666665" y="867.3933333333333"/>
      <point x="227.62666666666667" y="788.4613333333333"/>
      <point x="125.27066666666667" y="706.7146666666666" type="curve"/>
      <point x="210.59733333333332" y="581.5866666666667" type="line"/>
      <point x="339.33866666666665" y="667.1346666666667"/>
      <point x="420.0333333333333" y="694.06"/>
      <point x="472.29466666666667" y="694.06" type="curve" smooth="yes"/>
      <point x="530.624" y="694.06"/>
      <point x="614.6493333333333" y="650.676"/>
      <point x="660.504" y="626.1333333333333" type="curve" smooth="yes"/>
      <point x="779.0533333333333" y="560.8066666666666"/>
      <point x="835.9426666666667" y="557.7066666666667"/>
    </contour>
  </outline>
</glyph>
<glyph name=".notdef" format="2">
  <advance width="1332.0386666666666"/>
  <unicode hex="007F"/>
  <note>
.notdef
</note>
  <outline>
    <contour>
      <point x="119.78933333333333" y="-355.41333333333336" type="line"/>
      <point x="1212.2493333333334" y="-355.41333333333336" type="line"/>
      <point x="1212.2493333333334" y="1417.2133333333334" type="line"/>
      <point x="119.78933333333333" y="1417.2133333333334" type="line"/>
    </contour>
    <contour>
      <point x="316.7493333333333" y="-197.82" type="line"/>
      <point x="316.7493333333333" y="1259.62" type="line"/>
      <point x="1015.8893333333333" y="1259.62" type="line"/>
      <point x="1015.8893333333333" y="-197.82" type="line"/>
    </contour>
  </outline>
</glyph>
<glyph name="Euro" format="2">
  <advance width="1656.2253333333333"/>
  <unicode hex="0080"/>
  <note>
Euro
</note>
  <outline>
    <contour>
      <point x="994.8413333333333" y="-45.24666666666667" type="curve" smooth="yes"/>
      <point x="1277.9893333333334" y="-45.24666666666667"/>
      <point x="1454.08" y="119.3"/>
      <point x="1521.124" y="309.5133333333333" type="curve"/>
      <point x="1316.0720000000001" y="309.5133333333333" type="line"/>
      <point x="1238.444" y="150.96666666666667"/>
      <point x="1102.712" y="39.21333333333333"/>
      <point x="1004.5746666666666" y="39.21333333333333" type="curve" smooth="yes"/>
      <point x="749.804" y="39.21333333333333"/>
      <point x="568.388" y="373.77733333333333"/>
      <point x="568.388" y="703.2333333333333" type="curve" smooth="yes"/>
      <point x="568.388" y="1048.1413333333333"/>
      <point x="756.0013333333334" y="1365.8533333333332"/>
      <point x="1003.208" y="1365.8533333333332" type="curve" smooth="yes"/>
      <point x="1100.5306666666668" y="1365.8533333333332"/>
      <point x="1243.6746666666668" y="1240.4933333333333"/>
      <point x="1312.1386666666667" y="1084.52" type="curve"/>
      <point x="1516.1906666666666" y="1084.52" type="line"/>
      <point x="1455.2466666666667" y="1273.888"/>
      <point x="1279.1680000000001" y="1450.18"/>
      <point x="994.9746666666667" y="1450.18" type="curve" smooth="yes"/>
      <point x="595.0893333333333" y="1450.18"/>
      <point x="309.5" y="1134.0106666666666"/>
      <point x="312.82533333333333" y="703.5666666666667" type="curve" smooth="yes"/>
      <point x="322.924" y="261.4986666666667"/>
      <point x="591.5893333333333" y="-45.24666666666667"/>
    </contour>
    <contour>
      <point x="128.092" y="510.42" type="line"/>
      <point x="1071.6266666666666" y="510.42" type="line"/>
      <point x="1092.1106666666667" y="595.08" type="line"/>
      <point x="149.50933333333333" y="595.08" type="line"/>
    </contour>
    <contour>
      <point x="176.392" y="803.32" type="line"/>
      <point x="1120.0933333333332" y="803.32" type="line"/>
      <point x="1140.3773333333334" y="887.8466666666667" type="line"/>
      <point x="197.94266666666667" y="887.8466666666667" type="line"/>
    </contour>
  </outline>
</glyph>
<glyph name="sterling" format="2">
  <advance width="1362.756"/>
  <unicode hex="00A3"/>
  <note>
sterling
</note>
  <outline>
    <contour>
      <point x="479.78" y="114.74666666666668" type="curve" smooth="yes"/>
      <point x="598.2226666666667" y="114.74666666666668"/>
      <point x="810.1266666666667" y="260.17066666666665"/>
      <point x="810.1266666666667" y="479.6666666666667" type="curve" smooth="yes"/>
      <point x="810.1266666666667" y="613.2746666666667"/>
      <point x="734.2213333333334" y="694.116"/>
      <point x="613.3506666666667" y="793.1986666666667" type="curve" smooth="yes"/>
      <point x="475.8266666666667" y="906.6386666666667"/>
      <point x="422.15999999999997" y="1014.8546666666666"/>
      <point x="422.15999999999997" y="1135.6666666666667" type="curve" smooth="yes"/>
      <point x="422.15999999999997" y="1293.2933333333333"/>
      <point x="522.8266666666667" y="1390.6866666666667"/>
      <point x="637.78" y="1390.6866666666667" type="curve" smooth="yes"/>
      <point x="779.7813333333334" y="1390.6866666666667"/>
      <point x="904.396" y="1240.8773333333334"/>
      <point x="910.212" y="1088.7866666666666" type="curve"/>
      <point x="1136.184" y="1088.7866666666666" type="line"/>
      <point x="1105.2066666666667" y="1335.78"/>
      <point x="911.2293333333333" y="1469.4466666666667"/>
      <point x="654.1133333333333" y="1469.4466666666667" type="curve" smooth="yes"/>
      <point x="348.80133333333333" y="1469.4466666666667"/>
      <point x="184.2" y="1278.7453333333333"/>
      <point x="184.2" y="1053.2666666666667" type="curve" smooth="yes"/>
      <point x="184.2" y="885.864"/>
      <point x="286.36133333333333" y="764.744"/>
      <point x="401.79066666666665" y="684.1226666666666" type="curve" smooth="yes"/>
      <point x="495.22266666666667" y="619.16"/>
      <point x="566.6333333333333" y="573.5186666666666"/>
      <point x="566.6333333333333" y="471.23333333333335" type="curve" smooth="yes"/>
      <point x="566.6333333333333" y="328.5986666666667"/>
      <point x="388.0493333333333" y="163.14000000000001"/>
      <point x="217.84666666666666" y="163.80666666666667" type="curve"/>
      <point x="312.0133333333333" y="115.87466666666666"/>
      <point x="391.8466666666667" y="117.84533333333334"/>
    </contour>
    <contour>
      <point x="160.44666666666666" y="0.0" type="line"/>
      <point x="1230.1466666666668" y="0.0" type="line"/>
      <point x="1230.1466666666668" y="168.98666666666668" type="line"/>
      <point x="160.44666666666666" y="168.98666666666668" type="line"/>
    </contour>
    <contour>
      <point x="160.04666666666668" y="662.264" type="line"/>
      <point x="1037.9133333333334" y="662.264" type="line"/>
      <point x="1037.9133333333334" y="749.06" type="line"/>
      <point x="160.04666666666668" y="749.06" type="line"/>
    </contour>
  </outline>
</glyph>
<glyph name="currency" format="2">
  <advance width="1407.8706666666667"/>
  <unicode hex="00A4"/>
  <note>
currency
</note>
  <outline>
    <contour>
      <point x="245.28666666666666" y="131.428" type="line"/>
      <point x="426.8893333333333" y="313.75866666666667" type="line"/>
      <point x="504.848" y="256.9626666666667"/>
      <point x="600.9639999999999" y="223.91466666666665"/>
      <point x="704.592" y="223.91466666666665" type="curve" smooth="yes"/>
      <point x="808.9013333333334" y="223.91466666666665"/>
      <point x="905.3533333333334" y="257.2986666666667"/>
      <point x="983.3026666666667" y="314.076" type="curve"/>
      <point x="1166.4106666666667" y="131.08266666666668" type="line"/>
      <point x="1269.472" y="235.88933333333335" type="line"/>
      <point x="1087.5520000000001" y="419.01599999999996" type="line"/>
      <point x="1145.0666666666666" y="497.108"/>
      <point x="1178.824" y="593.4546666666666"/>
      <point x="1178.824" y="698.1466666666666" type="curve" smooth="yes"/>
      <point x="1178.824" y="803.1933333333334"/>
      <point x="1144.712" y="900.028"/>
      <point x="1087.5426666666667" y="977.6413333333334" type="curve"/>
      <point x="1269.4720000000002" y="1160.644" type="line"/>
      <point x="1164.8773333333334" y="1266.6293333333333" type="line"/>
      <point x="982.248" y="1083.272" type="line"/>
      <point x="904.2986666666667" y="1139.3493333333333"/>
      <point x="808.2013333333334" y="1172.7333333333333"/>
      <point x="704.592" y="1172.7333333333333" type="curve" smooth="yes"/>
      <point x="599.7066666666667" y="1172.7333333333333"/>
      <point x="503.2453333333333" y="1138.9946666666667"/>
      <point x="425.16266666666667" y="1081.8533333333335" type="curve"/>
      <point x="242.16" y="1266.8413333333333" type="line"/>
      <point x="137.344" y="1160.644" type="line"/>
      <point x="320.0013333333333" y="976.568" type="line"/>
      <point x="263.408" y="898.6093333333333"/>
      <point x="230.00533333333334" y="802.484"/>
      <point x="230.00533333333334" y="698.1466666666666" type="curve" smooth="yes"/>
      <point x="230.00533333333334" y="593.1186666666666"/>
      <point x="264.4533333333333" y="496.09066666666666"/>
      <point x="321.94933333333336" y="417.6533333333333" type="curve"/>
      <point x="140.48" y="236.02266666666668" type="line"/>
    </contour>
    <contour>
      <point x="704.592" y="363.67466666666667" type="curve" smooth="yes"/>
      <point x="519.3533333333334" y="363.67466666666667"/>
      <point x="369.76533333333333" y="512.908"/>
      <point x="369.76533333333333" y="698.1466666666666" type="curve" smooth="yes"/>
      <point x="369.76533333333333" y="883.3853333333334"/>
      <point x="519.3533333333334" y="1032.9733333333334"/>
      <point x="704.592" y="1032.9733333333334" type="curve" smooth="yes"/>
      <point x="889.8306666666667" y="1032.9733333333334"/>
      <point x="1039.064" y="883.3853333333334"/>
      <point x="1039.064" y="698.1466666666666" type="curve" smooth="yes"/>
      <point x="1039.064" y="512.908"/>
      <point x="889.8306666666667" y="363.67466666666667"/>
    </contour>
  </outline>
</glyph>
<glyph name="brokenbar" format="2">
  <advance width="619.408"/>
  <unicode hex="00A6"/>
  <note>
brokenbar
</note>
  <outline>
    <contour>
      <point x="200.53733333333332" y="-300.0" type="line"/>
      <point x="418.8706666666667" y="-300.0" type="line"/>
      <point x="418.8706666666667" y="509.4" type="line"/>
      <point x="200.53733333333332" y="509.4" type="line"/>
    </contour>
    <contour>
      <point x="200.53733333333332" y="882.6" type="line"/>
      <point x="418.8706666666667" y="882.6" type="line"/>
      <point x="418.8706666666667" y="1664.0" type="line"/>
      <point x="200.53733333333332" y="1664.0" type="line"/>
    </contour>
  </outline>
</glyph>
<glyph name="section" format="2">
  <advance width="1279.548"/>
  <unicode hex="00A7"/>
  <note>
section
</note>
  <outline>
    <contour>
      <point x="621.5826666666667" y="-434.9986666666667" type="curve" smooth="yes"/>
      <point x="898.4546666666666" y="-434.9986666666667"/>
      <point x="1082.4173333333333" y="-310.94"/>
      <point x="1081.708" y="-106.82133333333334" type="curve" smooth="yes"/>
      <point x="1080.9986666666666" y="79.50266666666667"/>
      <point x="949.96" y="163.12"/>
      <point x="700.12" y="216.87466666666666" type="curve"/>
      <point x="692.9866666666667" y="145.46133333333333" type="line"/>
      <point x="987.152" y="176.41733333333335"/>
      <point x="1153.1106666666667" y="296.748"/>
      <point x="1152.0466666666666" y="516.9893333333333" type="curve" smooth="yes"/>
      <point x="1151.3373333333334" y="702.3653333333333"/>
      <point x="1039.6200000000001" y="813.6373333333333"/>
      <point x="779.2893333333333" y="903.7693333333333" type="curve" smooth="yes"/>
      <point x="583.2146666666667" y="971.4906666666667"/>
      <point x="467.364" y="1025.6173333333334"/>
      <point x="466.6546666666667" y="1135.0333333333333" type="curve" smooth="yes"/>
      <point x="465.59066666666666" y="1268.94"/>
      <point x="523.1653333333334" y="1371.5773333333334"/>
      <point x="643.1653333333334" y="1371.5773333333334" type="curve" smooth="yes"/>
      <point x="757.4933333333333" y="1371.5773333333334"/>
      <point x="816.976" y="1282.8466666666666"/>
      <point x="814.972" y="1090.068" type="curve"/>
      <point x="1077.5066666666667" y="1090.068" type="line"/>
      <point x="1077.5066666666667" y="1136.1426666666666" type="line" smooth="yes"/>
      <point x="1077.5066666666667" y="1346.1586666666667"/>
      <point x="923.9346666666667" y="1463.732"/>
      <point x="654.1106666666667" y="1463.732" type="curve" smooth="yes"/>
      <point x="377.8106666666667" y="1463.732"/>
      <point x="189.87733333333333" y="1338.6773333333333"/>
      <point x="190.58666666666667" y="1137.0333333333333" type="curve" smooth="yes"/>
      <point x="191.296" y="970.1226666666666"/>
      <point x="302.63466666666665" y="889.5173333333333"/>
      <point x="608.0853333333333" y="807.0893333333333" type="curve"/>
      <point x="573.7893333333334" y="883.0866666666667" type="line"/>
      <point x="307.3306666666667" y="873.596"/>
      <point x="129.57333333333332" y="733.2466666666667"/>
      <point x="130.63733333333334" y="511.744" type="curve" smooth="yes"/>
      <point x="131.34666666666666" y="323.0213333333333"/>
      <point x="237.36666666666667" y="220.244"/>
      <point x="575.0106666666667" y="107.15066666666667" type="curve" smooth="yes"/>
      <point x="713.4266666666666" y="61.33866666666667"/>
      <point x="808.8666666666667" y="-8.257333333333335"/>
      <point x="809.2213333333333" y="-100.46666666666667" type="curve" smooth="yes"/>
      <point x="809.9306666666666" y="-235.96666666666667"/>
      <point x="747.684" y="-342.844"/>
      <point x="625.5826666666667" y="-342.844" type="curve" smooth="yes"/>
      <point x="507.5253333333333" y="-342.844"/>
      <point x="435.6213333333333" y="-248.14"/>
      <point x="438.73733333333337" y="-53.501333333333335" type="curve"/>
      <point x="174.26666666666668" y="-53.501333333333335" type="line"/>
      <point x="174.26666666666668" y="-99.70933333333333" type="line" smooth="yes"/>
      <point x="174.26666666666668" y="-300.5466666666667"/>
      <point x="351.21866666666665" y="-434.9986666666667"/>
    </contour>
    <contour>
      <point x="640.2093333333333" y="237.268" type="curve" smooth="yes"/>
      <point x="507.3453333333333" y="237.268"/>
      <point x="392.0253333333334" y="376.35066666666665"/>
      <point x="391.31600000000003" y="521.1333333333333" type="curve" smooth="yes"/>
      <point x="390.6066666666667" y="667.34"/>
      <point x="503.68666666666667" y="800.9826666666667"/>
      <point x="637.8933333333333" y="800.9826666666667" type="curve" smooth="yes"/>
      <point x="772.9333333333333" y="800.9826666666667"/>
      <point x="890.4706666666667" y="668.3466666666667"/>
      <point x="891.1800000000001" y="523.4493333333334" type="curve" smooth="yes"/>
      <point x="891.8893333333333" y="379.29066666666665"/>
      <point x="772.052" y="237.268"/>
    </contour>
  </outline>
</glyph>
<glyph name="copyright" format="2">
  <advance width="1802.6493333333333"/>
  <unicode hex="00A9"/>
  <note>
copyright
</note>
  <outline>
    <contour>
      <point x="899.9853333333333" y="-21.784" type="curve" smooth="yes"/>
      <point x="1107.5986666666668" y="-21.784"/>
      <point x="1310.1453333333334" y="63.84533333333333"/>
      <point x="1446.3946666666666" y="194.228" type="curve" smooth="yes"/>
      <point x="1596.948" y="338.1813333333333"/>
      <point x="1669.048" y="508.364"/>
      <point x="1669.048" y="706.9" type="curve" smooth="yes"/>
      <point x="1669.048" y="908.1573333333333"/>
      <point x="1594.76" y="1078.8066666666666"/>
      <point x="1447.8946666666666" y="1222.8933333333334" type="curve" smooth="yes"/>
      <point x="1312.8546666666666" y="1354.0666666666666"/>
      <point x="1112.6506666666667" y="1435.584"/>
      <point x="899.9853333333333" y="1435.584" type="curve" smooth="yes"/>
      <point x="701.452" y="1435.584"/>
      <point x="503.07866666666666" y="1365.3293333333334"/>
      <point x="361.94266666666664" y="1224.0266666666666" type="curve" smooth="yes"/>
      <point x="212.668" y="1074.752"/>
      <point x="132.73466666666667" y="903.7026666666667"/>
      <point x="132.73466666666667" y="706.9" type="curve" smooth="yes"/>
      <point x="132.73466666666667" y="511.54266666666666"/>
      <point x="208.868" y="339.81466666666665"/>
      <point x="360.376" y="192.69466666666668" type="curve" smooth="yes"/>
      <point x="499.79466666666667" y="56.821333333333335"/>
      <point x="697.432" y="-21.784"/>
    </contour>
    <contour>
      <point x="898.052" y="276.904" type="curve" smooth="yes"/>
      <point x="1114.804" y="276.904"/>
      <point x="1267.3213333333333" y="401.936"/>
      <point x="1278.2746666666667" y="574.14" type="curve"/>
      <point x="1084.4386666666667" y="574.14" type="line"/>
      <point x="1064.516" y="454.65066666666667"/>
      <point x="1003.816" y="393.94"/>
      <point x="904.54" y="393.94" type="curve" smooth="yes"/>
      <point x="777.0746666666666" y="393.94"/>
      <point x="696.8826666666666" y="511.72"/>
      <point x="696.8826666666666" y="704.9" type="curve" smooth="yes"/>
      <point x="696.8826666666666" y="900.8973333333333"/>
      <point x="773.4986666666666" y="1023.9146666666667"/>
      <point x="904.54" y="1023.9146666666667" type="curve" smooth="yes"/>
      <point x="999.452" y="1023.9146666666667"/>
      <point x="1052.8946666666666" y="970.4826666666667"/>
      <point x="1075.584" y="861.5693333333334" type="curve"/>
      <point x="1268.5746666666666" y="861.5693333333334" type="line"/>
      <point x="1258.188" y="1020.028"/>
      <point x="1113.48" y="1139.2506666666666"/>
      <point x="907.5853333333333" y="1139.2506666666666" type="curve" smooth="yes"/>
      <point x="653.024" y="1139.2506666666666"/>
      <point x="487.26800000000003" y="969.548"/>
      <point x="487.26800000000003" y="703.3666666666667" type="curve" smooth="yes"/>
      <point x="487.26800000000003" y="443.18266666666665"/>
      <point x="644.948" y="276.904"/>
    </contour>
    <contour>
      <point x="899.9853333333333" y="100.70933333333335" type="curve" smooth="yes"/>
      <point x="740.3386666666667" y="100.70933333333335"/>
      <point x="601.1026666666667" y="162.79466666666667"/>
      <point x="480.96000000000004" y="281.25866666666667" type="curve" smooth="yes"/>
      <point x="372.664" y="386.8666666666667"/>
      <point x="305.87333333333333" y="544.5666666666667"/>
      <point x="305.87333333333333" y="706.9" type="curve" smooth="yes"/>
      <point x="305.87333333333333" y="869.7613333333334"/>
      <point x="369.78266666666667" y="1027.7853333333333"/>
      <point x="482.99333333333334" y="1138.6626666666666" type="curve" smooth="yes"/>
      <point x="602.56" y="1256.896"/>
      <point x="732.884" y="1315.4786666666666"/>
      <point x="899.9853333333333" y="1315.4786666666666" type="curve" smooth="yes"/>
      <point x="1063.6533333333334" y="1315.4786666666666"/>
      <point x="1202.8226666666667" y="1255.596"/>
      <point x="1325.1106666666667" y="1136.8293333333334" type="curve" smooth="yes"/>
      <point x="1434.3546666666666" y="1030.8853333333334"/>
      <point x="1497.776" y="867.9946666666667"/>
      <point x="1497.776" y="706.9" type="curve" smooth="yes"/>
      <point x="1497.776" y="537.5053333333333"/>
      <point x="1433.8" y="383.8813333333333"/>
      <point x="1327.7893333333334" y="283.25866666666667" type="curve" smooth="yes"/>
      <point x="1205.956" y="166.804"/>
      <point x="1061.496" y="100.70933333333335"/>
    </contour>
  </outline>
</glyph>
<glyph name="ordfeminine" format="2">
  <advance width="921.328"/>
  <unicode hex="00AA"/>
  <note>
ordfeminine
</note>
  <outline>
    <contour>
      <point x="419.04" y="812.3533333333334" type="curve" smooth="yes"/>
      <point x="494.628" y="812.3533333333334"/>
      <point x="556.9506666666666" y="848.3946666666667"/>
      <point x="594.6266666666667" y="901.4386666666667" type="curve"/>
      <point x="594.6266666666667" y="827.1466666666666" type="line"/>
      <point x="778.12" y="827.1466666666666" type="line"/>
      <point x="778.12" y="1446.3466666666666" type="line"/>
      <point x="592.6266666666667" y="1446.3466666666666" type="line"/>
      <point x="592.6266666666667" y="1368.5306666666665" type="line"/>
      <point x="555.9173333333333" y="1424.0293333333334"/>
      <point x="492.916" y="1461.88"/>
      <point x="414.74" y="1461.88" type="curve" smooth="yes"/>
      <point x="229.92933333333335" y="1461.88"/>
      <point x="108.36" y="1328.8466666666666"/>
      <point x="108.36" y="1135.0333333333333" type="curve" smooth="yes"/>
      <point x="108.36" y="942.268"/>
      <point x="232.93866666666668" y="812.3533333333334"/>
    </contour>
    <contour>
      <point x="432.34000000000003" y="885.0133333333333" type="curve" smooth="yes"/>
      <point x="346.952" y="885.0133333333333"/>
      <point x="301.6533333333333" y="1006.408"/>
      <point x="301.6533333333333" y="1146.5666666666666" type="curve" smooth="yes"/>
      <point x="301.6533333333333" y="1278.564"/>
      <point x="350.41066666666666" y="1389.22"/>
      <point x="430.04" y="1389.22" type="curve" smooth="yes"/>
      <point x="513.932" y="1389.22"/>
      <point x="581.6266666666667" y="1263.0706666666667"/>
      <point x="581.6266666666667" y="1133.1666666666667" type="curve" smooth="yes"/>
      <point x="581.6266666666667" y="1006.7573333333333"/>
      <point x="517.396" y="885.0133333333333"/>
    </contour>
    <contour>
      <point x="101.32666666666667" y="639.4466666666667" type="line"/>
      <point x="804.8533333333334" y="639.4466666666667" type="line"/>
      <point x="804.8533333333334" y="734.7266666666667" type="line"/>
      <point x="101.32666666666667" y="734.7266666666667" type="line"/>
    </contour>
  </outline>
</glyph>
<glyph name="logicalnot" format="2">
  <advance width="1096.3893333333333"/>
  <unicode hex="00AC"/>
  <note>
logicalnot
</note>
  <outline>
    <contour>
      <point x="1188.5493333333334" y="330.88666666666666" type="line"/>
      <point x="1382.676" y="330.88666666666666" type="line"/>
      <point x="1382.676" y="859.28" type="line"/>
      <point x="133.44933333333333" y="859.28" type="line"/>
      <point x="133.44933333333333" y="700.7866666666666" type="line"/>
      <point x="1188.5493333333334" y="700.7866666666666" type="line"/>
    </contour>
  </outline>
</glyph>
<glyph name="registered" format="2">
  <advance width="1780.3053333333332"/>
  <unicode hex="00AE"/>
  <note>
registered
</note>
  <outline>
    <contour>
      <point x="888.636" y="-18.946666666666665" type="curve" smooth="yes"/>
      <point x="1087.14" y="-18.946666666666665"/>
      <point x="1282.9573333333333" y="59.68266666666666"/>
      <point x="1425.8426666666667" y="196.00133333333332" type="curve" smooth="yes"/>
      <point x="1572.8493333333333" y="336.408"/>
      <point x="1646.3493333333333" y="506.98266666666666"/>
      <point x="1646.3493333333333" y="706.9" type="curve" smooth="yes"/>
      <point x="1646.3493333333333" y="905.6933333333334"/>
      <point x="1571.3613333333333" y="1079.18"/>
      <point x="1428.388" y="1219.3653333333334" type="curve" smooth="yes"/>
      <point x="1288.8026666666667" y="1355.784"/>
      <point x="1095.6733333333334" y="1432.7466666666667"/>
      <point x="888.636" y="1432.7466666666667" type="curve" smooth="yes"/>
      <point x="687.6666666666666" y="1432.7466666666667"/>
      <point x="498.84133333333335" y="1361.456"/>
      <point x="360.15066666666667" y="1223.9986666666666" type="curve" smooth="yes"/>
      <point x="208.82266666666666" y="1074.0706666666667"/>
      <point x="133.08933333333334" y="900.5293333333333"/>
      <point x="133.08933333333334" y="706.9" type="curve" smooth="yes"/>
      <point x="133.08933333333334" y="512.5973333333334"/>
      <point x="208.532" y="340.1413333333333"/>
      <point x="355.784" y="195.868" type="curve" smooth="yes"/>
      <point x="496.2853333333333" y="57.86666666666667"/>
      <point x="690.348" y="-18.946666666666665"/>
    </contour>
    <contour>
      <point x="887.236" y="103.54666666666668" type="curve" smooth="yes"/>
      <point x="727.916" y="103.54666666666668"/>
      <point x="584.4146666666667" y="165.30533333333332"/>
      <point x="465.3546666666667" y="283.032" type="curve" smooth="yes"/>
      <point x="351.44933333333336" y="395.304"/>
      <point x="288.84933333333333" y="549.448"/>
      <point x="288.84933333333333" y="706.9" type="curve" smooth="yes"/>
      <point x="288.84933333333333" y="869.052"/>
      <point x="353.44933333333336" y="1024.2293333333332"/>
      <point x="468.788" y="1137.9346666666668" type="curve" smooth="yes"/>
      <point x="586.9266666666666" y="1254.74"/>
      <point x="722.216" y="1312.2866666666666"/>
      <point x="888.636" y="1312.2866666666666" type="curve" smooth="yes"/>
      <point x="1054.7773333333334" y="1312.2866666666666"/>
      <point x="1197.8573333333334" y="1252.04"/>
      <point x="1319.4173333333333" y="1133.3013333333333" type="curve" smooth="yes"/>
      <point x="1431.144" y="1024.8746666666666"/>
      <point x="1492.456" y="867.2853333333334"/>
      <point x="1492.456" y="704.1" type="curve" smooth="yes"/>
      <point x="1492.456" y="541.36"/>
      <point x="1430.5893333333333" y="390.2373333333333"/>
      <point x="1318.9506666666666" y="283.632" type="curve" smooth="yes"/>
      <point x="1195.736" y="165.10533333333333"/>
      <point x="1050.856" y="103.54666666666668"/>
    </contour>
    <contour>
      <point x="589.1" y="326.57466666666664" type="line"/>
      <point x="773.8133333333333" y="326.57466666666664" type="line"/>
      <point x="773.8133333333333" y="651.968" type="line"/>
      <point x="880.6893333333334" y="651.968" type="line"/>
      <point x="1049.1293333333333" y="326.57466666666664" type="line"/>
      <point x="1248.3466666666666" y="326.57466666666664" type="line"/>
      <point x="1062.48" y="675.1506666666667" type="line"/>
      <point x="1177.016" y="710.044"/>
      <point x="1233.3253333333334" y="784.46"/>
      <point x="1233.3253333333334" y="887.2346666666667" type="curve" smooth="yes"/>
      <point x="1233.3253333333334" y="1035.108"/>
      <point x="1119.8706666666667" y="1112.1586666666667"/>
      <point x="886.348" y="1112.1586666666667" type="curve" smooth="yes"/>
      <point x="589.1" y="1112.1586666666667" type="line"/>
    </contour>
    <contour>
      <point x="773.8133333333333" y="758.2773333333333" type="line"/>
      <point x="773.8133333333333" y="1003.1706666666666" type="line"/>
      <point x="874.8386666666667" y="1003.004" type="line" smooth="yes"/>
      <point x="1007.092" y="1002.704"/>
      <point x="1047.712" y="973.492"/>
      <point x="1047.712" y="878.7133333333334" type="curve" smooth="yes"/>
      <point x="1047.712" y="790.6253333333333"/>
      <point x="1011.0493333333334" y="758.2773333333333"/>
      <point x="878.66" y="758.2773333333333" type="curve" smooth="yes"/>
    </contour>
  </outline>
</glyph>
<glyph name="degree" format="2">
  <advance width="864.4293333333334"/>
  <unicode hex="00B0"/>
  <note>
degree
</note>
  <outline>
    <contour>
      <point x="431.49466666666666" y="844.2226666666667" type="curve" smooth="yes"/>
      <point x="593.4173333333333" y="844.2226666666667"/>
      <point x="724.7946666666667" y="975.4666666666667"/>
      <point x="724.7946666666667" y="1137.0586666666666" type="curve" smooth="yes"/>
      <point x="724.7946666666667" y="1298.0053333333333"/>
      <point x="593.4173333333333" y="1429.2493333333334"/>
      <point x="432.47066666666666" y="1429.2493333333334" type="curve" smooth="yes"/>
      <point x="270.036" y="1429.2493333333334"/>
      <point x="139.63466666666667" y="1298.848"/>
      <point x="139.63466666666667" y="1137.0586666666666" type="curve" smooth="yes"/>
      <point x="139.63466666666667" y="974.624"/>
      <point x="269.32666666666665" y="844.2226666666667"/>
    </contour>
    <contour>
      <point x="432.47066666666666" y="938.7386666666666" type="curve" smooth="yes"/>
      <point x="322.5106666666667" y="938.7386666666666"/>
      <point x="234.284" y="1027.0986666666668"/>
      <point x="234.284" y="1137.0586666666666" type="curve" smooth="yes"/>
      <point x="234.284" y="1245.664"/>
      <point x="322.5106666666667" y="1333.8906666666667"/>
      <point x="432.47066666666666" y="1333.8906666666667" type="curve" smooth="yes"/>
      <point x="541.9186666666667" y="1333.8906666666667"/>
      <point x="629.436" y="1245.664"/>
      <point x="629.436" y="1137.0586666666666" type="curve" smooth="yes"/>
      <point x="629.436" y="1027.0986666666668"/>
      <point x="541.9186666666667" y="938.7386666666666"/>
    </contour>
  </outline>
</glyph>
<glyph name="plusminus" format="2">
  <advance width="1096.3893333333333"/>
  <unicode hex="00B1"/>
  <note>
plusminus
</note>
  <outline>
    <contour>
      <point x="487.244" y="342.52" type="line"/>
      <point x="643.8373333333334" y="342.52" type="line"/>
      <point x="643.8373333333334" y="577.9533333333334" type="line"/>
      <point x="981.6706666666666" y="577.9533333333334" type="line"/>
      <point x="981.6706666666666" y="757.7133333333334" type="line"/>
      <point x="643.8373333333334" y="757.7133333333334" type="line"/>
      <point x="643.8373333333334" y="992.98" type="line"/>
      <point x="487.244" y="992.98" type="line"/>
      <point x="487.244" y="757.7133333333334" type="line"/>
      <point x="149.41066666666666" y="757.7133333333334" type="line"/>
      <point x="149.41066666666666" y="577.9533333333334" type="line"/>
      <point x="487.244" y="577.9533333333334" type="line"/>
    </contour>
    <contour>
      <point x="148.89866666666666" y="68.44" type="line"/>
      <point x="981.0253333333333" y="68.44" type="line"/>
      <point x="981.0253333333333" y="248.06666666666666" type="line"/>
      <point x="148.89866666666666" y="248.06666666666666" type="line"/>
    </contour>
  </outline>
</glyph>
<glyph name="paragraph" format="2">
  <advance width="1254.8773333333334"/>
  <unicode hex="00B6"/>
  <note>
paragraph
</note>
  <outline>
    <contour>
      <point x="494.0706666666667" y="0.0" type="line"/>
      <point x="679.3306666666667" y="0.0" type="line"/>
      <point x="679.3306666666667" y="1332.0546666666667" type="line"/>
      <point x="826.4226666666667" y="1332.0546666666667" type="line"/>
      <point x="826.4226666666667" y="0.0" type="line"/>
      <point x="1009.816" y="0.0" type="line"/>
      <point x="1009.816" y="1332.0546666666667" type="line"/>
      <point x="1133.016" y="1332.0546666666667" type="line"/>
      <point x="1133.016" y="1452.5746666666666" type="line"/>
      <point x="560.6346666666667" y="1452.5746666666666" type="line" smooth="yes"/>
      <point x="303.58" y="1452.5746666666666"/>
      <point x="124.93733333333333" y="1283.3146666666667"/>
      <point x="124.93733333333333" y="1052.0773333333334" type="curve" smooth="yes"/>
      <point x="124.93733333333333" y="839.9626666666667"/>
      <point x="273.128" y="659.556"/>
      <point x="494.0706666666667" y="655.4706666666666" type="curve"/>
    </contour>
  </outline>
</glyph>
<glyph name="ordmasculine" format="2">
  <advance width="888.3919999999999"/>
  <unicode hex="00BA"/>
  <note>
ordmasculine
</note>
  <outline>
    <contour>
      <point x="444.4626666666667" y="812.62" type="curve" smooth="yes"/>
      <point x="648.9946666666667" y="812.62"/>
      <point x="789.876" y="940.8706666666667"/>
      <point x="789.876" y="1135.1666666666667" type="curve" smooth="yes"/>
      <point x="789.876" y="1331.0293333333334"/>
      <point x="649.4733333333334" y="1461.58"/>
      <point x="444.4626666666667" y="1461.58" type="curve" smooth="yes"/>
      <point x="239.31866666666667" y="1461.58"/>
      <point x="99.48266666666667" y="1331.1626666666666"/>
      <point x="99.48266666666667" y="1135.1666666666667" type="curve" smooth="yes"/>
      <point x="99.48266666666667" y="940.5706666666666"/>
      <point x="239.964" y="812.62"/>
    </contour>
    <contour>
      <point x="442.896" y="885.5466666666666" type="curve" smooth="yes"/>
      <point x="357.8786666666667" y="885.5466666666666"/>
      <point x="291.24266666666665" y="1016.076"/>
      <point x="291.24266666666665" y="1135.1666666666667" type="curve" smooth="yes"/>
      <point x="291.24266666666665" y="1254.7693333333334"/>
      <point x="358.3573333333334" y="1388.6533333333334"/>
      <point x="442.896" y="1388.6533333333334" type="curve" smooth="yes"/>
      <point x="527.78" y="1388.6533333333334"/>
      <point x="596.5826666666667" y="1254.424"/>
      <point x="596.5826666666667" y="1135.1666666666667" type="curve" smooth="yes"/>
      <point x="596.5826666666667" y="1016.076"/>
      <point x="528.1253333333334" y="885.5466666666666"/>
    </contour>
    <contour>
      <point x="91.28266666666664" y="639.4466666666667" type="line"/>
      <point x="796.1426666666666" y="639.4466666666667" type="line"/>
      <point x="796.1426666666666" y="734.7266666666667" type="line"/>
      <point x="91.28266666666664" y="734.7266666666667" type="line"/>
    </contour>
  </outline>
</glyph>
<glyph name="AE" format="2">
  <advance width="2009.8986666666667"/>
  <unicode hex="00C6"/>
  <note>
AE
</note>
  <anchor x="1035.4306666666666" y="9.666666666666671" name="bottom"/>
  <anchor x="1035.4306666666666" y="1430.0" name="top"/>
  <outline>
    <contour>
      <point x="74.94666666666667" y="0.0" type="line"/>
      <point x="203.65333333333334" y="0.0" type="line"/>
      <point x="1103.5693333333334" y="1436.7466666666667" type="line"/>
      <point x="975.1626666666667" y="1436.7466666666667" type="line"/>
    </contour>
    <contour>
      <point x="455.22933333333333" y="445.4533333333333" type="line"/>
      <point x="1187.2226666666666" y="445.4533333333333" type="line"/>
      <point x="1187.2226666666666" y="530.2466666666667" type="line"/>
      <point x="455.22933333333333" y="530.2466666666667" type="line"/>
    </contour>
    <contour>
      <point x="983.696" y="0.0" type="line"/>
      <point x="1909.256" y="0.0" type="line"/>
      <point x="1909.256" y="84.66" type="line"/>
      <point x="1053.8893333333333" y="84.66" type="line"/>
      <point x="1265.8226666666667" y="12.878666666666668" type="line"/>
      <point x="1265.8226666666667" y="758.1626666666667" type="line"/>
      <point x="1121.3666666666666" y="688.7493333333333" type="line"/>
      <point x="1909.256" y="688.7493333333333" type="line"/>
      <point x="1909.256" y="773.4093333333333" type="line"/>
      <point x="1119.0" y="773.4093333333333" type="line"/>
      <point x="1265.8226666666667" y="704.0626666666667" type="line"/>
      <point x="1265.8226666666667" y="1423.8013333333333" type="line"/>
      <point x="1046.5893333333333" y="1352.0866666666666" type="line"/>
      <point x="1909.256" y="1352.0866666666666" type="line"/>
      <point x="1909.256" y="1436.7466666666667" type="line"/>
      <point x="983.696" y="1436.7466666666667" type="line"/>
    </contour>
  </outline>
</glyph>
<glyph name="Thorn" format="2">
  <advance width="1206.4893333333334"/>
  <unicode hex="00DE"/>
  <note>
Thorn
</note>
  <anchor x="603.996" y="9.666666666666671" name="bottom"/>
  <anchor x="603.996" y="1430.0" name="top"/>
  <outline>
    <contour>
      <point x="389.83733333333333" y="324.3333333333333" type="line"/>
      <point x="562.8413333333333" y="324.3333333333333" type="line" smooth="yes"/>
      <point x="766.928" y="324.3333333333333"/>
      <point x="880.5360000000001" y="347.884"/>
      <point x="954.6333333333333" y="406.60266666666666" type="curve" smooth="yes"/>
      <point x="1063.696" y="493.2026666666667"/>
      <point x="1115.788" y="596.9493333333334"/>
      <point x="1115.788" y="741.1466666666666" type="curve" smooth="yes"/>
      <point x="1115.788" y="880.452"/>
      <point x="1067.6453333333334" y="982.2933333333333"/>
      <point x="963.6546666666667" y="1067.124" type="curve" smooth="yes"/>
      <point x="892.9" y="1125.0573333333334"/>
      <point x="768.6506666666667" y="1155.26"/>
      <point x="563.1413333333334" y="1155.26" type="curve" smooth="yes"/>
      <point x="389.5373333333333" y="1155.26" type="line"/>
      <point x="389.5373333333333" y="1074.2" type="line"/>
      <point x="507.108" y="1074.2" type="line" smooth="yes"/>
      <point x="756.5106666666667" y="1074.2"/>
      <point x="831.128" y="952.4146666666667"/>
      <point x="831.128" y="733.5466666666666" type="curve" smooth="yes"/>
      <point x="831.128" y="521.488"/>
      <point x="759.6746666666667" y="405.3933333333333"/>
      <point x="507.108" y="405.3933333333333" type="curve" smooth="yes"/>
      <point x="389.83733333333333" y="405.3933333333333" type="line"/>
    </contour>
    <contour>
      <point x="162.228" y="0.0" type="line"/>
      <point x="441.8546666666667" y="0.0" type="line"/>
      <point x="441.8546666666667" y="1436.7466666666667" type="line"/>
      <point x="162.228" y="1436.7466666666667" type="line"/>
    </contour>
  </outline>
</glyph>
<glyph name="germandbls" format="2">
  <advance width="1394.232"/>
  <unicode hex="00DF"/>
  <note>
germandbls
</note>
  <anchor x="697.2040000000001" y="14.200000000000003" name="bottom"/>
  <anchor x="697.2040000000001" y="941.9933333333333" name="top"/>
  <outline>
    <contour>
      <point x="927.0013333333334" y="-47.513333333333335" type="curve" smooth="yes"/>
      <point x="1197.4386666666667" y="-47.513333333333335"/>
      <point x="1333.728" y="59.141333333333336"/>
      <point x="1333.728" y="263.94666666666666" type="curve" smooth="yes"/>
      <point x="1333.728" y="474.90933333333334"/>
      <point x="1181.5493333333334" y="556.4066666666666"/>
      <point x="980.3746666666666" y="594.6066666666667" type="curve" smooth="yes"/>
      <point x="893.088" y="610.6173333333334"/>
      <point x="795.4813333333334" y="643.9453333333333"/>
      <point x="795.4813333333334" y="724.2933333333333" type="curve" smooth="yes"/>
      <point x="795.4813333333334" y="796.1706666666666"/>
      <point x="852.0546666666667" y="826.1653333333334"/>
      <point x="926.8973333333333" y="876.812" type="curve" smooth="yes"/>
      <point x="1013.976" y="936.2893333333334"/>
      <point x="1129.9146666666666" y="1007.68"/>
      <point x="1129.9146666666666" y="1193.7333333333333" type="curve" smooth="yes"/>
      <point x="1129.9146666666666" y="1410.572"/>
      <point x="977.1186666666667" y="1573.2133333333334"/>
      <point x="668.7213333333334" y="1573.2133333333334" type="curve" smooth="yes"/>
      <point x="384.25600000000003" y="1573.2133333333334"/>
      <point x="222.06133333333335" y="1417.3613333333333"/>
      <point x="222.06133333333335" y="1131.8333333333333" type="curve" smooth="yes"/>
      <point x="222.06133333333335" y="0.0" type="line"/>
      <point x="495.42133333333334" y="0.0" type="line"/>
      <point x="495.42133333333334" y="1105.0333333333333" type="line" smooth="yes"/>
      <point x="495.42133333333334" y="1368.1986666666667"/>
      <point x="547.0133333333333" y="1480.02"/>
      <point x="681.3213333333333" y="1480.02" type="curve" smooth="yes"/>
      <point x="842.6560000000001" y="1480.02"/>
      <point x="937.088" y="1354.3333333333333"/>
      <point x="937.088" y="1201.6333333333334" type="curve" smooth="yes"/>
      <point x="937.088" y="1083.9533333333334"/>
      <point x="870.156" y="1029.6373333333333"/>
      <point x="794.7653333333334" y="975.9346666666667" type="curve" smooth="yes"/>
      <point x="715.5613333333333" y="919.2053333333333"/>
      <point x="616.488" y="863.064"/>
      <point x="616.488" y="702.26" type="curve" smooth="yes"/>
      <point x="616.488" y="542.8666666666667"/>
      <point x="716.7760000000001" y="450.54133333333334"/>
      <point x="914.0973333333334" y="404.8826666666667" type="curve" smooth="yes"/>
      <point x="990.7266666666667" y="387.64133333333336"/>
      <point x="1125.2746666666667" y="361.64933333333335"/>
      <point x="1125.2746666666667" y="222.34" type="curve" smooth="yes"/>
      <point x="1125.2746666666667" y="100.22666666666667"/>
      <point x="1029.7893333333334" y="50.48000000000001"/>
      <point x="924.7213333333334" y="50.48000000000001" type="curve" smooth="yes"/>
      <point x="807.7" y="50.48000000000001"/>
      <point x="736.4426666666667" y="100.55333333333334"/>
      <point x="611.6213333333333" y="256.492" type="curve"/>
      <point x="607.8546666666666" y="72.09866666666667" type="line"/>
      <point x="664.8346666666666" y="18.430666666666664"/>
      <point x="741.3626666666667" y="-47.513333333333335"/>
    </contour>
    <contour>
      <point x="46.228" y="864.0333333333333" type="line"/>
      <point x="378.9546666666667" y="864.0333333333333" type="line"/>
      <point x="378.9546666666667" y="953.96" type="line"/>
      <point x="46.228" y="953.96" type="line"/>
    </contour>
  </outline>
</glyph>
<glyph name="ae" format="2">
  <advance width="2016.6826666666666"/>
  <unicode hex="00E6"/>
  <note>
ae
</note>
  <anchor x="1001.0533333333334" y="14.200000000000003" name="bottom"/>
  <anchor x="1009.32" y="941.9933333333333" name="top"/>
  <outline>
    <contour>
      <point x="535.772" y="-38.71333333333334" type="curve" smooth="yes"/>
      <point x="754.7226666666667" y="-38.71333333333334"/>
      <point x="882.9986666666666" y="81.792"/>
      <point x="931.3946666666667" y="282.1426666666667" type="curve"/>
      <point x="873.072" y="325.0133333333333" type="line"/>
      <point x="872.272" y="0.0" type="line"/>
      <point x="1122.952" y="0.0" type="line"/>
      <point x="1122.952" y="952.96" type="line"/>
      <point x="868.372" y="952.96" type="line"/>
      <point x="868.372" y="611.5853333333333" type="line"/>
      <point x="926.84" y="653.0586666666667" type="line"/>
      <point x="881.1706666666666" y="861.8293333333334"/>
      <point x="741.6693333333334" y="979.26"/>
      <point x="530.172" y="979.26" type="curve" smooth="yes"/>
      <point x="247.95466666666667" y="979.26"/>
      <point x="71.69200000000001" y="769.2106666666666"/>
      <point x="71.69200000000001" y="465.14666666666665" type="curve" smooth="yes"/>
      <point x="71.69200000000001" y="159.796"/>
      <point x="253.052" y="-38.71333333333334"/>
    </contour>
    <contour>
      <point x="565.1053333333333" y="53.080000000000005" type="curve" smooth="yes"/>
      <point x="412.29066666666665" y="53.080000000000005"/>
      <point x="349.252" y="234.51733333333334"/>
      <point x="349.252" y="470.24666666666667" type="curve" smooth="yes"/>
      <point x="349.252" y="721.08"/>
      <point x="416.608" y="887.6333333333333"/>
      <point x="560.2053333333333" y="887.6333333333333" type="curve" smooth="yes"/>
      <point x="719.0626666666667" y="887.6333333333333"/>
      <point x="828.4586666666667" y="686.2746666666667"/>
      <point x="828.4586666666667" y="464.61333333333334" type="curve" smooth="yes"/>
      <point x="828.4586666666667" y="251.33333333333334"/>
      <point x="726.9266666666666" y="53.080000000000005"/>
    </contour>
    <contour>
      <point x="1489.356" y="-35.42" type="curve" smooth="yes"/>
      <point x="1718.4360000000001" y="-35.42"/>
      <point x="1857.5733333333333" y="88.2"/>
      <point x="1935.9026666666666" y="321.35333333333335" type="curve"/>
      <point x="1778.9266666666667" y="321.35333333333335" type="line"/>
      <point x="1768.5653333333335" y="191.73466666666667"/>
      <point x="1619.1" y="55.56133333333335"/>
      <point x="1497.5013333333334" y="55.56133333333335" type="curve" smooth="yes"/>
      <point x="1351.2293333333334" y="55.56133333333335"/>
      <point x="1272.3333333333333" y="262.46133333333336"/>
      <point x="1272.3333333333333" y="464.5466666666667" type="curve" smooth="yes"/>
      <point x="1272.3333333333333" y="649.4973333333334"/>
      <point x="1355.9279999999999" y="882.7986666666667"/>
      <point x="1489.356" y="882.7986666666667" type="curve" smooth="yes"/>
      <point x="1602.556" y="882.7986666666667"/>
      <point x="1667.6173333333334" y="717.1693333333334"/>
      <point x="1691.3146666666667" y="500.46666666666664" type="curve"/>
      <point x="1954.712" y="500.46666666666664" type="line"/>
      <point x="1918.4706666666666" y="801.9093333333333"/>
      <point x="1749.7386666666666" y="974.08"/>
      <point x="1483.9226666666668" y="974.08" type="curve" smooth="yes"/>
      <point x="1199.812" y="974.08"/>
      <point x="1007.512" y="768.556"/>
      <point x="1007.512" y="466.2133333333333" type="curve" smooth="yes"/>
      <point x="1007.512" y="163.768"/>
      <point x="1198.8146666666667" y="-35.42"/>
    </contour>
    <contour>
      <point x="1222.2706666666668" y="499.8213333333333" type="line"/>
      <point x="1906.4226666666666" y="500.46666666666664" type="line"/>
      <point x="1905.092" y="584.5906666666667" type="line"/>
      <point x="1201.4826666666668" y="584.5906666666667" type="line"/>
    </contour>
  </outline>
</glyph>
<glyph name="eth" format="2">
  <advance width="1212.316"/>
  <unicode hex="00F0"/>
  <note>
eth
</note>
  <outline>
    <contour>
      <point x="601.356" y="-48.913333333333334" type="curve" smooth="yes"/>
      <point x="775.12" y="-48.913333333333334"/>
      <point x="900.836" y="11.884"/>
      <point x="993.2866666666666" y="118.78" type="curve" smooth="yes"/>
      <point x="1078.5186666666666" y="213.712"/>
      <point x="1130.9693333333335" y="329.31600000000003"/>
      <point x="1130.9693333333335" y="504.9" type="curve" smooth="yes"/>
      <point x="1130.836" y="652.4506666666666"/>
      <point x="1094.1680000000001" y="855.0186666666667"/>
      <point x="1015.7186666666666" y="1005.1506666666667" type="curve" smooth="yes"/>
      <point x="876.7826666666667" y="1273.3226666666667"/>
      <point x="556.092" y="1477.2786666666666"/>
      <point x="186.31866666666667" y="1542.6666666666667" type="curve"/>
      <point x="136.06666666666666" y="1466.3946666666666" type="line"/>
      <point x="515.476" y="1401.2586666666666"/>
      <point x="782.4066666666666" y="1143.9253333333334"/>
      <point x="864.1586666666667" y="736.912" type="curve"/>
      <point x="974.316" y="803.9" type="line"/>
      <point x="865.62" y="904.244"/>
      <point x="751.0133333333333" y="960.1800000000001"/>
      <point x="601.356" y="960.1800000000001" type="curve" smooth="yes"/>
      <point x="461.1453333333333" y="960.1800000000001"/>
      <point x="324.0106666666667" y="919.9506666666666"/>
      <point x="223.88933333333333" y="825.236" type="curve" smooth="yes"/>
      <point x="125.924" y="735.2226666666667"/>
      <point x="70.30933333333333" y="602.7253333333333"/>
      <point x="70.30933333333333" y="451.1" type="curve" smooth="yes"/>
      <point x="70.30933333333333" y="316.06933333333336"/>
      <point x="120.0" y="188.992"/>
      <point x="206.23066666666665" y="99.01333333333334" type="curve" smooth="yes"/>
      <point x="311.22133333333335" y="-11.425333333333331"/>
      <point x="457.9426666666667" y="-48.913333333333334"/>
    </contour>
    <contour>
      <point x="600.4893333333333" y="40.046666666666674" type="curve" smooth="yes"/>
      <point x="456.592" y="40.046666666666674"/>
      <point x="348.10266666666666" y="253.82133333333334"/>
      <point x="348.10266666666666" y="452.76666666666665" type="curve" smooth="yes"/>
      <point x="348.10266666666666" y="652.1786666666667"/>
      <point x="457.67066666666665" y="871.0533333333333"/>
      <point x="600.4893333333333" y="871.0533333333333" type="curve" smooth="yes"/>
      <point x="743.0413333333333" y="871.0533333333333"/>
      <point x="852.876" y="651.7786666666667"/>
      <point x="852.876" y="452.1" type="curve" smooth="yes"/>
      <point x="852.876" y="253.25466666666668"/>
      <point x="744.12" y="40.046666666666674"/>
    </contour>
    <contour>
      <point x="186.292" y="1099.6866666666667" type="line"/>
      <point x="340.9146666666667" y="1099.6866666666667" type="line"/>
      <point x="853.1826666666667" y="1574.0973333333334" type="line"/>
      <point x="698.6933333333334" y="1574.0973333333334" type="line"/>
    </contour>
  </outline>
</glyph>
<glyph name="divide" format="2">
  <advance width="1096.3893333333333"/>
  <unicode hex="00F7"/>
  <note>
divide
</note>
  <outline>
    <contour>
      <point x="121.444" y="522.1866666666666" type="line"/>
      <point x="1355.904" y="522.1866666666666" type="line"/>
      <point x="1355.904" y="680.2133333333334" type="line"/>
      <point x="121.444" y="680.2133333333334" type="line"/>
    </contour>
    <contour>
      <point x="738.8786666666666" y="67.60133333333332" type="curve" smooth="yes"/>
      <point x="824.332" y="67.60133333333332"/>
      <point x="890.9346666666667" y="140.004"/>
      <point x="890.9346666666667" y="229.39066666666665" type="curve" smooth="yes"/>
      <point x="890.9346666666667" y="318.77733333333333"/>
      <point x="824.032" y="391.48"/>
      <point x="738.8786666666666" y="391.48" type="curve" smooth="yes"/>
      <point x="654.0253333333333" y="391.48"/>
      <point x="587.256" y="318.77733333333333"/>
      <point x="587.256" y="229.39066666666665" type="curve" smooth="yes"/>
      <point x="587.256" y="140.13733333333334"/>
      <point x="654.0253333333334" y="67.60133333333332"/>
    </contour>
    <contour>
      <point x="738.8786666666666" y="809.3106666666666" type="curve" smooth="yes"/>
      <point x="824.032" y="809.3106666666666"/>
      <point x="890.9346666666667" y="881.7133333333334"/>
      <point x="890.9346666666667" y="970.9333333333334" type="curve" smooth="yes"/>
      <point x="890.9346666666667" y="1060.1866666666667"/>
      <point x="824.032" y="1132.8893333333333"/>
      <point x="738.8786666666666" y="1132.8893333333333" type="curve" smooth="yes"/>
      <point x="653.8586666666667" y="1132.8893333333333"/>
      <point x="587.256" y="1060.1866666666667"/>
      <point x="587.256" y="970.9333333333334" type="curve" smooth="yes"/>
      <point x="587.256" y="881.7133333333334"/>
      <point x="653.316" y="809.3106666666666"/>
    </contour>
  </outline>
</glyph>
<glyph name="thorn" format="2">
  <advance width="1251.2586666666666"/>
  <unicode hex="00FE"/>
  <note>
thorn
</note>
  <anchor x="650.2866666666666" y="14.200000000000003" name="bottom"/>
  <anchor x="650.2866666666666" y="940.2666666666667" name="top"/>
  <outline>
    <contour>
      <point x="142.04" y="-527.4186666666667" type="line"/>
      <point x="416.8" y="-527.4186666666667" type="line"/>
      <point x="416.8" y="337.86133333333333" type="line"/>
      <point x="352.5253333333333" y="296.38800000000003" type="line"/>
      <point x="397.3946666666667" y="87.91733333333333"/>
      <point x="508.17733333333337" y="-33.846666666666664"/>
      <point x="722.4866666666667" y="-33.846666666666664" type="curve" smooth="yes"/>
      <point x="1000.792" y="-33.846666666666664"/>
      <point x="1179.5666666666666" y="172.128"/>
      <point x="1179.5666666666666" y="480.53333333333336" type="curve" smooth="yes"/>
      <point x="1179.5666666666666" y="782.2293333333333"/>
      <point x="1006.2586666666666" y="988.08"/>
      <point x="723.7933333333333" y="988.08" type="curve" smooth="yes"/>
      <point x="505.08799999999997" y="988.08"/>
      <point x="391.8466666666667" y="867.708"/>
      <point x="344.35066666666665" y="666.5906666666667" type="curve"/>
      <point x="413.0666666666667" y="621.6333333333333" type="line"/>
      <point x="413.0666666666667" y="1519.6533333333334" type="line"/>
      <point x="142.04" y="1519.6533333333334" type="line"/>
    </contour>
    <contour>
      <point x="686.82" y="57.613333333333344" type="curve" smooth="yes"/>
      <point x="528.4986666666666" y="57.613333333333344"/>
      <point x="418.1" y="262.00266666666664"/>
      <point x="418.1" y="483.56666666666666" type="curve" smooth="yes"/>
      <point x="418.1" y="695.8973333333333"/>
      <point x="522.0893333333333" y="896.7533333333333"/>
      <point x="682.0866666666667" y="896.7533333333333" type="curve" smooth="yes"/>
      <point x="841.292" y="896.7533333333333"/>
      <point x="906.24" y="713.6706666666666"/>
      <point x="906.24" y="475.43333333333334" type="curve" smooth="yes"/>
      <point x="906.24" y="223.45466666666667"/>
      <point x="836.12" y="57.613333333333344"/>
    </contour>
  </outline>
</glyph>
<glyph name="idotless" format="2">
  <advance width="515.6306666666667"/>
  <unicode hex="0131"/>
  <note>
dotlessi
</note>
  <anchor x="258.25333333333333" y="-1.4666666666666686" name="bottom"/>
  <anchor x="292.2626666666667" y="0.0" name="ogonek"/>
  <anchor x="258.25333333333333" y="952.96" name="top"/>
  <outline>
    <contour>
      <point x="120.98533333333333" y="0.0" type="line"/>
      <point x="394.6453333333334" y="0.0" type="line"/>
      <point x="394.6453333333334" y="952.96" type="line"/>
      <point x="120.98533333333333" y="952.96" type="line"/>
    </contour>
  </outline>
</glyph>
